<svg width="24" height="24" fill="none" version="1.1" xmlns="http://www.w3.org/2000/svg">
<defs><style id="current-color-scheme" type="text/css">.ColorScheme-Highlight {color:#3584e4;}</style></defs>
<rect class="ColorScheme-Highlight" x="1.0201" y=".94865" width="22.013" height="22.048" rx="6.4695" ry="6.4695" style="fill:currentColor;opacity:.7;vector-effect:non-scaling-stroke"/>
<rect x="3" y="2" width="18" height="18" rx="4.4" fill="url(#b)" fill-opacity=".875" opacity=".125" style="fill-opacity:1;fill:#000000;opacity:.06"/>
<rect x="2.9362" y="2.9362" width="18.071" height="18.072" rx="4.1205" ry="4.1205" opacity="0.8" style="fill:#e6e6e6;vector-effect:non-scaling-stroke"/>
<path d="m1 8.2626c-0.056293-1.7083 1.5647-3.2161 3.2943-3.0368 1.4979 0.019558 2.9995-0.042974 4.4947 0.038983 2.0349 0.15394 3.2592 2.337 5.4127 2.072 2.0315 0.00992 4.0643-0.020192 6.095 0.015701 1.6547 0.13326 2.8782 1.7631 2.7033 3.3574-0.01887 2.0964 0.0401 4.1953-0.03405 6.2899-0.24582 3.0703-2.9158 5.769-6.057 5.9551-3.1588 0.04264-6.3197 0.01021-9.4793 0.01722-3.1473-0.021784-5.9533-2.5852-6.3526-5.6391-0.14767-1.6399-0.046179-3.2922-0.076487-4.9378-1.71e-4 -1.3775-3.42e-4 -2.755-5.13e-4 -4.1326z" fill="url(#c)" fill-opacity=".75" opacity=".25" style="fill-opacity:1;fill:#000000;opacity:.1"/>
<path class="ColorScheme-Highlight" d="M23 11.032a3.01 3.01 0 0 0-3.008-3.008h-5.929a4.74 4.74 0 0 1-2.922-1.012A4.74 4.74 0 0 0 8.218 6h-4.21A3.01 3.01 0 0 0 1 9.008V16.4C1 20.056 3.944 23 7.6 23h8.8a6.585 6.585 0 0 0 6.6-6.594z" style="fill:currentColor;opacity:.65"/>
 <path transform="translate(8, 11) scale(0.5)" fill="currentColor" opacity=".5" class="ColorScheme-Text" d="M 4.545,5.452 C 4.499,5.463 4.453,5.481 4.41,5.504 3.98,5.731 3.87,6.44 4.164,7.096 4.401,7.624 4.821,7.95 5.203,7.94 5.49,9.693 6.633,11 7.993,11 H 8.005 C 9.366,11 10.509,9.693 10.796,7.94 11.177,7.95 11.598,7.624 11.835,7.096 12.129,6.44 12.019,5.731 11.589,5.504 11.545,5.481 11.5,5.463 11.454,5.452 11.399,3.535 9.876,2 8,2 6.125,2 4.6,3.535 4.545,5.452 Z M 10.394,11 C 10.105,11.701 9.12,12.227 7.945,12.227 6.775,12.227 5.799,11.708 5.505,11.012 3.037,11.27 1.238,11.902 1.022,12.649 1.019,12.656 1.024,12.665 1.022,12.672 1.015,12.699 1.015,12.723 1.012,12.75 1.011,12.763 1,12.771 1,12.784 V 12.793 14.643 C 1.001,14.84 1.157,15 1.351,15 H 14.65 C 14.844,15 15,14.84 15,14.643 V 12.793 12.771 C 14.998,12.728 14.979,12.691 14.967,12.648 14.746,11.892 12.908,11.252 10.395,11 Z"/>
</svg>
