<svg width="24" height="24" fill="none" version="1.1" xmlns="http://www.w3.org/2000/svg">
<defs><style id="current-color-scheme" type="text/css">.ColorScheme-Highlight {color:#3584e4;}</style></defs>
<rect class="ColorScheme-Highlight" x="1.0201" y=".94865" width="22.013" height="22.048" rx="6.4695" ry="6.4695" style="fill:currentColor;opacity:.7;vector-effect:non-scaling-stroke"/>
<rect x="3" y="2" width="18" height="18" rx="4.4" fill="url(#b)" fill-opacity=".875" opacity=".125" style="fill-opacity:1;fill:#000000;opacity:.06"/>
<rect x="2.9362" y="2.9362" width="18.071" height="18.072" rx="4.1205" ry="4.1205" opacity="0.8" style="fill:#e6e6e6;vector-effect:non-scaling-stroke"/>
<path d="m1 8.2626c-0.056293-1.7083 1.5647-3.2161 3.2943-3.0368 1.4979 0.019558 2.9995-0.042974 4.4947 0.038983 2.0349 0.15394 3.2592 2.337 5.4127 2.072 2.0315 0.00992 4.0643-0.020192 6.095 0.015701 1.6547 0.13326 2.8782 1.7631 2.7033 3.3574-0.01887 2.0964 0.0401 4.1953-0.03405 6.2899-0.24582 3.0703-2.9158 5.769-6.057 5.9551-3.1588 0.04264-6.3197 0.01021-9.4793 0.01722-3.1473-0.021784-5.9533-2.5852-6.3526-5.6391-0.14767-1.6399-0.046179-3.2922-0.076487-4.9378-1.71e-4 -1.3775-3.42e-4 -2.755-5.13e-4 -4.1326z" fill="url(#c)" fill-opacity=".75" opacity=".25" style="fill-opacity:1;fill:#000000;opacity:.1"/>
<path class="ColorScheme-Highlight" d="M23 11.032a3.01 3.01 0 0 0-3.008-3.008h-5.929a4.74 4.74 0 0 1-2.922-1.012A4.74 4.74 0 0 0 8.218 6h-4.21A3.01 3.01 0 0 0 1 9.008V16.4C1 20.056 3.944 23 7.6 23h8.8a6.585 6.585 0 0 0 6.6-6.594z" style="fill:currentColor;opacity:.65"/>
 <path transform="translate(8, 11) scale(0.5)" fill="currentColor" opacity=".5" class="ColorScheme-Text" d="M 1.142578,4.9999926e-7 C 0.509435,4.9999926e-7 0,0.5094355 0,1.1425785 v 4.742188 c 0,0.633143 0.310216,1.144531 0.943359,1.144531 C 1.576502,7.0292975 2,6.5179105 2,5.8847665 v -2.191766 l 2,1.914422 v 1.392578 h 2 v -0.5 c 0,-0.277 0.223,-0.5 0.5,-0.5 H 7 v -2 H 5.607422 l -1.914422,-2 h 2.191766 c 0.633143,0 1.144531,-0.423498 1.144531,-1.056641 C 7.029297,0.3102165 6.517909,4.9999926e-7 5.884766,4.9999926e-7 Z m 8.972656,0 C 9.482091,4.9999926e-7 8.970703,0.3102165 8.970703,0.9433595 c 0,0.633143 0.511388,1.056641 1.144531,1.056641 H 12.307 l -1.914422,2 H 9 v 2 h 0.5 c 0.277,0 0.5,0.223 0.5,0.5 v 0.5 h 2 v -1.392578 l 2,-1.914422 v 2.191766 c 0,0.633143 0.423498,1.144531 1.056641,1.144531 C 15.689784,7.0292975 16,6.5179095 16,5.8847665 V 1.1425785 C 16,0.5094355 15.490565,4.9999926e-7 14.857422,4.9999926e-7 Z M 15.056641,8.9707035 C 14.423498,8.9707035 14,9.4820915 14,10.115234 V 12.307 L 12,10.392578 V 9.0000005 h -2 v 0.5 C 10,9.7770005 9.777,10 9.5,10 H 9 v 2 h 1.392578 L 12.307,14 H 10.115234 C 9.570008,14 9.11583,14.315102 9,14.806641 V 15 h 10e-4 c -9.52e-4,0.01903 -0.002,0.03721 -0.002,0.05664 0,0.633143 0.483048,0.943359 1.116191,0.943359 h 4.742188 C 15.490565,16 16,15.490565 16,14.857422 V 10.115234 C 16,9.4820915 15.689784,8.9707035 15.056641,8.9707035 Z M 4,9.0000005 V 10.857422 C 4,11.490565 4.509435,12 5.142578,12 H 7 V 10 H 6.5 C 6.223,10 6,9.7770005 6,9.5000005 v -0.5 z"/>
</svg>
