<svg width="24" height="24" fill="none" version="1.1" xmlns="http://www.w3.org/2000/svg">
<defs><style id="current-color-scheme" type="text/css">.ColorScheme-Highlight {color:#3584e4;}</style></defs>
<rect class="ColorScheme-Highlight" x="1.0201" y=".94865" width="22.013" height="22.048" rx="6.4695" ry="6.4695" style="fill:currentColor;opacity:.7;vector-effect:non-scaling-stroke"/>
<rect x="3" y="2" width="18" height="18" rx="4.4" fill="url(#b)" fill-opacity=".875" opacity=".125" style="fill-opacity:1;fill:#000000;opacity:.06"/>
<rect x="2.9362" y="2.9362" width="18.071" height="18.072" rx="4.1205" ry="4.1205" opacity="0.8" style="fill:#e6e6e6;vector-effect:non-scaling-stroke"/>
<path d="m1 8.2626c-0.056293-1.7083 1.5647-3.2161 3.2943-3.0368 1.4979 0.019558 2.9995-0.042974 4.4947 0.038983 2.0349 0.15394 3.2592 2.337 5.4127 2.072 2.0315 0.00992 4.0643-0.020192 6.095 0.015701 1.6547 0.13326 2.8782 1.7631 2.7033 3.3574-0.01887 2.0964 0.0401 4.1953-0.03405 6.2899-0.24582 3.0703-2.9158 5.769-6.057 5.9551-3.1588 0.04264-6.3197 0.01021-9.4793 0.01722-3.1473-0.021784-5.9533-2.5852-6.3526-5.6391-0.14767-1.6399-0.046179-3.2922-0.076487-4.9378-1.71e-4 -1.3775-3.42e-4 -2.755-5.13e-4 -4.1326z" fill="url(#c)" fill-opacity=".75" opacity=".25" style="fill-opacity:1;fill:#000000;opacity:.1"/>
<path class="ColorScheme-Highlight" d="M23 11.032a3.01 3.01 0 0 0-3.008-3.008h-5.929a4.74 4.74 0 0 1-2.922-1.012A4.74 4.74 0 0 0 8.218 6h-4.21A3.01 3.01 0 0 0 1 9.008V16.4C1 20.056 3.944 23 7.6 23h8.8a6.585 6.585 0 0 0 6.6-6.594z" style="fill:currentColor;opacity:.65"/>
 <path transform="translate(8, 11) scale(0.5)" fill="currentColor" opacity=".5" class="ColorScheme-Text" d="M 4.2812,4.2012 C 4.2566,4.2042 4.2295,4.2099 4.2109,4.2285 L 3.3574,5.0762 C 3.3216,5.1119 3.3174,5.1658 3.3437,5.209 L 4.252,6.6973 C 4.0386,7.0437 3.873,7.4209 3.7617,7.8223 L 2.0879,8.168 C 2.0371,8.1784 2,8.2273 2,8.2793 V 9.4766 C 2,9.5273 2.0386,9.5703 2.0879,9.582 L 3.7109,9.9727 C 3.8131,10.424 3.9857,10.849 4.2148,11.236 L 3.2695,12.666 C 3.2409,12.71 3.2462,12.768 3.2832,12.805 L 4.1367,13.652 C 4.1727,13.688 4.2283,13.692 4.2715,13.666 L 5.748,12.775 C 6.1127,12.993 6.5105,13.16 6.9336,13.266 L 7.2793,14.912 C 7.2901,14.963 7.3324,15 7.3848,15 H 8.5918 C 8.6422,15 8.6853,14.967 8.6973,14.918 L 9.1074,13.26 C 9.5339,13.149 9.931,12.971 10.297,12.746 L 11.779,13.711 C 11.823,13.739 11.881,13.734 11.918,13.697 L 12.768,12.852 C 12.804,12.816 12.812,12.76 12.785,12.717 L 12.205,11.77 12.016,11.828 11.941,11.801 10.729,10.242 C 10.242,11.312 9.1753,11.999 8,12 6.3431,12 5,10.657 5,9 5.001,7.9707 5.5296,7.0137 6.4004,6.4648 V 4.875 C 6.1772,4.9579 6.0305,5.0593 5.8262,5.1758 L 4.3496,4.2168 C 4.3277,4.2024 4.3056,4.1988 4.2812,4.2012 Z M 7,1.3989 V 9.9117 L 8.9944,9.6001 V 6.0001 L 11.8,10 14,9 11,5.6001 14,2 11.8,0.99998 8.9944,5.2001 9,1 Z"/>
</svg>
