<svg width="24" height="24" fill="none" version="1.1" xmlns="http://www.w3.org/2000/svg">
<defs><style id="current-color-scheme" type="text/css">.ColorScheme-Highlight {color:#3584e4;}</style></defs>
<rect class="ColorScheme-Highlight" x="1.0201" y=".94865" width="22.013" height="22.048" rx="6.4695" ry="6.4695" style="fill:currentColor;opacity:.7;vector-effect:non-scaling-stroke"/>
<rect x="3" y="2" width="18" height="18" rx="4.4" fill="url(#b)" fill-opacity=".875" opacity=".125" style="fill-opacity:1;fill:#000000;opacity:.06"/>
<rect x="2.9362" y="2.9362" width="18.071" height="18.072" rx="4.1205" ry="4.1205" opacity="0.8" style="fill:#e6e6e6;vector-effect:non-scaling-stroke"/>
<path d="m1 8.2626c-0.056293-1.7083 1.5647-3.2161 3.2943-3.0368 1.4979 0.019558 2.9995-0.042974 4.4947 0.038983 2.0349 0.15394 3.2592 2.337 5.4127 2.072 2.0315 0.00992 4.0643-0.020192 6.095 0.015701 1.6547 0.13326 2.8782 1.7631 2.7033 3.3574-0.01887 2.0964 0.0401 4.1953-0.03405 6.2899-0.24582 3.0703-2.9158 5.769-6.057 5.9551-3.1588 0.04264-6.3197 0.01021-9.4793 0.01722-3.1473-0.021784-5.9533-2.5852-6.3526-5.6391-0.14767-1.6399-0.046179-3.2922-0.076487-4.9378-1.71e-4 -1.3775-3.42e-4 -2.755-5.13e-4 -4.1326z" fill="url(#c)" fill-opacity=".75" opacity=".25" style="fill-opacity:1;fill:#000000;opacity:.1"/>
<path class="ColorScheme-Highlight" d="M23 11.032a3.01 3.01 0 0 0-3.008-3.008h-5.929a4.74 4.74 0 0 1-2.922-1.012A4.74 4.74 0 0 0 8.218 6h-4.21A3.01 3.01 0 0 0 1 9.008V16.4C1 20.056 3.944 23 7.6 23h8.8a6.585 6.585 0 0 0 6.6-6.594z" style="fill:currentColor;opacity:.65"/>
 <path transform="translate(8, 11) scale(0.5)" fill="currentColor" opacity=".5" class="ColorScheme-Text" d="M 0,10.057 3.0078,11.793 C 3.0028,11.862 3.0002,11.931 3,12 3,13.657 4.3432,15 6,15 7.6569,15 9,13.657 9,12 8.9993,11.905 8.9941,11.811 8.9844,11.717 L 13.361,8.8867 C 14.911,8.4932 15.997,7.0991 16,5.5 16,3.567 14.433,2 12.5,2 10.783,2.001 9.3208,3.2468 9.0469,4.9414 L 6.5684,9.0566 C 6.3811,9.0197 6.1908,9.0008 6,9 5.5472,9.001 5.1005,9.1045 4.6934,9.3027 L 0,6.5928 M 12.5,3 C 13.881,3 15,4.1193 15,5.5 15,6.8807 13.881,8 12.5,8 11.119,8 10,6.8807 10,5.5 10,4.1193 11.119,3 12.5,3 Z M 12.5,4 C 11.672,4 11,4.6716 11,5.5 11,6.3284 11.672,7 12.5,7 13.328,7 14,6.3284 14,5.5 14,4.6716 13.328,4 12.5,4 Z M 6,10 C 7.1046,10 8,10.895 8,12 8,13.105 7.1046,14 6,14 5.0464,13.999 4.2263,13.324 4.041,12.389 L 4.7461,12.797 C 5.4658,13.212 6.3794,12.968 6.7949,12.248 7.2104,11.528 6.9658,10.615 6.2461,10.199 L 5.9082,10.004 C 5.9388,10.002 5.9694,10.001 6,10 Z"/>
</svg>
