<svg width="24" height="24" fill="none" version="1.1" xmlns="http://www.w3.org/2000/svg">
<defs><style id="current-color-scheme" type="text/css">.ColorScheme-Highlight {color:#3584e4;}</style></defs>
<rect class="ColorScheme-Highlight" x="1.0201" y=".94865" width="22.013" height="22.048" rx="6.4695" ry="6.4695" style="fill:currentColor;opacity:.7;vector-effect:non-scaling-stroke"/>
<rect x="3" y="2" width="18" height="18" rx="4.4" fill="url(#b)" fill-opacity=".875" opacity=".125" style="fill-opacity:1;fill:#000000;opacity:.06"/>
<rect x="2.9362" y="2.9362" width="18.071" height="18.072" rx="4.1205" ry="4.1205" opacity="0.8" style="fill:#e6e6e6;vector-effect:non-scaling-stroke"/>
<path d="m1 8.2626c-0.056293-1.7083 1.5647-3.2161 3.2943-3.0368 1.4979 0.019558 2.9995-0.042974 4.4947 0.038983 2.0349 0.15394 3.2592 2.337 5.4127 2.072 2.0315 0.00992 4.0643-0.020192 6.095 0.015701 1.6547 0.13326 2.8782 1.7631 2.7033 3.3574-0.01887 2.0964 0.0401 4.1953-0.03405 6.2899-0.24582 3.0703-2.9158 5.769-6.057 5.9551-3.1588 0.04264-6.3197 0.01021-9.4793 0.01722-3.1473-0.021784-5.9533-2.5852-6.3526-5.6391-0.14767-1.6399-0.046179-3.2922-0.076487-4.9378-1.71e-4 -1.3775-3.42e-4 -2.755-5.13e-4 -4.1326z" fill="url(#c)" fill-opacity=".75" opacity=".25" style="fill-opacity:1;fill:#000000;opacity:.1"/>
<path class="ColorScheme-Highlight" d="M23 11.032a3.01 3.01 0 0 0-3.008-3.008h-5.929a4.74 4.74 0 0 1-2.922-1.012A4.74 4.74 0 0 0 8.218 6h-4.21A3.01 3.01 0 0 0 1 9.008V16.4C1 20.056 3.944 23 7.6 23h8.8a6.585 6.585 0 0 0 6.6-6.594z" style="fill:currentColor;opacity:.65"/>
 <path transform="translate(8, 11) scale(0.5)" fill="currentColor" opacity=".5" class="ColorScheme-Text" d="m8.4648438 1.015625c-0.7550096-0.05083732-1.5268095 0.0214644-2.2871094 0.2265625-3.0412 0.8203925-5.1665934 3.5825304-5.1777344 6.7324219a1 1 0 0 0 0.0019531 0.0253906h-1.0019531l2 2 2-2h-1a1 1 0 0 0 0 -0.0175781c0.0079866-2.2580414 1.5171388-4.222437 3.6972656-4.8105469 2.1801267-0.5881099 4.4727134 0.3511449 5.6152344 2.2988281 1.142521 1.9476834 0.842814 4.4055318-0.734375 6.0214849-1.53625 1.574006-4.0817199 1.748333-6.09375 0.632812a1.0001221 1.0001221 0 1 0 -0.96875 1.75c2.7176521 1.506737 6.253078 1.309813 8.494141-0.986328 2.200122-2.254196 2.62112-5.7127382 1.027343-8.4296876-1.195332-2.0377123-3.307237-3.2908474-5.5722652-3.4433594zm-0.4804688 2.9707031a1.0001 1.0001 0 0 0 -0.984375 1.0136719v2.8632812a1 1 0 0 0 0.0644531 0.4980469 1 1 0 0 0 0.3320313 0.4492188l1.8964844 1.8964841a1 1 0 1 0 1.4140622 -1.4140622l-1.707031-1.7070313v-2.5859375a1 1 0 0 0 -1.015625 -1.0136719z"/>
</svg>
