<svg width="24" height="24" fill="none" version="1.1" xmlns="http://www.w3.org/2000/svg">
<defs><style id="current-color-scheme" type="text/css">.ColorScheme-Highlight {color:#3584e4;}</style></defs>
<rect class="ColorScheme-Highlight" x="1.0201" y=".94865" width="22.013" height="22.048" rx="6.4695" ry="6.4695" style="fill:currentColor;opacity:.7;vector-effect:non-scaling-stroke"/>
<rect x="3" y="2" width="18" height="18" rx="4.4" fill="url(#b)" fill-opacity=".875" opacity=".125" style="fill-opacity:1;fill:#000000;opacity:.06"/>
<rect x="2.9362" y="2.9362" width="18.071" height="18.072" rx="4.1205" ry="4.1205" opacity="0.8" style="fill:#e6e6e6;vector-effect:non-scaling-stroke"/>
<path d="m1 8.2626c-0.056293-1.7083 1.5647-3.2161 3.2943-3.0368 1.4979 0.019558 2.9995-0.042974 4.4947 0.038983 2.0349 0.15394 3.2592 2.337 5.4127 2.072 2.0315 0.00992 4.0643-0.020192 6.095 0.015701 1.6547 0.13326 2.8782 1.7631 2.7033 3.3574-0.01887 2.0964 0.0401 4.1953-0.03405 6.2899-0.24582 3.0703-2.9158 5.769-6.057 5.9551-3.1588 0.04264-6.3197 0.01021-9.4793 0.01722-3.1473-0.021784-5.9533-2.5852-6.3526-5.6391-0.14767-1.6399-0.046179-3.2922-0.076487-4.9378-1.71e-4 -1.3775-3.42e-4 -2.755-5.13e-4 -4.1326z" fill="url(#c)" fill-opacity=".75" opacity=".25" style="fill-opacity:1;fill:#000000;opacity:.1"/>
<path class="ColorScheme-Highlight" d="M23 11.032a3.01 3.01 0 0 0-3.008-3.008h-5.929a4.74 4.74 0 0 1-2.922-1.012A4.74 4.74 0 0 0 8.218 6h-4.21A3.01 3.01 0 0 0 1 9.008V16.4C1 20.056 3.944 23 7.6 23h8.8a6.585 6.585 0 0 0 6.6-6.594z" style="fill:currentColor;opacity:.65"/>
 <path transform="translate(8, 11) scale(0.5)" fill="currentColor" opacity=".5" class="ColorScheme-Text" d="M 6 2 C 4.3431 2 3 3.3432 3 5 C 3 6.6568 4.3431 8 6 8 C 7.6569 8 9 6.6568 9 5 C 9 3.3432 7.6569 2 6 2 z M 10.996094 3.9453125 L 11 3.9492188 C 10.61172 3.9492188 10.246706 4.03852 9.9160156 4.1875 C 9.9706156 4.44955 10 4.7205869 10 4.9980469 C 10 6.1001469 9.5457862 7.102225 8.8164062 7.828125 C 9.2764062 8.528125 10.076094 8.9980469 10.996094 8.9980469 C 12.428794 8.9980469 13.589844 7.8677562 13.589844 6.4726562 C 13.589844 5.0775563 12.428794 3.9453125 10.996094 3.9453125 z M 6 9.9960938 C -0.0002 9.9994938 1.1555965e-33 14 0 14 L 0 15 L 12 15 L 12 14 C 12 14 12 9.99 6 10 L 6 9.9960938 z M 11 9.9980469 L 11 10 C 10.8039 10 10.628286 10.012584 10.447266 10.021484 C 11.144826 10.421144 11.676381 10.898558 12.050781 11.398438 C 12.990781 12.658437 13 13.998047 13 13.998047 L 16 13.998047 L 16 12.998047 C 16 12.998047 16 9.9980469 11 9.9980469 z"/>
</svg>
