<svg width="24" height="24" fill="none" version="1.1" xmlns="http://www.w3.org/2000/svg">
<defs><style id="current-color-scheme" type="text/css">.ColorScheme-Highlight {color:#3584e4;}</style></defs>
<rect class="ColorScheme-Highlight" x="1.0201" y=".94865" width="22.013" height="22.048" rx="6.4695" ry="6.4695" style="fill:currentColor;opacity:.7;vector-effect:non-scaling-stroke"/>
<rect x="3" y="2" width="18" height="18" rx="4.4" fill="url(#b)" fill-opacity=".875" opacity=".125" style="fill-opacity:1;fill:#000000;opacity:.06"/>
<rect x="2.9362" y="2.9362" width="18.071" height="18.072" rx="4.1205" ry="4.1205" opacity="0.8" style="fill:#e6e6e6;vector-effect:non-scaling-stroke"/>
<path d="m1 8.2626c-0.056293-1.7083 1.5647-3.2161 3.2943-3.0368 1.4979 0.019558 2.9995-0.042974 4.4947 0.038983 2.0349 0.15394 3.2592 2.337 5.4127 2.072 2.0315 0.00992 4.0643-0.020192 6.095 0.015701 1.6547 0.13326 2.8782 1.7631 2.7033 3.3574-0.01887 2.0964 0.0401 4.1953-0.03405 6.2899-0.24582 3.0703-2.9158 5.769-6.057 5.9551-3.1588 0.04264-6.3197 0.01021-9.4793 0.01722-3.1473-0.021784-5.9533-2.5852-6.3526-5.6391-0.14767-1.6399-0.046179-3.2922-0.076487-4.9378-1.71e-4 -1.3775-3.42e-4 -2.755-5.13e-4 -4.1326z" fill="url(#c)" fill-opacity=".75" opacity=".25" style="fill-opacity:1;fill:#000000;opacity:.1"/>
<path class="ColorScheme-Highlight" d="M23 11.032a3.01 3.01 0 0 0-3.008-3.008h-5.929a4.74 4.74 0 0 1-2.922-1.012A4.74 4.74 0 0 0 8.218 6h-4.21A3.01 3.01 0 0 0 1 9.008V16.4C1 20.056 3.944 23 7.6 23h8.8a6.585 6.585 0 0 0 6.6-6.594z" style="fill:currentColor;opacity:.65"/>
 <path transform="translate(8, 11) scale(0.5)" fill="currentColor" opacity=".5" class="ColorScheme-Text" d="M 8.1191406 1.015625 C 7.7584589 0.9959521 7.37233 1.002175 6.9589844 1.0351562 C 0.42928438 1.5607562 2.1617531 8.4592313 2.0644531 10.769531 C 1.9782531 11.991631 1.57312 13.485559 1 15.005859 L 2.7636719 15.005859 C 2.9450419 14.361609 3.0791887 13.724688 3.1367188 13.117188 C 3.2431087 13.191388 3.3570356 13.261318 3.4785156 13.330078 C 3.6761856 13.446538 3.8455206 13.601705 4.0253906 13.765625 C 4.4457106 14.148685 4.9221456 14.584292 5.8535156 14.638672 C 5.9160156 14.642672 5.9794656 14.642578 6.0410156 14.642578 C 6.9829556 14.642578 7.6268313 14.229647 8.1445312 13.898438 C 8.3925413 13.739618 8.6069837 13.602959 8.8085938 13.537109 C 9.3815838 13.357739 9.8816594 13.067819 10.255859 12.699219 C 10.314359 12.641719 10.369092 12.583728 10.419922 12.523438 C 10.628362 13.287368 10.913719 14.146006 11.230469 15.003906 L 15 15.003906 C 14.09525 13.606306 13.162641 12.237534 13.181641 10.490234 L 13.179688 10.490234 C 13.215406 7.2514531 13.529366 1.3107185 8.1191406 1.015625 z M 8.453125 6.1308594 C 9.466825 6.1033594 10.311291 7.1389594 10.337891 8.4433594 C 10.349891 9.0332694 10.191375 9.5768469 9.921875 9.9980469 C 9.861775 9.9678469 9.799595 9.9391094 9.734375 9.9121094 C 9.432145 9.7828294 9.1893113 9.69503 8.9882812 9.625 C 9.0992713 9.40773 9.1694612 9.13797 9.1757812 8.84375 L 9.1757812 8.8417969 C 9.1911812 8.1257169 8.8299406 7.5440688 8.3691406 7.5429688 C 7.9082606 7.5419688 7.5212494 8.1219006 7.5058594 8.8378906 C 7.5053394 8.8612906 7.5055594 8.8850031 7.5058594 8.9082031 C 7.2220094 8.7776631 6.9431719 8.68343 6.6699219 8.625 C 6.6689219 8.5981 6.6660156 8.5700687 6.6660156 8.5429688 C 6.6395156 7.2384687 7.439285 6.1583594 8.453125 6.1308594 z M 3.9003906 6.4921875 C 4.6306406 6.4496875 5.2749437 7.3296313 5.3398438 8.4570312 C 5.3428437 8.5178312 5.3457031 8.5790919 5.3457031 8.6386719 C 5.1143231 8.6968719 4.90579 8.7806063 4.71875 8.8789062 C 4.71804 8.8709063 4.7177969 8.8619156 4.7167969 8.8535156 C 4.6542969 8.2135856 4.312415 7.7296375 3.953125 7.7734375 C 3.593825 7.8172375 3.3535556 8.3717688 3.4160156 9.0117188 C 3.4160156 9.0117188 3.4160156 9.0136719 3.4160156 9.0136719 C 3.4432156 9.2927119 3.5230056 9.5416287 3.6347656 9.7304688 C 3.6069656 9.7523688 3.52803 9.80881 3.4375 9.875 C 3.3696 9.9246 3.28722 9.9851537 3.1875 10.058594 C 2.91568 9.7018137 2.7285825 9.1897481 2.6953125 8.6113281 C 2.6304125 7.4839281 3.1701406 6.5345875 3.9003906 6.4921875 z M 6.0253906 9.3496094 C 6.5504406 9.3496094 7.131 9.5532719 7.75 9.9511719 C 8.04154 10.140882 8.2959475 10.226981 8.6171875 10.337891 C 8.8380675 10.414191 9.0885381 10.500951 9.4238281 10.644531 L 9.4277344 10.646484 C 9.7405144 10.775004 10.11062 11.010567 10.09375 11.398438 C 10.06775 11.994337 9.2885494 12.554297 8.5683594 12.779297 L 8.5644531 12.78125 C 8.2650631 12.87835 7.9994769 13.047636 7.7167969 13.228516 C 7.2419469 13.532306 6.7502556 13.847656 6.0410156 13.847656 C 5.9945156 13.847656 5.9472706 13.84675 5.9003906 13.84375 C 5.2507606 13.80575 4.9452469 13.528284 4.5605469 13.177734 C 4.3576269 12.992754 4.1494262 12.801248 3.8789062 12.642578 L 3.8730469 12.640625 C 3.2891769 12.311075 2.9255337 11.899969 2.9023438 11.542969 C 2.8908437 11.365509 2.9693087 11.213421 3.1367188 11.087891 C 3.5008888 10.814861 3.74484 10.635648 3.90625 10.517578 C 4.08549 10.386488 4.1395975 10.346714 4.1796875 10.308594 C 4.2082875 10.281394 4.2401375 10.25115 4.2734375 10.21875 C 4.6076575 9.89372 5.1669806 9.3496094 6.0253906 9.3496094 z M 3.7988281 10.996094 C 3.6988969 11.015346 3.6064869 11.071149 3.5449219 11.162109 C 3.4218219 11.343969 3.4684906 11.591744 3.6503906 11.714844 C 4.1247706 12.035944 4.9635437 12.274641 5.8398438 12.337891 C 5.9884037 12.348591 6.152465 12.355469 6.328125 12.355469 C 7.090765 12.355469 8.0594031 12.282751 9.0957031 11.800781 C 9.2947931 11.708081 9.3816725 11.472557 9.2890625 11.273438 C 9.1964625 11.074237 8.9589056 10.987598 8.7597656 11.080078 C 7.6394656 11.601268 6.5982375 11.595452 5.8984375 11.544922 C 5.0637375 11.484722 4.3927562 11.256331 4.0976562 11.056641 C 4.0067362 10.995091 3.8987594 10.976841 3.7988281 10.996094 z"/>
</svg>
