<svg width="24" height="24" fill="none" version="1.1" xmlns="http://www.w3.org/2000/svg">
<defs><style id="current-color-scheme" type="text/css">.ColorScheme-Highlight {color:#3584e4;}</style></defs>
<rect class="ColorScheme-Highlight" x="1.0201" y=".94865" width="22.013" height="22.048" rx="6.4695" ry="6.4695" style="fill:currentColor;opacity:.7;vector-effect:non-scaling-stroke"/>
<rect x="3" y="2" width="18" height="18" rx="4.4" fill="url(#b)" fill-opacity=".875" opacity=".125" style="fill-opacity:1;fill:#000000;opacity:.06"/>
<rect x="2.9362" y="2.9362" width="18.071" height="18.072" rx="4.1205" ry="4.1205" opacity="0.8" style="fill:#e6e6e6;vector-effect:non-scaling-stroke"/>
<path d="m1 8.2626c-0.056293-1.7083 1.5647-3.2161 3.2943-3.0368 1.4979 0.019558 2.9995-0.042974 4.4947 0.038983 2.0349 0.15394 3.2592 2.337 5.4127 2.072 2.0315 0.00992 4.0643-0.020192 6.095 0.015701 1.6547 0.13326 2.8782 1.7631 2.7033 3.3574-0.01887 2.0964 0.0401 4.1953-0.03405 6.2899-0.24582 3.0703-2.9158 5.769-6.057 5.9551-3.1588 0.04264-6.3197 0.01021-9.4793 0.01722-3.1473-0.021784-5.9533-2.5852-6.3526-5.6391-0.14767-1.6399-0.046179-3.2922-0.076487-4.9378-1.71e-4 -1.3775-3.42e-4 -2.755-5.13e-4 -4.1326z" fill="url(#c)" fill-opacity=".75" opacity=".25" style="fill-opacity:1;fill:#000000;opacity:.1"/>
<path class="ColorScheme-Highlight" d="M23 11.032a3.01 3.01 0 0 0-3.008-3.008h-5.929a4.74 4.74 0 0 1-2.922-1.012A4.74 4.74 0 0 0 8.218 6h-4.21A3.01 3.01 0 0 0 1 9.008V16.4C1 20.056 3.944 23 7.6 23h8.8a6.585 6.585 0 0 0 6.6-6.594z" style="fill:currentColor;opacity:.65"/>
 <path transform="translate(8, 11) scale(0.5)" fill="currentColor" opacity=".5" class="ColorScheme-Text" d="M 8.0000025,-1.0572069e-6 C 7.2788175,0.01003494 6.7648665,0.43177074 6.5234945,1.1319405 l 0.0078,-0.031334 -1.132771,3.9132593 -3.820173,0 c -0.0083,-1.301e-4 -0.01706,-1.301e-4 -0.02539,0 -0.45633,0.0144 -0.86826003,0.2203755 -1.15816103,0.5640123 -0.626968,0.7007156 -0.493432,1.8039654 0.302724,2.3265512 l 3.00379903,2.1385467 -1.165973,3.985296 c -0.0013,0.0039 -0.0027,0.0078 -0.0039,0.01175 -0.178148,0.569792 -0.01062,1.157308 0.437484,1.558867 0.0032,0.003 0.0084,0.0049 0.01172,0.0078 0.538485,0.466081 1.294158,0.524829 1.902274,0.139045 0.01157,-0.0073 0.024,-0.01366 0.03515,-0.02155 l 3.081922,-2.167881 3.0819175,2.167923 c 0.01115,0.0079 0.0236,0.01426 0.03516,0.02155 0.608116,0.385784 1.363788,0.327036 1.902273,-0.139045 0.0033,-0.0029 0.0085,-0.0048 0.01172,-0.0078 0.448108,-0.401569 0.615632,-0.989075 0.437484,-1.558867 -0.0012,-0.0039 -0.0026,-0.0078 -0.0039,-0.01175 L 12.298681,10.043018 15.302477,7.9044713 C 16.098632,7.3818856 16.232168,6.2786358 15.605201,5.5779202 15.3153,5.2342832 14.903368,5.0283094 14.44704,5.0139078 c -0.0083,-1.302e-4 -0.01709,-1.302e-4 -0.02539,0 l -3.820173,0 -1.1327702,-3.9132593 0.00781,0.031334 C 9.2351394,0.43177074 8.7211886,0.01003504 8.0000025,-1.0572069e-6 Z"/>
</svg>
