<svg width="48" height="48" version="1" xmlns="http://www.w3.org/2000/svg" xmlns:xlink="http://www.w3.org/1999/xlink">
 <defs>
  <linearGradient id="linearGradient21" x1="-26" x2="-20" y1="-26" y2="-26" gradientUnits="userSpaceOnUse">
   <stop style="stop-color:#e6fafa" offset="0"/>
   <stop style="stop-color:#dcf4fc" offset="1"/>
  </linearGradient>
 </defs>
 <rect x="10" y="5" width="32" height="40" rx="6" ry="6" style="opacity:.2"/>
 <rect x="6" y="12" width="4" height="26" rx="1" ry="1" style="opacity:.2"/>
 <rect x="10" y="4" width="32" height="40" rx="6" ry="6" style="fill:#5e5e5e"/>
 <circle transform="matrix(0,-1,-1,0,0,0)" cx="-10" cy="-37" r="2" style="opacity:.2"/>
 <circle transform="matrix(0,-1,-1,0,0,0)" cx="-9" cy="-37" r="2" style="fill:#76ff03"/>
 <circle transform="matrix(0,-1,-1,0,0,0)" cx="-23" cy="-26" r="8" style="opacity:.4"/>
 <circle transform="rotate(-90)" cx="-24" cy="26" r="6" style="opacity:.2"/>
 <circle transform="rotate(-90)" cx="-23" cy="26" r="6" style="fill:#c4c4c4"/>
 <circle transform="matrix(0,-1,-1,0,0,0)" cx="-24" cy="-26" r="3" style="opacity:.2"/>
 <circle transform="matrix(0,-1,-1,0,0,0)" cx="-23" cy="-26" r="3" style="fill:url(#linearGradient21)"/>
 <rect x="6" y="11" width="4" height="26" rx="1" ry="1" style="fill:#3f3f3f"/>
 <circle cx="14" cy="37" r="1" style="opacity:.5"/>
 <circle cx="18" cy="37" r="1" style="opacity:.5"/>
 <circle cx="22" cy="37" r="1" style="opacity:.5"/>
 <circle cx="26" cy="37" r="1" style="opacity:.5"/>
 <circle cx="16" cy="40" r="1" style="opacity:.5"/>
 <circle cx="20" cy="40" r="1" style="opacity:.5"/>
 <circle cx="24" cy="40" r="1" style="opacity:.5"/>
 <path d="m16 4c-3.324 0-6 2.676-6 6v1c0-3.324 2.676-6 6-6h20c3.324 0 6 2.676 6 6v-1c0-3.324-2.676-6-6-6h-20z" style="fill:#ffffff;opacity:.1"/>
 <path d="m37 7a2 2 0 0 0-2 2 2 2 0 0 0 0.064453 0.49609 2 2 0 0 1 1.9355-1.4961 2 2 0 0 1 1.9355 1.5039 2 2 0 0 0 0.064453-0.50391 2 2 0 0 0-2-2z" style="fill:#ffffff;opacity:.2"/>
 <path d="m26 17a6 6 0 0 0-6 6 6 6 0 0 0 0.025391 0.49805 6 6 0 0 1 5.9746-5.498 6 6 0 0 1 5.9746 5.502 6 6 0 0 0 0.025391-0.50195 6 6 0 0 0-6-6z" style="fill:#ffffff;opacity:.1"/>
 <path d="m26 20a3 3 0 0 0-3 3 3 3 0 0 0 0.042969 0.48633 3 3 0 0 1 2.957-2.4863 3 3 0 0 1 2.957 2.5137 3 3 0 0 0 0.042969-0.51367 3 3 0 0 0-3-3z" style="fill:#ffffff;opacity:.2"/>
 <path d="m7 11c-0.554 0-1 0.446-1 1v1c0-0.554 0.446-1 1-1h2c0.554 0 1 0.446 1 1v-1c0-0.554-0.446-1-1-1h-2z" style="fill:#ffffff;opacity:.1"/>
</svg>
