<svg width="48" height="48" version="1" xmlns="http://www.w3.org/2000/svg">
 <rect transform="matrix(0,-1,-1,0,0,0)" x="-45" y="-44" width="40" height="40" rx="2" ry="2" style="opacity:.2"/>
 <rect transform="matrix(0,-1,-1,0,0,0)" x="-44" y="-44" width="40" height="40" rx="2" ry="2" fill="#5e5e5e"/>
 <g opacity=".35" style="opacity:1">
  <rect x="5" y="32" width="18" height="10" rx="2" ry="2" style="fill:#dcf4fc;opacity:.23111"/>
  <rect x="25" y="32" width="18" height="10" rx="2" ry="2" style="fill:#dcf4fc;opacity:.23111"/>
  <rect x="37" y="10" width="6" height="1" style="fill:#dcf4fc"/>
  <rect x="37" y="13" width="6" height="1" style="fill:#dcf4fc"/>
  <rect x="37" y="16" width="6" height="1" style="fill:#dcf4fc"/>
  <rect x="37" y="19" width="6" height="1" style="fill:#dcf4fc"/>
  <rect x="37" y="22" width="6" height="1" style="fill:#dcf4fc"/>
  <rect x="37" y="25" width="6" height="1" style="fill:#dcf4fc"/>
 </g>
 <path d="m6 4c-1.108 0-2 0.892-2 2v1c0-1.108 0.892-2 2-2h36c1.108 0 2 0.892 2 2v-1c0-1.108-0.892-2-2-2h-36z" style="fill:#ffffff;opacity:.1"/>
</svg>
