<svg width="48" height="48" version="1" xmlns="http://www.w3.org/2000/svg">
 <g transform="matrix(.73754 0 0 1 6.2989 0)">
  <rect x="8" y="9" width="32" height="36" rx="2" ry="2" style="opacity:.2"/>
  <rect x="8" y="8" width="32" height="36" rx="2" ry="2" style="fill:#5e5e5e"/>
  <rect x="14" y="4" width="20" height="4" style="fill:#8e8e8e"/>
  <path d="m11 13v8h26v-8zm0 10v8h26v-8zm0 10v8h26v-8z" style="opacity:.2"/>
  <path d="m11 12v8h26v-8zm0 10v8h26v-8zm0 10v8h26v-8z" style="fill:#4f9a3c"/>
  <path d="m14 4v1h20v-1z" style="fill:#ffffff;opacity:.2"/>
  <path d="m11 12v1h26v-1zm0 10v1h26v-1zm0 10v1h26v-1z" style="fill:#ffffff;opacity:.2"/>
 </g>
</svg>
