<svg width="48" height="48" version="1" xmlns="http://www.w3.org/2000/svg" xmlns:xlink="http://www.w3.org/1999/xlink">
 <defs>
  <linearGradient id="linearGradient10" x1="18" x2="30" y1="22" y2="22" gradientUnits="userSpaceOnUse">
   <stop style="stop-color:#e6fafa" offset="0"/>
   <stop style="stop-color:#dcf4fc" offset="1"/>
  </linearGradient>
 </defs>
 <path d="m24 36s12 3 12 5v2c0 1.108-0.892 2-2 2h-20c-1.108 0-2-0.892-2-2v-2c0-2 12-5 12-5z" style="opacity:.2"/>
 <path d="m24 35s12 3 12 5v2c0 1.108-0.892 2-2 2h-20c-1.108 0-2-0.892-2-2v-2c0-2 12-5 12-5z" style="fill:#3f3f3f"/>
 <circle cx="24" cy="23" r="18" style="opacity:.2"/>
 <circle cx="24" cy="22" r="18" style="fill:#5e5e5e"/>
 <circle cx="24" cy="22" r="13" style="fill:#2f2f2f"/>
 <circle cx="24" cy="23" r="10" style="opacity:.2"/>
 <circle cx="24" cy="22" r="10" style="fill:#c2c2c2"/>
 <circle cx="24" cy="23" r="6" style="opacity:.2"/>
 <circle cx="24" cy="22" r="6" style="fill:url(#linearGradient10)"/>
 <path d="m24 16a6 6 0 0 0-6 6 6 6 0 0 0 0.035 0.5 6 6 0 0 1 5.965-5.5 6 6 0 0 1 5.971 5.412 6 6 0 0 0 0.029-0.412 6 6 0 0 0-6-6z" style="fill:#ffffff;opacity:.2"/>
 <path d="m24 4a18 18 0 0 0-18 18 18 18 0 0 0 0.0352 0.5 18 18 0 0 1 17.965-17.5 18 18 0 0 1 17.982 17.254 18 18 0 0 0 0.018-0.254 18 18 0 0 0-18-18z" style="fill:#ffffff;opacity:.1"/>
</svg>
