<svg width="48" height="48" version="1" xmlns="http://www.w3.org/2000/svg" xmlns:xlink="http://www.w3.org/1999/xlink">
 <defs>
  <linearGradient id="linearGradient11" x1="18" x2="30" y1="26" y2="26" gradientUnits="userSpaceOnUse">
   <stop style="stop-color:#e6fafa" offset="0"/>
   <stop style="stop-color:#dcf4fc" offset="1"/>
  </linearGradient>
 </defs>
 <path d="m17.05 8.0378-2.7105 2.9622h-6.3398c-2.2 0-4 1.8-4 4v24c0 2.2 1.8 4 4 4h32c2.2 0 4-1.8 4-4v-24c0-2.2-1.8-4-4-4h-6.3398l-2.7472-3.0023c-0.91294-0.99771-0.91294-0.99771-1.9129-0.99771h-10c-1 0-1 0-1.9496 1.0378z" style="opacity:.2"/>
 <path d="m17.05 7.0378-2.7105 2.9622h-6.3398c-2.2 0-4 1.8-4 4v24c0 2.2 1.8 4 4 4h32c2.2 0 4-1.8 4-4v-24c0-2.2-1.8-4-4-4h-6.3398l-2.7472-3.0023c-0.91294-0.99771-0.91294-0.99771-1.9129-0.99771h-10c-1 0-1 0-1.9496 1.0378z" style="fill:#5e5e5e"/>
 <path d="m17.05 7.0378-2.7105 2.9622h-6.3398c-2.2 0-4 1.8-4 4v2h40v-2c0-2.2-1.8-4-4-4h-6.3398l-2.7472-3.0023c-0.91294-0.99771-0.91294-0.99771-1.9129-0.99771h-10c-1 0-1 0-1.9496 1.0378z" style="opacity:.2"/>
 <circle transform="scale(1,-1)" cx="24" cy="-26" r="13" style="fill:#2f2f2f"/>
 <circle cx="40" cy="15" r="2" style="opacity:.1"/>
 <circle cx="40" cy="14" r="2" style="fill:#76ff03"/>
 <circle transform="scale(1,-1)" cx="24" cy="-27" r="10" style="opacity:.2"/>
 <circle transform="scale(1,-1)" cx="24" cy="-26" r="10" style="fill:#c4c4c4"/>
 <circle cx="24" cy="27" r="6" style="opacity:.2"/>
 <circle cx="24" cy="26" r="6" style="fill:url(#linearGradient11)"/>
 <path d="m19 6c-1 0-0.99959-6.93e-4 -1.9492 1.0371l-2.7109 2.9629h-6.3398c-2.2 0-4 1.8-4 4v1c0-2.2 1.8-4 4-4h6.3398l2.7109-2.9629c0.94963-1.0378 0.94922-1.0371 1.9492-1.0371h10c1 0 0.99916 3.355e-4 1.9121 0.99805l2.748 3.002h6.3398c2.2 0 4 1.8 4 4v-1c0-2.2-1.8-4-4-4h-6.3398l-2.748-3.002c-0.91294-0.99771-0.91211-0.99805-1.9121-0.99805z" style="fill:#ffffff;opacity:.1"/>
 <path d="m 24,20 a 6,6 0 0 0 -6,6 6,6 0 0 0 0.02148,0.494141 A 6,6 0 0 1 24,21 6,6 0 0 1 29.978516,26.505859 6,6 0 0 0 30,26 6,6 0 0 0 24,20 Z" style="fill:#ffffff;opacity:.2"/>
</svg>
