<svg width="24" height="24" fill="none" version="1.1" xmlns="http://www.w3.org/2000/svg">
<defs><style id="current-color-scheme" type="text/css">.ColorScheme-Highlight {color:#3584e4;}</style></defs>
<rect class="ColorScheme-Highlight" x="1.0201" y=".94865" width="22.013" height="22.048" rx="6.4695" ry="6.4695" style="fill:currentColor;opacity:.7;vector-effect:non-scaling-stroke"/>
<rect x="3" y="2" width="18" height="18" rx="4.4" fill="url(#b)" fill-opacity=".875" opacity=".125" style="fill-opacity:1;fill:#000000;opacity:.06"/>
<rect x="2.9362" y="2.9362" width="18.071" height="18.072" rx="4.1205" ry="4.1205" opacity="0.8" style="fill:#e6e6e6;vector-effect:non-scaling-stroke"/>
<path d="m1 8.2626c-0.056293-1.7083 1.5647-3.2161 3.2943-3.0368 1.4979 0.019558 2.9995-0.042974 4.4947 0.038983 2.0349 0.15394 3.2592 2.337 5.4127 2.072 2.0315 0.00992 4.0643-0.020192 6.095 0.015701 1.6547 0.13326 2.8782 1.7631 2.7033 3.3574-0.01887 2.0964 0.0401 4.1953-0.03405 6.2899-0.24582 3.0703-2.9158 5.769-6.057 5.9551-3.1588 0.04264-6.3197 0.01021-9.4793 0.01722-3.1473-0.021784-5.9533-2.5852-6.3526-5.6391-0.14767-1.6399-0.046179-3.2922-0.076487-4.9378-1.71e-4 -1.3775-3.42e-4 -2.755-5.13e-4 -4.1326z" fill="url(#c)" fill-opacity=".75" opacity=".25" style="fill-opacity:1;fill:#000000;opacity:.1"/>
<path class="ColorScheme-Highlight" d="M23 11.032a3.01 3.01 0 0 0-3.008-3.008h-5.929a4.74 4.74 0 0 1-2.922-1.012A4.74 4.74 0 0 0 8.218 6h-4.21A3.01 3.01 0 0 0 1 9.008V16.4C1 20.056 3.944 23 7.6 23h8.8a6.585 6.585 0 0 0 6.6-6.594z" style="fill:currentColor;opacity:.65"/>
 <path transform="translate(8, 11) scale(0.5)" fill="currentColor" opacity=".5" class="ColorScheme-Text" d="M 12.238 1.9922 C 11.997 1.9934 11.774 2.0722 11.564 2.2227 C 11.034 2.6037 9.9359 3.002 8.0059 3.002 C 6.0659 3.002 4.9655 2.6037 4.4355 2.2227 C 4.2255 2.0717 4.0252 2.002 3.7852 2.002 C 3.5452 2.002 3.2646 2.0717 2.9746 2.2227 C 1.9446 2.7737 0.98484 4.5559 0.46484 6.8809 C 0.024844 8.8649 -0.135 11.56 0.125 12.645 C 0.355 13.587 0.75486 14 1.4648 14 C 2.5048 13.98 3.8143 12.814 4.6543 11.24 C 5.2543 10.368 6.6559 9.9771 8.0059 10.018 C 9.3459 9.9671 10.746 10.368 11.346 11.24 C 12.186 12.814 13.495 13.98 14.545 14 C 15.245 14 15.645 13.587 15.875 12.645 C 16.135 11.56 15.975 8.8649 15.535 6.8809 C 15.015 4.5559 14.055 2.7737 13.025 2.2227 C 12.74 2.0672 12.48 1.9909 12.238 1.9922 z M 4 5 L 5 5 L 5 6 L 6 6 L 6 7 L 5 7 L 5 8 L 4 8 L 4 7 L 3 7 L 3 6 L 4 6 L 4 5 z M 11.5 5 A 0.5 0.5 0 0 1 12 5.5 A 0.5 0.5 0 0 1 11.5 6 A 0.5 0.5 0 0 1 11 5.5 A 0.5 0.5 0 0 1 11.5 5 z M 10.5 6 A 0.5 0.5 0 0 1 11 6.5 A 0.5 0.5 0 0 1 10.5 7 A 0.5 0.5 0 0 1 10 6.5 A 0.5 0.5 0 0 1 10.5 6 z M 12.5 6 A 0.5 0.5 0 0 1 13 6.5 A 0.5 0.5 0 0 1 12.5 7 A 0.5 0.5 0 0 1 12 6.5 A 0.5 0.5 0 0 1 12.5 6 z M 11.5 7 A 0.5 0.5 0 0 1 12 7.5 A 0.5 0.5 0 0 1 11.5 8 A 0.5 0.5 0 0 1 11 7.5 A 0.5 0.5 0 0 1 11.5 7 z"/>
</svg>
