<svg width="24" height="24" fill="none" version="1.1" xmlns="http://www.w3.org/2000/svg">
<defs><style id="current-color-scheme" type="text/css">.ColorScheme-Highlight {color:#3584e4;}</style></defs>
<rect class="ColorScheme-Highlight" x="1.0201" y=".94865" width="22.013" height="22.048" rx="6.4695" ry="6.4695" style="fill:currentColor;opacity:.7;vector-effect:non-scaling-stroke"/>
<rect x="3" y="2" width="18" height="18" rx="4.4" fill="url(#b)" fill-opacity=".875" opacity=".125" style="fill-opacity:1;fill:#000000;opacity:.06"/>
<rect x="2.9362" y="2.9362" width="18.071" height="18.072" rx="4.1205" ry="4.1205" opacity="0.8" style="fill:#e6e6e6;vector-effect:non-scaling-stroke"/>
<path d="m1 8.2626c-0.056293-1.7083 1.5647-3.2161 3.2943-3.0368 1.4979 0.019558 2.9995-0.042974 4.4947 0.038983 2.0349 0.15394 3.2592 2.337 5.4127 2.072 2.0315 0.00992 4.0643-0.020192 6.095 0.015701 1.6547 0.13326 2.8782 1.7631 2.7033 3.3574-0.01887 2.0964 0.0401 4.1953-0.03405 6.2899-0.24582 3.0703-2.9158 5.769-6.057 5.9551-3.1588 0.04264-6.3197 0.01021-9.4793 0.01722-3.1473-0.021784-5.9533-2.5852-6.3526-5.6391-0.14767-1.6399-0.046179-3.2922-0.076487-4.9378-1.71e-4 -1.3775-3.42e-4 -2.755-5.13e-4 -4.1326z" fill="url(#c)" fill-opacity=".75" opacity=".25" style="fill-opacity:1;fill:#000000;opacity:.1"/>
<path class="ColorScheme-Highlight" d="M23 11.032a3.01 3.01 0 0 0-3.008-3.008h-5.929a4.74 4.74 0 0 1-2.922-1.012A4.74 4.74 0 0 0 8.218 6h-4.21A3.01 3.01 0 0 0 1 9.008V16.4C1 20.056 3.944 23 7.6 23h8.8a6.585 6.585 0 0 0 6.6-6.594z" style="fill:currentColor;opacity:.65"/>
 <path transform="translate(8, 11) scale(0.5)" fill="currentColor" opacity=".5" class="ColorScheme-Text" d="M 9,3 A 3,3 0 0 0 6.0410156,5.5351562 2.5,2.5 0 0 0 4.5,5 2.5,2.5 0 0 0 2.0449219,7.0429688 2.5,2.5 0 0 0 0,9.5 2.5,2.5 0 0 0 2.5,12 2.5,2.5 0 0 0 3.1582031,11.908203 C 3.0645372,11.619448 3,11.318157 3,11 3,9.7367214 3.9017052,8.8490484 5.0175781,8.4101562 5.0685455,6.5321929 6.6105828,5 8.5,5 9.888328,5.0009908 10.905625,5.9465663 11.466797,7.1464844 11.585752,7.1238185 11.698168,7.078767 11.8125,7.0429688 A 3,3 0 0 0 12,6 3,3 0 0 0 9,3 Z M 8.5,6 C 7.1192881,6 6,7.1192881 6,8.5 6.0012426,8.6687345 6.0195652,8.8369097 6.0546875,9.0019531 6.0364681,9.0010527 6.0182372,9.0004016 6,9 4.8954305,9 4,9.8954305 4,11 c 0,1.104569 0.8954305,2 2,2 h 8.5 C 15.328427,13 16,12.328427 16,11.5 16,10.671573 15.328427,10 14.5,10 c -0.171876,8.57e-4 -0.342325,0.03125 -0.503906,0.08984 C 13.998069,10.059929 13.999372,10.029973 14,10 14,8.8954305 13.104569,8 12,8 11.64409,8.0007808 11.294836,8.0965223 10.988281,8.2773438 10.873057,6.9887428 9.793742,6.0009233 8.5,6 Z"/>
</svg>
