<svg width="24" height="24" fill="none" version="1.1" xmlns="http://www.w3.org/2000/svg">
<defs><style id="current-color-scheme" type="text/css">.ColorScheme-Highlight {color:#3584e4;}</style></defs>
<rect class="ColorScheme-Highlight" x="1.0201" y=".94865" width="22.013" height="22.048" rx="6.4695" ry="6.4695" style="fill:currentColor;opacity:.7;vector-effect:non-scaling-stroke"/>
<rect x="3" y="2" width="18" height="18" rx="4.4" fill="url(#b)" fill-opacity=".875" opacity=".125" style="fill-opacity:1;fill:#000000;opacity:.06"/>
<rect x="2.9362" y="2.9362" width="18.071" height="18.072" rx="4.1205" ry="4.1205" opacity="0.8" style="fill:#e6e6e6;vector-effect:non-scaling-stroke"/>
<path d="m1 8.2626c-0.056293-1.7083 1.5647-3.2161 3.2943-3.0368 1.4979 0.019558 2.9995-0.042974 4.4947 0.038983 2.0349 0.15394 3.2592 2.337 5.4127 2.072 2.0315 0.00992 4.0643-0.020192 6.095 0.015701 1.6547 0.13326 2.8782 1.7631 2.7033 3.3574-0.01887 2.0964 0.0401 4.1953-0.03405 6.2899-0.24582 3.0703-2.9158 5.769-6.057 5.9551-3.1588 0.04264-6.3197 0.01021-9.4793 0.01722-3.1473-0.021784-5.9533-2.5852-6.3526-5.6391-0.14767-1.6399-0.046179-3.2922-0.076487-4.9378-1.71e-4 -1.3775-3.42e-4 -2.755-5.13e-4 -4.1326z" fill="url(#c)" fill-opacity=".75" opacity=".25" style="fill-opacity:1;fill:#000000;opacity:.1"/>
<path class="ColorScheme-Highlight" d="M23 11.032a3.01 3.01 0 0 0-3.008-3.008h-5.929a4.74 4.74 0 0 1-2.922-1.012A4.74 4.74 0 0 0 8.218 6h-4.21A3.01 3.01 0 0 0 1 9.008V16.4C1 20.056 3.944 23 7.6 23h8.8a6.585 6.585 0 0 0 6.6-6.594z" style="fill:currentColor;opacity:.65"/>
 <path transform="translate(8, 11) scale(0.5)" fill="currentColor" opacity=".5" class="ColorScheme-Text" d="m4.408 3.9996394c-0.44417 0-0.88635 0.088935-1.2978 0.2627-0.4115 0.17376-0.7873 0.4296-1.1045 0.75295-0.3172 0.3234-0.5713 0.7102-0.7442 1.1355-0.1725 0.426-0.2615 0.885-0.2615 1.347 0 0.46216 0.08879 0.9210502 0.26172 1.3467002 0.17294 0.4256 0.42698 0.8124 0.74415 1.1358 0.31717 0.3233214 0.693 0.5791514 1.1045 0.7529514 0.4021 0.1698 0.8337 0.25774 1.2676 0.26172 0.01025 3.71e-4 0.02008 6e-4 0.03027 1e-3 1.055 0.04997 1.9052-0.36871 2.5274-0.97655 0.42532-0.4155214 0.7595-0.9062014 1.0644-1.4062014 0.30496 0.50005 0.6391 0.99075 1.0644 1.4062014 0.6222 0.60785 1.4723 1.0265 2.5274 0.97655 0.0102-3.71e-4 0.02003-4.9e-4 0.03028-1e-3 0.43388-0.0037 0.8645-0.09192 1.2666-0.26172 0.4115-0.17376 0.7883-0.4296 1.1054-0.7529514l2e-3 -0.0039c0.31586-0.32274 0.56975-0.7075 0.7422-1.1318 0.1725-0.4255 0.2615-0.8845002 0.2615-1.3465002 0-0.46216-0.0888-0.9211-0.26172-1.3467l-0.0029-0.0059c-0.173-0.423-0.426-0.808-0.7415-1.13-0.317-0.323-0.693-0.579-1.1045-0.753-0.4115-0.1735-0.8535-0.2625-1.2975-0.2625-1.1116 0-1.9894 0.45712-2.6377 1.0928-0.375 0.367-0.679 0.787-0.9545 1.2165-0.2755-0.4295-0.5795-0.8495-0.954-1.2165-0.6485-0.636-1.5265-1.093-2.638-1.093zm-0.01172 1c0.88675 0 1.4532 0.31778 1.9726 0.84375 0.41181 0.41692 0.7729 0.9841 1.1308 1.6026-0.40852 0.7225502-0.80335 1.3825002-1.247 1.8301002-0.48913 0.49341-0.996 0.7655014-1.8242 0.71775h-0.03222c-0.31584 0-0.63425-0.06666-0.9248-0.19336-0.28667-0.125-0.5512-0.31072-0.76955-0.5381l-0.0088-0.0088c-0.22-0.231-0.397-0.51-0.515-0.809-0.1175-0.2995-0.1785-0.6255002-0.1785-0.9475002 0-0.32214 0.06099-0.64815 0.17871-0.94725 0.1177-0.29914 0.29461-0.577 0.51465-0.8086l0.0088-0.0098c0.21833-0.22736 0.48286-0.41309 0.76955-0.5381 0.2905-0.1265 0.6085-0.193 0.9245-0.193zm7.207 0c0.31585 0 0.63425 0.06666 0.9248 0.19336 0.28666 0.125 0.5512 0.31072 0.76955 0.5381l0.0088 0.0098c0.22004 0.23162 0.39694 0.50945 0.51465 0.8086 0.1175 0.299 0.1785 0.625 0.1785 0.947 0 0.32216-0.06099 0.6481002-0.17871 0.9472502-0.1177 0.29914-0.2946 0.57795-0.51465 0.80955l-0.0088 0.0088c-0.21833 0.22736-0.48286 0.41308-0.76955 0.5381-0.29057 0.1267-0.60895 0.19336-0.9248 0.19336h-0.03223c-0.828 0.0475-1.335-0.2245-1.824-0.718-0.4435-0.4475-0.8385-1.1075-1.247-1.8300002 0.358-0.6185 0.719-1.186 1.131-1.6025 0.5195-0.526 1.086-0.844 1.9725-0.844zm-0.6035 1v1h-1v1h1v1h1v-1h1v-1h-1v-1zm-8 1v1h3v-1z"/>
</svg>
