<svg width="24" height="24" fill="none" version="1.1" xmlns="http://www.w3.org/2000/svg">
<defs><style id="current-color-scheme" type="text/css">.ColorScheme-Highlight {color:#3584e4;}</style></defs>
<rect class="ColorScheme-Highlight" x="1.0201" y=".94865" width="22.013" height="22.048" rx="6.4695" ry="6.4695" style="fill:currentColor;opacity:.7;vector-effect:non-scaling-stroke"/>
<rect x="3" y="2" width="18" height="18" rx="4.4" fill="url(#b)" fill-opacity=".875" opacity=".125" style="fill-opacity:1;fill:#000000;opacity:.06"/>
<rect x="2.9362" y="2.9362" width="18.071" height="18.072" rx="4.1205" ry="4.1205" opacity="0.8" style="fill:#e6e6e6;vector-effect:non-scaling-stroke"/>
<path d="m1 8.2626c-0.056293-1.7083 1.5647-3.2161 3.2943-3.0368 1.4979 0.019558 2.9995-0.042974 4.4947 0.038983 2.0349 0.15394 3.2592 2.337 5.4127 2.072 2.0315 0.00992 4.0643-0.020192 6.095 0.015701 1.6547 0.13326 2.8782 1.7631 2.7033 3.3574-0.01887 2.0964 0.0401 4.1953-0.03405 6.2899-0.24582 3.0703-2.9158 5.769-6.057 5.9551-3.1588 0.04264-6.3197 0.01021-9.4793 0.01722-3.1473-0.021784-5.9533-2.5852-6.3526-5.6391-0.14767-1.6399-0.046179-3.2922-0.076487-4.9378-1.71e-4 -1.3775-3.42e-4 -2.755-5.13e-4 -4.1326z" fill="url(#c)" fill-opacity=".75" opacity=".25" style="fill-opacity:1;fill:#000000;opacity:.1"/>
<path class="ColorScheme-Highlight" d="M23 11.032a3.01 3.01 0 0 0-3.008-3.008h-5.929a4.74 4.74 0 0 1-2.922-1.012A4.74 4.74 0 0 0 8.218 6h-4.21A3.01 3.01 0 0 0 1 9.008V16.4C1 20.056 3.944 23 7.6 23h8.8a6.585 6.585 0 0 0 6.6-6.594z" style="fill:currentColor;opacity:.65"/>
 <path transform="translate(8, 11) scale(0.5)" fill="currentColor" opacity=".5" class="ColorScheme-Text" d="M 1.793,2.9902 C 1.112,2.9901 0.7422,3.7865 1.1816,4.3066 L 2.6172,6.0625 C 1.168,7.3652 0,9.1838 0,11.23 0,12 0.77734,12 0.77734,12 H 15.203 C 15.203,12 16,12 16,11.191 16,9.1604 14.826,7.3552 13.385,6.0605 L 14.818,4.3066 C 15.262,3.7781 14.874,2.973 14.184,2.9922 13.948,2.9986 13.727,3.1087 13.58,3.293 L 12.088,5.1191 C 10.89,4.4124 9.4939,4 8,4 6.5054,4 5.1108,4.4118 3.9121,5.1191 L 2.4199,3.293 C 2.2681,3.1017 2.0372,2.9902 1.793,2.9902 Z M 4,8 C 4.5523,8 5,8.4477 5,9 5,9.5523 4.5523,10 4,10 3.4477,10 3,9.5523 3,9 3,8.4477 3.4477,8 4,8 Z M 12,8 C 12.552,8 13,8.4477 13,9 13,9.5523 12.552,10 12,10 11.448,10 11,9.5523 11,9 11,8.4477 11.448,8 12,8 Z"/>
</svg>
