<svg width="24" height="24" fill="none" version="1.1" xmlns="http://www.w3.org/2000/svg">
<defs><style id="current-color-scheme" type="text/css">.ColorScheme-Highlight {color:#3584e4;}</style></defs>
<rect class="ColorScheme-Highlight" x="1.0201" y=".94865" width="22.013" height="22.048" rx="6.4695" ry="6.4695" style="fill:currentColor;opacity:.7;vector-effect:non-scaling-stroke"/>
<rect x="3" y="2" width="18" height="18" rx="4.4" fill="url(#b)" fill-opacity=".875" opacity=".125" style="fill-opacity:1;fill:#000000;opacity:.06"/>
<rect x="2.9362" y="2.9362" width="18.071" height="18.072" rx="4.1205" ry="4.1205" opacity="0.8" style="fill:#e6e6e6;vector-effect:non-scaling-stroke"/>
<path d="m1 8.2626c-0.056293-1.7083 1.5647-3.2161 3.2943-3.0368 1.4979 0.019558 2.9995-0.042974 4.4947 0.038983 2.0349 0.15394 3.2592 2.337 5.4127 2.072 2.0315 0.00992 4.0643-0.020192 6.095 0.015701 1.6547 0.13326 2.8782 1.7631 2.7033 3.3574-0.01887 2.0964 0.0401 4.1953-0.03405 6.2899-0.24582 3.0703-2.9158 5.769-6.057 5.9551-3.1588 0.04264-6.3197 0.01021-9.4793 0.01722-3.1473-0.021784-5.9533-2.5852-6.3526-5.6391-0.14767-1.6399-0.046179-3.2922-0.076487-4.9378-1.71e-4 -1.3775-3.42e-4 -2.755-5.13e-4 -4.1326z" fill="url(#c)" fill-opacity=".75" opacity=".25" style="fill-opacity:1;fill:#000000;opacity:.1"/>
<path class="ColorScheme-Highlight" d="M23 11.032a3.01 3.01 0 0 0-3.008-3.008h-5.929a4.74 4.74 0 0 1-2.922-1.012A4.74 4.74 0 0 0 8.218 6h-4.21A3.01 3.01 0 0 0 1 9.008V16.4C1 20.056 3.944 23 7.6 23h8.8a6.585 6.585 0 0 0 6.6-6.594z" style="fill:currentColor;opacity:.65"/>
 <path transform="translate(8, 11) scale(0.5)" fill="currentColor" opacity=".5" class="ColorScheme-Text" d="M 12.779,1 C 9.8188,1 9.2618,5 10.929,5 12.593,5 15.741,1 12.779,1 Z M 8.2298,2 C 8.1828,2 8.1308,2.005 8.0788,2.01 6.3838,2.214 6.9788,4.949 7.8818,5 8.7548,5.05 9.7108,2.008 8.2308,2 Z M 5.1398,3 C 5.0188,2.995 4.8838,3.011 4.7348,3.049 3.1488,3.45 4.4938,5.106 5.3818,4.994 6.1878,4.893 6.3048,3.047 5.1398,3 Z M 2.9288,5 C 2.7868,4.998 2.6328,5.029 2.4698,5.105 1.1658,5.721 2.9098,7.207 3.6768,6.977 4.3478,6.775 3.9198,5.023 2.9288,5 Z M 9.0108,6 C 6.6768,5.963 3.5988,7.065 3.0728,9.279 2.5048,11.676 5.4158,15 8.4498,15 9.9428,15 11.665,14.329 11.987,12.721 12.232,11.495 8.8958,12.023 9.0088,12.834 9.1438,13.807 8.4458,13.652 7.5708,13.025 5.0008,11 12.181,10.034 11.694,7.307 11.543,6.458 10.411,6.024 9.0108,6.002 Z"/>
</svg>
