<svg width="24" height="24" fill="none" version="1.1" xmlns="http://www.w3.org/2000/svg">
<defs><style id="current-color-scheme" type="text/css">.ColorScheme-Highlight {color:#3584e4;}</style></defs>
<rect class="ColorScheme-Highlight" x="1.0201" y=".94865" width="22.013" height="22.048" rx="6.4695" ry="6.4695" style="fill:currentColor;opacity:.7;vector-effect:non-scaling-stroke"/>
<rect x="3" y="2" width="18" height="18" rx="4.4" fill="url(#b)" fill-opacity=".875" opacity=".125" style="fill-opacity:1;fill:#000000;opacity:.06"/>
<rect x="2.9362" y="2.9362" width="18.071" height="18.072" rx="4.1205" ry="4.1205" opacity="0.8" style="fill:#e6e6e6;vector-effect:non-scaling-stroke"/>
<path d="m1 8.2626c-0.056293-1.7083 1.5647-3.2161 3.2943-3.0368 1.4979 0.019558 2.9995-0.042974 4.4947 0.038983 2.0349 0.15394 3.2592 2.337 5.4127 2.072 2.0315 0.00992 4.0643-0.020192 6.095 0.015701 1.6547 0.13326 2.8782 1.7631 2.7033 3.3574-0.01887 2.0964 0.0401 4.1953-0.03405 6.2899-0.24582 3.0703-2.9158 5.769-6.057 5.9551-3.1588 0.04264-6.3197 0.01021-9.4793 0.01722-3.1473-0.021784-5.9533-2.5852-6.3526-5.6391-0.14767-1.6399-0.046179-3.2922-0.076487-4.9378-1.71e-4 -1.3775-3.42e-4 -2.755-5.13e-4 -4.1326z" fill="url(#c)" fill-opacity=".75" opacity=".25" style="fill-opacity:1;fill:#000000;opacity:.1"/>
<path class="ColorScheme-Highlight" d="M23 11.032a3.01 3.01 0 0 0-3.008-3.008h-5.929a4.74 4.74 0 0 1-2.922-1.012A4.74 4.74 0 0 0 8.218 6h-4.21A3.01 3.01 0 0 0 1 9.008V16.4C1 20.056 3.944 23 7.6 23h8.8a6.585 6.585 0 0 0 6.6-6.594z" style="fill:currentColor;opacity:.65"/>
 <path transform="translate(8, 11) scale(0.5)" fill="currentColor" opacity=".5" d="M 3.3379,7.2969 2.0938,10.617 C 1.9165,11.015 1.9953,11.479 2.3008,11.793 L 4.2266,14.189 C 5.233,11.925 5.1344,10.341 4.6738,9.2285 V 9.2266 9.2246 C 4.3158,8.3461 3.8384,7.7305 3.3379,7.2969 Z M 7.4707,0.27757 4.3848,3.1643 C 4.2031,3.3279 4.0784,3.5537 4.043,3.7971 L 3.6641,6.2775 C 4.4024,6.8217 5.1106,7.6515 5.5977,8.8459 V 8.8479 C 5.6528,8.9812 5.7011,9.1208 5.7461,9.2639 6.3321,9.1221 6.9355,9.0252 7.5371,9.0041 7.115,7.7623 6.9692,6.7558 7.0059,5.9104 7.0496,4.9036 7.3521,4.1274 7.6621,3.4943 L 7.8945,3.0412 C 8.1204,2.6074 8.3098,2.2358 8.4062,1.8576 8.5121,1.442 8.4811,1.1121 8.3398,0.50414 L 8.2227,2.3396e-4 C 8.0006,0.01622 7.7149,0.04916 7.4707,0.27757 Z M 9.4531,0.94945 C 9.4998,1.3675 9.4663,1.7455 9.375,2.1037 9.2413,2.6271 9.0066,3.0694 8.7812,3.5022 L 8.5586,3.9397 C 8.2759,4.5175 8.0401,5.1216 8.0039,5.9533 7.9707,6.7218 8.1433,7.7353 8.6367,9.0607 8.9969,9.1116 9.3524,9.1949 9.6973,9.3225 H 9.6992 C 10.841,9.7513 11.866,10.697 12.686,12.34 13.064,11.747 13.744,10.679 13.93,10.365 14.041,10.179 14.017,9.9402 13.889,9.7678 13.544,9.3121 12.82,8.3247 12.457,7.4709 12.094,6.5907 12.037,5.2242 12.033,4.5607 12.033,4.3041 11.955,4.0606 11.795,3.8615 Z M 7.7383,10.004 C 7.181,10.008 6.5997,10.093 6.0215,10.23 6.0007,10.238 5.9797,10.248 5.957,10.26 6.1041,11.522 5.8651,13.075 4.9863,14.926 5.0903,14.971 5.2032,14.998 5.3184,15.006 5.3184,15.006 6.0782,15.067 6.9902,15.133 7.9023,15.2 9.3116,15.708 10.225,15.96 10.933,16.159 11.649,15.583 11.746,14.859 11.808,14.4 11.918,13.884 12.109,13.391 11.998,13.184 11.9,13.01 11.9,13.01 11.136,11.372 10.276,10.608 9.3496,10.26 8.8554,10.077 8.3088,10 7.7383,10.004 Z"/>
</svg>
