<svg width="24" height="24" fill="none" version="1.1" xmlns="http://www.w3.org/2000/svg">
<defs><style id="current-color-scheme" type="text/css">.ColorScheme-Highlight {color:#3584e4;}</style></defs>
<rect class="ColorScheme-Highlight" x="1.0201" y=".94865" width="22.013" height="22.048" rx="6.4695" ry="6.4695" style="fill:currentColor;opacity:.7;vector-effect:non-scaling-stroke"/>
<rect x="3" y="2" width="18" height="18" rx="4.4" fill="url(#b)" fill-opacity=".875" opacity=".125" style="fill-opacity:1;fill:#000000;opacity:.06"/>
<rect x="2.9362" y="2.9362" width="18.071" height="18.072" rx="4.1205" ry="4.1205" opacity="0.8" style="fill:#e6e6e6;vector-effect:non-scaling-stroke"/>
<path d="m1 8.2626c-0.056293-1.7083 1.5647-3.2161 3.2943-3.0368 1.4979 0.019558 2.9995-0.042974 4.4947 0.038983 2.0349 0.15394 3.2592 2.337 5.4127 2.072 2.0315 0.00992 4.0643-0.020192 6.095 0.015701 1.6547 0.13326 2.8782 1.7631 2.7033 3.3574-0.01887 2.0964 0.0401 4.1953-0.03405 6.2899-0.24582 3.0703-2.9158 5.769-6.057 5.9551-3.1588 0.04264-6.3197 0.01021-9.4793 0.01722-3.1473-0.021784-5.9533-2.5852-6.3526-5.6391-0.14767-1.6399-0.046179-3.2922-0.076487-4.9378-1.71e-4 -1.3775-3.42e-4 -2.755-5.13e-4 -4.1326z" fill="url(#c)" fill-opacity=".75" opacity=".25" style="fill-opacity:1;fill:#000000;opacity:.1"/>
<path class="ColorScheme-Highlight" d="M23 11.032a3.01 3.01 0 0 0-3.008-3.008h-5.929a4.74 4.74 0 0 1-2.922-1.012A4.74 4.74 0 0 0 8.218 6h-4.21A3.01 3.01 0 0 0 1 9.008V16.4C1 20.056 3.944 23 7.6 23h8.8a6.585 6.585 0 0 0 6.6-6.594z" style="fill:currentColor;opacity:.65"/>
 <path transform="translate(8, 11) scale(0.5)" fill="currentColor" opacity=".5" class="ColorScheme-Text" d="m 7.0919985,2.0465708 c -3.5555563,0 -2.7283812,3.2481694 -4.5488281,4.226563 -0.062744,0.0356 -0.098024,0.06839 -0.1542969,0.103515 1.2005478,-0.714589 2.6803078,-1.3120668 4.251953,-1.7167968 1.330908,-0.342378 2.68084,-0.5344587 3.9257815,-0.5585937 0.03199,-1.14e-4 0.0639,-1.14e-4 0.0957,0 C 9.4617305,3.7600926 9.3304495,2.0465708 7.0919985,2.0465708 Z M 10.966999,5.0016489 C 9.7220575,5.0257889 8.3721255,5.2178637 7.0412175,5.5602427 2.6547436,6.6890038 -0.47142449,9.1435916 0.05879541,11.042664 c 0.3055213,1.085204 1.77756929,1.801316 3.97070309,1.931641 -10e-4,-0.0082 -0.00301,-0.01523 -0.00391,-0.02344 -0.118387,-1.026757 0.533079,-1.919941 1.296875,-2.525392 0.7637961,-0.6054524 1.746269,-1.0450844 2.849609,-1.2792964 1.10334,-0.234211 2.1364155,-0.222891 3.0000005,0.03711 0.811893,0.244438 1.575746,0.777804 1.763672,1.6933584 C 15.13382,9.6443116 16.273908,8.1584776 15.943557,6.9567238 15.593603,5.69853 13.685003,4.9487239 10.966999,5.0016489 Z M 9.6623105,9.9996956 A 1.8585774,3.5769585 76.001371 0 0 8.2853575,10.142273 1.8585774,3.5769585 76.001371 0 0 5.006061,12.741884 1.8585774,3.5769585 76.001371 0 0 8.7150455,13.857118 1.8585774,3.5769585 76.001371 0 0 11.99239,11.257507 1.8585774,3.5769585 76.001371 0 0 9.6623105,9.9996956 Z"/>
</svg>
