<svg width="22" height="22" version="1.1" xmlns="http://www.w3.org/2000/svg" xmlns:xlink="http://www.w3.org/1999/xlink">
 <defs>
  <style id="current-color-scheme" type="text/css">.ColorScheme-Text{color:#fcfcfc; fill:currentColor;}</style>
 </defs>
 <g fill="currentColor">
  <path class="ColorScheme-Text" d="M1 2h20v15H1z" style="fill:currentColor"/>
  <path class="ColorScheme-Text" d="M9 17h4v2H9z" style="fill:currentColor"/>
  <path class="ColorScheme-Text" d="M7 19h8v1H7z" style="fill:currentColor"/>
  <path class="ColorScheme-Text" d="m2 14 3 3h16V4l-1-1z" fill-rule="evenodd" opacity=".2" style="fill:currentColor"/>
  <path class="ColorScheme-Text" d="M2 3h18v11H2z" style="fill:currentColor"/>
  <path class="ColorScheme-Text" d="m7 5 1 1h7l2 2 2-2-2-2z" opacity=".2" style="fill:currentColor"/>
  <path class="ColorScheme-Text" d="m7 7 1 1h5l2 2 2-2-2-2z" opacity=".2" style="fill:currentColor"/>
  <path class="ColorScheme-Text" d="m15 10-8 1 3 3h9z" opacity=".2" style="fill:currentColor"/>
  <path class="ColorScheme-Text" d="m7 9 1 1h7l-2-2z" opacity=".2" style="fill:currentColor"/>
  <path class="ColorScheme-Text" d="m6.999 4h10v1h-10zm0 6h8v1h-8zm0-4h8v1h-8zm0 2h6v1h-6z" style="fill:currentColor"/>
  <path class="ColorScheme-Text" d="m3 5 1 1h2l1 1 1-1-2-2z" opacity=".2" style="fill:currentColor"/>
  <path class="ColorScheme-Text" d="m3 7 1 1h2l1 1 1-1-2-2z" opacity=".2" style="fill:currentColor"/>
  <path class="ColorScheme-Text" d="m3 9 1 1h2l1 1 1-1-2-2z" opacity=".2" style="fill:currentColor"/>
  <path class="ColorScheme-Text" d="m6 10-3 1 3 3h4z" opacity=".2" style="fill:currentColor"/>
  <path class="ColorScheme-Text" d="M3 4h3v1H3zm0 2h3v1H3zm0 2h3v1H3zm0 2h3v1H3z" style="fill:currentColor"/>
 </g>
</svg>
