<svg version="1.1" viewBox="0 0 22 22" xmlns="http://www.w3.org/2000/svg">
 <defs>
  <style id="current-color-scheme" type="text/css">.ColorScheme-Text{color:#fcfcfc; fill:currentColor;}</style>
 </defs>
 <path class="ColorScheme-Text" d="m10.5 1.998v1.0176c-1.0628 0.067013-2.1029 0.34664-3.0566 0.82031l-0.50977-0.88086-0.86719 0.50195 0.50977 0.88086c-0.88841 0.58908-1.6499 1.3487-2.2402 2.2363l-0.87891-0.50781-0.50195 0.86523 0.88086 0.50781c-0.47414 0.95461-0.75362 1.9948-0.82031 3.0586h-1.0156v1.002h1.0156c0.066448 1.0641 0.34614 2.1036 0.82031 3.0586l-0.88086 0.50781 0.50195 0.86719 0.87891-0.50781c0.58951 0.88827 1.3503 1.6483 2.2383 2.2383l-0.50781 0.88086 0.86719 0.5 0.50781-0.88086c0.95488 0.47435 1.9945 0.75367 3.0586 0.82031v1.0156l1 2e-3 2e-3 -1.0176c1.0632-0.06707 2.1026-0.34624 3.0566-0.82031l0.50781 0.88086 0.86719-0.50195-0.50977-0.87891c0.88859-0.58934 1.65-1.3503 2.2402-2.2383l0.87891 0.50586 0.50195-0.86524-0.88086-0.50781c0.47435-0.95488 0.75367-1.9945 0.82031-3.0586h1.0156v-1h-1.0156c-0.06634-1.0632-0.34499-2.1043-0.81836-3.0586l0.88086-0.50781-0.50195-0.86719-0.88086 0.50977c-0.58934-0.88859-1.3503-1.65-2.2383-2.2402l0.50781-0.87891-0.86524-0.50195-0.50976 0.88086c-0.95503-0.47405-1.9944-0.754-3.0586-0.82031l2e-3 -1.0156-1.002-0.00195zm0.5 1.8457a7.1563 7.1563 0 0 1 7.1562 7.1562 7.1563 7.1563 0 0 1-7.1562 7.1562 7.1563 7.1563 0 0 1-7.1562-7.1562 7.1563 7.1563 0 0 1 7.1562-7.1562z" fill="currentColor" style="fill:currentColor"/>
 <path class="ColorScheme-Text" d="m9.6881 7.9572a0.59133 0.59133 0 0 0-0.38284 0.20056 0.59133 0.59133 0 0 0-0.15423 0.40539v4.8739a0.59133 0.59133 0 0 0 0.15423 0.40478 0.59133 0.59133 0 0 0 0.38284 0.20117 0.59133 0.59133 0 0 0 0.42063-0.10242l3.5352-2.4366a0.60961 0.60961 0 0 0 0.23409-0.3109 0.60961 0.60961 0 0 0-0.23226-0.69496l-3.5376-2.4385a0.58523 0.58523 0 0 0-0.42002-0.10242" fill="currentColor" style="fill:currentColor;stroke-width:.60961"/>
</svg>
