<svg version="1.1" viewBox="0 0 22 22" xmlns="http://www.w3.org/2000/svg" xmlns:xlink="http://www.w3.org/1999/xlink">
 <defs>
  <style id="current-color-scheme" type="text/css">.ColorScheme-Text{color:#fcfcfc; fill:currentColor;}</style>
  <linearGradient id="e" x1="5.875" x2="3.875" y1="31.125" y2="4.125" gradientTransform="matrix(-1 0 0 1 471.88 367.88)" gradientUnits="userSpaceOnUse">
   <stop class="ColorScheme-Text" stop-color="currentColor" style="fill:currentColor" offset="0"/>
   <stop class="ColorScheme-Text" stop-color="currentColor" stop-opacity="0" style="fill:currentColor" offset="1"/>
  </linearGradient>
  <linearGradient id="d" x1="12" x2="23" y1="6" y2="10" gradientTransform="translate(448 368)" gradientUnits="userSpaceOnUse">
   <stop class="ColorScheme-Text" stop-color="currentColor" style="fill:currentColor" offset="0"/>
   <stop class="ColorScheme-Text" stop-color="currentColor" stop-opacity="0" style="fill:currentColor" offset="1"/>
  </linearGradient>
 </defs>
 <path transform="translate(-448 -368)" d="m460 372c-4.406 0-8 3.594-8 8s3.594 8 8 8v-2c-3.326 0-6-2.674-6-6s2.674-6 6-6a1 1 0 0 0 0-2" fill="url(#d)" overflow="visible" style="block-progression:tb;opacity:.8;text-indent:0;text-transform:none"/>
 <path transform="translate(-448 -368)" d="m460 372c4.406 0 8 3.594 8 8s-3.594 8-8 8v-2c3.326 0 6-2.674 6-6s-2.674-6-6-6z" fill="url(#e)" overflow="visible" style="block-progression:tb;text-indent:0;text-transform:none"/>
</svg>
