<svg xmlns="http://www.w3.org/2000/svg" width="22" height="22">
<defs>
<style id="current-color-scheme" type="text/css">
.ColorScheme-Text{color:#fcfcfc}
</style>
</defs>
<path fill="currentColor" d="M6.5 18h9a.5.5 0 1 1 0 1h-9a.5.5 0 1 1 0-1M4 4c-1.108 0-2 .892-2 2v9c0 1.108.892 2 2 2h14c1.108 0 2-.892 2-2V6c0-1.108-.892-2-2-2zm0 1h14c.554 0 1 .446 1 1v9c0 .554-.446 1-1 1H4c-.554 0-1-.446-1-1V6c0-.554.446-1 1-1" class="ColorScheme-Text"/>
 <path class="ColorScheme-Text" d="m7.747 11.796-0.31047 0.52921-1.2207-0.70562q-0.12701-0.07761-0.2258-0.15523-0.098785-0.07761-0.17641-0.19758 0.1129 0.23285 0.1129 0.5151v1.397h-0.62094v-1.3901q0-0.14112 0.014112-0.26108 0.021169-0.11995 0.077618-0.23285-0.077618 0.09878-0.16935 0.17641-0.091731 0.07761-0.21169 0.14817l-1.2137 0.69857-0.31047-0.52921 1.2137-0.70562q0.26813-0.1623 0.53627-0.16935-0.14112-0.01411-0.27519-0.04939-0.12701-0.04233-0.26108-0.12701l-1.2207-0.71268 0.31047-0.52921 1.2207 0.70562q0.12701 0.07762 0.2258 0.1623 0.098784 0.08468 0.17641 0.20463-0.1129-0.24697-0.1129-0.52921v-1.397h0.62094v1.3901q0 0.14112-0.021169 0.26813-0.014112 0.11995-0.070562 0.23285 0.077618-0.09878 0.16935-0.17641 0.091731-0.07762 0.21169-0.15523l1.2137-0.69857 0.31047 0.52921-1.2137 0.70562q-0.11995 0.07763-0.23991 0.11995-0.11995 0.04235-0.25402 0.05646 0.13406 0.01411 0.25402 0.05646 0.11995 0.03528 0.23991 0.1129z" style="fill:currentColor;stroke-width:1.3633"/>
 <path class="ColorScheme-Text" d="m13.138 11.733-0.31047 0.52921-1.2207-0.70562q-0.12701-0.07761-0.2258-0.15523-0.09878-0.07762-0.17641-0.19758 0.1129 0.23285 0.1129 0.5151v1.397h-0.62094v-1.3901q0-0.14112 0.01411-0.26108 0.02117-0.11995 0.07762-0.23285-0.07762 0.09878-0.16935 0.17641-0.09173 0.07761-0.21169 0.14817l-1.2137 0.69857-0.31047-0.52921 1.2137-0.70562q0.26813-0.1623 0.53627-0.16935-0.14112-0.01411-0.27519-0.04939-0.12701-0.04233-0.26108-0.12701l-1.2207-0.71268 0.31047-0.52922 1.2207 0.70562q0.12701 0.07761 0.2258 0.1623 0.09878 0.08468 0.17641 0.20463-0.1129-0.24697-0.1129-0.52921v-1.397h0.62094v1.3901q0 0.14112-0.02117 0.26813-0.01411 0.11995-0.07057 0.23285 0.07761-0.09878 0.16935-0.17641 0.09173-0.07763 0.21169-0.15523l1.2137-0.69857 0.31047 0.52922-1.2137 0.70562q-0.11995 0.07763-0.23991 0.11995-0.11995 0.04234-0.25402 0.05646 0.13406 0.01411 0.25402 0.05646 0.11995 0.03528 0.23991 0.1129z" style="fill:currentColor;stroke-width:1.3633"/>
 <path class="ColorScheme-Text" d="m18.464 11.733-0.31047 0.52921-1.2207-0.70562q-0.12701-0.07761-0.2258-0.15523-0.09878-0.07762-0.17641-0.19758 0.1129 0.23285 0.1129 0.5151v1.397h-0.62094v-1.3901q0-0.14112 0.01411-0.26108 0.02117-0.11995 0.07763-0.23285-0.07763 0.09878-0.16935 0.17641-0.09173 0.07761-0.21169 0.14817l-1.2137 0.69857-0.31047-0.52921 1.2137-0.70562q0.26813-0.1623 0.53627-0.16935-0.14112-0.01411-0.27519-0.04939-0.12701-0.04233-0.26108-0.12701l-1.2208-0.71268 0.31047-0.52922 1.2207 0.70562q0.12701 0.07761 0.2258 0.1623 0.09879 0.08468 0.17641 0.20463-0.1129-0.24697-0.1129-0.52921v-1.397h0.62094v1.3901q0 0.14112-0.02117 0.26813-0.01411 0.11995-0.07057 0.23285 0.07762-0.09878 0.16935-0.17641t0.21169-0.15523l1.2137-0.69857 0.31047 0.52922-1.2137 0.70562q-0.11995 0.07763-0.23991 0.11995-0.11995 0.04234-0.25402 0.05646 0.13406 0.01411 0.25402 0.05646 0.11995 0.03528 0.23991 0.1129z" style="fill:currentColor;stroke-width:1.3633"/>
</svg>
