<svg version="1.1" viewBox="0 0 22 22" xmlns="http://www.w3.org/2000/svg">
 <defs>
  <style id="current-color-scheme" type="text/css">.ColorScheme-Text{color:#fcfcfc; fill:currentColor;}</style>
 </defs>
 <path class="ColorScheme-Text" d="M6 3C4.338 3 3 4.338 3 6v10c0 1.662 1.338 3 3 3h10c1.662 0 3-1.338 3-3V6c0-1.662-1.338-3-3-3zm0 3h10c1.108 0 2 .892 2 2v8c0 1.108-.892 2-2 2H6c-1.108 0-2-.892-2-2V8c0-1.108.892-2 2-2" fill="currentColor" style="fill:currentColor"/>
 <g transform="matrix(1.0786 0 0 1.0786 .93419 -.59211)" style="fill:#7f7f7f">
  <rect x="12.392" y="4.3098" width="1.3594" height="1.1006" rx=".099924" ry=".099563" style="fill:#7f7f7f;opacity:.4;paint-order:markers fill stroke;stroke-linecap:round;stroke-linejoin:bevel;stroke-opacity:.2;stroke-width:.83726"/>
  <rect x="10.479" y="5.0868" width="1.3619" height=".2966" rx=".10353" ry="0" style="fill:#7f7f7f;opacity:.4;paint-order:markers fill stroke;stroke-linecap:round;stroke-linejoin:bevel;stroke-opacity:.2;stroke-width:.65499"/>
  <path d="m14.787 5.0026-0.25145 0.38807s-0.19854 0.087687-0.19854-0.14802l0.29457-0.40537-0.26488-0.38417s0.0078-0.23977 0.19162-0.13359l0.22868 0.35045 0.2277-0.35045s0.16106-0.1042 0.21898 0.11194l-0.29026 0.40284 0.28676 0.40468s0.0171 0.20817-0.19371 0.15168z" style="fill:#7f7f7f;opacity:.4;paint-order:markers fill stroke;stroke-linecap:round;stroke-linejoin:bevel;stroke-opacity:.2;stroke-width:.10239" aria-label="x"/>
 </g>
</svg>
