<svg width="24" height="24" fill="none" version="1.1" xmlns="http://www.w3.org/2000/svg">
 <rect x="1.4307" y="2.1239" width="21.138" height="19.752" rx="2.7062" fill="url(#a)" opacity=".9" stroke="#808080" stroke-opacity=".2" vector-effect="non-scaling-stroke" style="-inkscape-stroke:hairline;fill:url(#a);stroke-width:.92882"/>
 <g class="ColorScheme-Text" transform="matrix(.6236 0 0 .6236 7.0112 6.6994)" fill="currentColor" style="fill:#ffffff">
  <path d="M 10.5,6 A 3.5,3.5 0 0 0 7,9.5 3.5,3.5 0 0 0 10.5,13 3.5,3.5 0 0 0 14,9.5 3.5,3.5 0 0 0 10.5,6 m 0,1 A 2.5,2.5 0 0 1 13,9.5 2.5,2.5 0 0 1 10.5,12 2.5,2.5 0 0 1 8,9.5 2.5,2.5 0 0 1 10.5,7" style="fill:#ffffff"/>
  <path d="m1 3c-1.108 0-2 0.892-2 2v9c0 1.108 0.892 2 2 2h14c1.108 0 2-0.892 2-2v-9c0-1.108-0.892-2-2-2zm0 1h14c0.554 0 1 0.446 1 1v9c0 0.554-0.446 1-1 1h-14c-0.554 0-1-0.446-1-1v-9c0-0.554 0.446-1 1-1" style="fill:#ffffff"/>
  <rect x="7" y="1" width="6" height="1" rx="0" ry="0" style="fill:#ffffff"/>
  <rect x="2" y="6" width="2" height="1" rx="0" ry="0" style="fill:#ffffff"/>
 </g>
 <defs>
  <linearGradient id="a" x1=".05" x2="1" y2="1" gradientTransform="matrix(22 0 0 22 -.10264 0)" gradientUnits="userSpaceOnUse">
   <stop stop-color="#196d9b" style="stop-color:#10662e" offset=".2327"/>
   <stop stop-color="#2191d3" style="stop-color:#117c52" offset=".23452"/>
   <stop stop-color="#0948bd" style="stop-color:#0f6341" offset="1"/>
  </linearGradient>
 </defs>
</svg>
