<svg width="24" height="24" fill="none" version="1.1" xmlns="http://www.w3.org/2000/svg">
 <defs>
  <linearGradient id="a" x1=".067778" x2="1.0112" y1=".10462" y2=".97863" gradientTransform="scale(22)" gradientUnits="userSpaceOnUse">
   <stop style="stop-color:#515151" offset="0"/>
   <stop style="stop-color:#616161" offset="1"/>
  </linearGradient>
 </defs>
 <rect x="1.4307" y="2.1239" width="21.138" height="19.752" rx="2.7062" fill="url(#a)" opacity=".9" stroke="#808080" stroke-opacity=".2" vector-effect="non-scaling-stroke" style="-inkscape-stroke:hairline;fill:url(#a);opacity:1;stroke-width:.92882"/>
 <path d="m11.977 6.2353c-0.40958 0-0.67102 0.3021-0.69716 0.70006v0.81045c0.037762 0.3631 0.34858 0.65359 0.7204 0.65359a0.87145 0.87145 0 0 0 0.27015-0.046477 0.72621 0.72621 0 0 0 0.44734-0.61002v-0.78431a0.72621 0.72621 0 0 0-0.74073-0.7204zm-1.3943 1.6906a4.6477 4.6477 0 0 0-1.3072 0.74364 1.4524 1.4524 0 0 1 0.40668 0.44734q-0.00581 0.01162 0 0.023239a1.4524 1.4524 0 0 1 0.11038 0.27305v0.020334a1.4524 1.4524 0 0 1 0.023239 0.58678c-0.017429 0.08714-0.058097 0.16848-0.087145 0.24691a1.2927 1.2927 0 0 1-1.1968 0.81045 1.1619 1.1619 0 0 1-0.67392-0.20334c-0.029048 0.08134-0.072621 0.15977-0.09005 0.24691v0.02324q-0.046477 0.20043-0.066811 0.40668v0.02033a5.8097 5.8097 0 0 0-0.023239 0.42701v0.04648q0 0.20334 0.023239 0.40668v0.04357q0.023239 0.19462 0.066811 0.38344 0.037763 0.183 0.087145 0.3602a1.7429 1.7429 0 0 1 0.76688-0.22658 1.0748 1.0748 0 0 1 0.69716 0.20334 1.1619 1.1619 0 0 1 0.42992 0.56354 1.4524 1.4524 0 0 1 0.087145 0.51706c0 0.36601-0.29629 0.84531-0.51416 1.0806q0.12781 0.10748 0.26724 0.20334c0.11619 0.07552 0.21786 0.15977 0.33987 0.22367q0.26144 0.13943 0.5403 0.24982 0.05519 0.01453 0.11329 0.02033a0.87145 0.87145 0 0 1-0.02324-0.15686c0-0.57225 0.64487-1.0341 1.4408-1.0341s1.4408 0.46187 1.4408 1.0341q-0.0058 0.08134-0.02324 0.15686 0.32825-0.11038 0.63035-0.27015c0.15396-0.08134 0.28467-0.17429 0.42701-0.27015l0.13653-0.08714 0.08714-0.09296a1.4524 1.4524 0 0 1-0.24401-0.24691 1.1619 1.1619 0 0 1-0.24982-0.5403 2.9048 2.9048 0 0 1-0.02033-0.27015c0-0.17429 0.03777-0.34858 0.08714-0.49382v-0.02324a1.1619 1.1619 0 0 1 0.09296-0.20334 1.1619 1.1619 0 0 1 0.13362-0.1801c0.05519-0.0639 0.11619-0.10748 0.1801-0.15686a1.1619 1.1619 0 0 1 0.40668-0.20334l0.24691-0.04357a1.6267 1.6267 0 0 1 0.81045 0.22367c0.02905-0.11329 0.06681-0.22077 0.09005-0.33696q0.04066-0.18881 0.06972-0.38344v-0.04357a4.6477 4.6477 0 0 0 0-0.9005 5.8097 5.8097 0 0 0-0.06972-0.40668v-0.02324c-0.02033-0.09586-0.0581-0.1801-0.09005-0.27015a1.1619 1.1619 0 0 1-0.67683 0.20334 1.2781 1.2781 0 0 1-0.92374-0.38053l-0.15396-0.20333a1.2781 1.2781 0 0 1-0.06972-1.3537 1.1619 1.1619 0 0 1 0.15686-0.24691 1.4524 1.4524 0 0 1 0.22658-0.20334 4.3573 4.3573 0 0 0-1.2839-0.74073 0.58097 0.58097 0 0 1 0.02324 0.15686c0 0.57225-0.64487 1.0341-1.4408 1.0341a1.6558 1.6558 0 0 1-1.1939-0.44734 1.1619 1.1619 0 0 1-0.13362-0.1801 0.87145 0.87145 0 0 1-0.11329-0.40668q0.0029-0.081336 0.02324-0.15686m-3.1314 0.49382a0.75526 0.75526 0 0 0-0.44734 0.33987 0.73492 0.73492 0 0 0 0.22367 1.0109l0.58387 0.3602 0.22658 0.13653a0.87145 0.87145 0 0 0 0.29048 0.066811 0.87145 0.87145 0 0 0 0.56644-0.22658 0.69716 0.69716 0 0 0 0.22367-0.51706 0.75526 0.75526 0 0 0-0.24691-0.56354l-0.27015-0.15686-0.61002-0.3602a0.69716 0.69716 0 0 0-0.5403-0.087145zm8.8278 0a0.69716 0.69716 0 0 0-0.27305 0.09005l-0.60711 0.3602-0.27015 0.15977-0.02324 0.020334a0.63906 0.63906 0 0 0-0.22367 0.51706 0.69716 0.69716 0 0 0 0.22367 0.51996 0.87145 0.87145 0 0 0 0.85692 0.1772l0.22367-0.13362 0.58678-0.3602a0.73492 0.73492 0 0 0 0.22367-1.0109 0.72621 0.72621 0 0 0-0.7204-0.33987zm-4.2788 2.1409a1.4408 1.4408 0 1 1 0 2.8816 1.4524 1.4524 0 0 1-1.0138-0.42992q-0.09876-0.09005-0.1801-0.20334a1.4524 1.4524 0 0 1-0.24691-0.81045 1.4524 1.4524 0 0 1 0.023239-0.29048 1.4524 1.4524 0 0 1 1.4176-1.1474m0 0.7204a0.72621 0.72621 0 0 0-0.65359 0.45025 0.58097 0.58097 0 0 0-0.06681 0.26724 0.7204 0.7204 0 1 0 0.7204-0.71749m-3.6717 2.411c-0.16558 0.01453-0.21205 0.0581-0.29048 0.08714l-0.15686 0.08714-0.58678 0.3631a0.73492 0.73492 0 0 0-0.22367 1.0138 0.74073 0.74073 0 0 0 1.0109 0.24691l0.58678-0.3602 0.20334-0.13653a0.87145 0.87145 0 0 0 0.22367-0.3602 0.58097 0.58097 0 0 0 0.023239-0.13653 0.87145 0.87145 0 0 0-0.22367-0.56063 0.87145 0.87145 0 0 0-0.24982-0.20334 0.58097 0.58097 0 0 0-0.31663-0.043571zm7.3638 0.04357a0.76688 0.76688 0 0 0-0.76688 0.76397c0 0.19753 0.0581 0.33986 0.1801 0.47349l0.22658 0.15686 0.58387 0.3602a0.74073 0.74073 0 0 0 1.0138-0.24691 0.73492 0.73492 0 0 0-0.22367-1.0167l-0.58678-0.35729-0.15686-0.09005a0.87145 0.87145 0 0 0-0.27015-0.04357m-3.692 1.8678a0.87145 0.87145 0 0 0-0.27015 0.04357 0.87145 0.87145 0 0 0-0.24982 0.15686 0.66811 0.66811 0 0 0-0.24401 0.45025v0.79012c0 0.39796 0.33115 0.7204 0.74073 0.7204a0.72621 0.72621 0 0 0 0.74364-0.7204v-0.78721a0.72621 0.72621 0 0 0-0.7204-0.65359" fill="#ffffff" style="stroke-width:1.3614"/>
</svg>
