<svg width="24" height="24" fill="none" version="1.1" xmlns="http://www.w3.org/2000/svg">
 <rect x="1.4307" y="2.1239" width="21.138" height="19.752" rx="12" fill="url(#a)" opacity="1" stroke="#808080" stroke-opacity=".2" vector-effect="non-scaling-stroke" style="-inkscape-stroke:hairline;fill:url(#a);stroke-width:.92882"/>
 <defs>
  <linearGradient id="a" x1=".05" x2="1" y2="1" gradientTransform="matrix(22 0 0 22 -.10264 0)" gradientUnits="userSpaceOnUse">
   <stop stop-color="#536d78" offset="0"/>
   <stop stop-color="#455A64" offset="1"/>
  </linearGradient>
 </defs>
 <path d="M11.46 5.5v4.876h1.08V5.5H12zm1.624.093v.552A5.96 5.96 0 0 1 17.957 12 5.957 5.957 0 0 1 12 17.957 5.957 5.957 0 0 1 6.043 12a5.96 5.96 0 0 1 4.873-5.855V5.6A6.5 6.5 0 0 0 5.5 12a6.5 6.5 0 0 0 6.5 6.5 6.5 6.5 0 0 0 6.5-6.5 6.5 6.5 0 0 0-5.416-6.407" style="fill:#ffffff"/>
</svg>
