<svg width="24" height="24" fill="none" version="1.1" xmlns="http://www.w3.org/2000/svg">
 <rect x="1.4307" y="2.1239" width="21.138" height="19.752" rx="2.7062" fill="url(#a)" opacity=".9" stroke="#808080" stroke-opacity=".2" vector-effect="non-scaling-stroke" style="-inkscape-stroke:hairline;fill:url(#a);stroke-width:.92882"/>
 <g class="ColorScheme-Text" transform="matrix(.75608 0 0 .75608 5.9514 5.9514)" style="fill:#ffffff">
  <path d="m7 0c-1.108 0-2 0.892-2 2v7c0 1.108 0.892 2 2 2h7c1.108 0 2-0.892 2-2v-7c0-1.108-0.892-2-2-2zm0 1h7c0.554 0 1 0.446 1 1v7c0 0.554-0.446 1-1 1h-7c-0.554 0-1-0.446-1-1v-7c0-0.554 0.446-1 1-1" style="fill:#ffffff"/>
  <path d="m12.181 9-0.477-1.66h-2.403l-0.482 1.66h-1.492l2.265-7h1.807l2.274 7zm-0.82-2.9-0.448-1.525q-0.029-0.086-0.086-0.281l-0.124-0.43q-0.062-0.238-0.12-0.476-0.057-0.239-0.08-0.406-0.02 0.105-0.053 0.248-0.029 0.143-0.071 0.305-0.039 0.158-0.082 0.32t-0.08 0.305-0.072 0.253l-0.043 0.162-0.443 1.525z" style="fill:#ffffff" aria-label="A"/>
  <path d="m2 5c-1.108 0-2 0.892-2 2v7c0 1.108 0.892 2 2 2h7c1.108 0 2-0.892 2-2v-2h-1v2c0 0.554-0.446 1-1 1h-7c-0.554 0-1-0.446-1-1v-7c0-0.554 0.446-1 1-1h1v-1zm0.111 2.723v5.015h0.453v-0.746h1.123v-1.1a3 3 0 0 1-0.453-0.722v1.29h-0.67v-3.205h0.436v-0.531zm2.287 3.808c-0.261 0.795-0.593 1.662-0.855 2.2l0.5 0.269a33 33 0 0 0 0.812-2.227 3 3 0 0 1-0.457-0.242m1.057 0.414c-0.059 0.352-0.119 0.738-0.174 1.008h2.531q-0.059 0.346-0.154 0.44c-0.077 0.092-0.154 0.107-0.277 0.107-0.139 0-0.492-8e-3 -0.87-0.039 0.085 0.138 0.14 0.338 0.147 0.484 0.362 0.016 0.722 0.024 0.922 8e-3 0.223-0.023 0.37-0.085 0.508-0.262 0.1-0.123 0.169-0.338 0.238-0.738h0.44v-0.484h-0.377c0.015-0.126 0.026-0.32 0.039-0.469h-0.493c-0.013 0.148-0.024 0.35-0.039 0.469h-2.015c0.02-0.142 0.049-0.317 0.072-0.473a3 3 0 0 1-0.498-0.05m1.406 0.054c0.168 0.154 0.315 0.307 0.405 0.432l0.306-0.301c-0.03-0.039-0.09-0.088-0.129-0.131z" opacity=".35" style="fill:#ffffff"/>
 </g>
 <defs>
  <linearGradient id="a" x1=".05" x2="1" y2="1" gradientTransform="matrix(22 0 0 22 -.10264 0)" gradientUnits="userSpaceOnUse">
   <stop style="stop-color:#333b90" offset=".2327"/>
   <stop style="stop-color:#494dca" offset=".23452"/>
   <stop style="stop-color:#0c5186" offset="1"/>
  </linearGradient>
 </defs>
</svg>
