<svg width="24" height="24" fill="none" version="1.1" xmlns="http://www.w3.org/2000/svg">
 <rect x="1.4307" y="2.1239" width="21.138" height="19.752" rx="2.7062" fill="url(#a)" opacity=".9" stroke="#808080" stroke-opacity=".2" vector-effect="non-scaling-stroke" style="-inkscape-stroke:hairline;fill:url(#a);stroke-width:.92882"/>
 <g transform="matrix(.79622 0 0 .79622 5.6303 5.6302)" fill="currentColor" style="fill:#ffffff">
  <path d="m7.4703 0.40953a1.0658 1.0658 0 0 0-1.0692 1.0745v0.010638a2.1685 2.1685 0 0 1-2.1596 2.1303h-0.00798c-0.36538-0.0043369-0.72282-0.10558-1.0372-0.2899a1.068 1.068 0 0 0-1.4654 0.39628l-0.00798 0.010638-0.55852 0.92022a1.0669 1.0669 0 0 0 0.39096 1.4654v0.00266a2.163 2.163 0 0 1 0 3.7421 1.0625 1.0625 0 0 0-0.39096 1.4575l0.53192 0.92022 0.00532 0.01064a1.0734 1.0734 0 0 0 1.4681 0.41756 2.1468 2.1468 0 0 1 1.6277-0.21543 2.1468 2.1468 0 0 1 1.3059 1.0027 2.0926 2.0926 0 0 1 0.2899 1.0426v0.0053a1.069 1.069 0 0 0 1.0771 1.0771h1.0612a1.068 1.068 0 0 0 1.0745-1.0692 2.1576 2.1576 0 0 1 2.1649-2.1623h0.01064a2.1685 2.1685 0 0 1 1.0293 0.2899h0.0027a1.068 1.068 0 0 0 1.4681-0.39096l0.0027-0.0053 0.55586-0.92288v-0.0053a1.0734 1.0734 0 0 0-0.39105-1.4601 2.1544 2.1544 0 0 1-0.78724-2.9495v-0.00266c0.18649-0.32527 0.45932-0.59544 0.78458-0.78192a1.069 1.069 0 0 0 0.39096-1.4628l-0.018617-0.037234-0.50798-0.88299a1.068 1.068 0 0 0-1.4681-0.39628 2.1522 2.1522 0 0 1-2.9442-0.77129c-0.18649-0.31443-0.28664-0.67344-0.2899-1.0399v-0.021277a1.0777 1.0777 0 0 0-1.0771-1.1091zm0.53192 4.3378c1.789 0 3.2527 1.4637 3.2527 3.2527s-1.4637 3.2527-3.2527 3.2527-3.2527-1.4626-3.2527-3.2527 1.4637-3.2527 3.2527-3.2527zm0 1.0851c-1.2035 0-2.1676 0.96409-2.1676 2.1676s0.96409 2.1676 2.1676 2.1676 2.1676-0.96409 2.1676-2.1676-0.96409-2.1676-2.1676-2.1676z" style="fill:#ffffff;opacity:.8;stroke-width:1.0842"/>
 </g>
 <defs>
  <linearGradient id="a" x1=".05" x2="1" y2="1" gradientTransform="matrix(24.424 0 0 22.822 -1.4364 -.44861)" gradientUnits="userSpaceOnUse">
   <stop stop-color="#2e477d" offset=".2327"/>
   <stop stop-color="#425eae" offset=".23452"/>
   <stop stop-color="#334988" offset="1"/>
  </linearGradient>
 </defs>
</svg>
