<svg width="24" height="24" fill="none" version="1.1" xmlns="http://www.w3.org/2000/svg">
 <rect x="1.4307" y="2.1239" width="21.138" height="19.752" rx="2.7062" fill="url(#a)" opacity=".9" stroke="#808080" stroke-opacity=".2" vector-effect="non-scaling-stroke" style="-inkscape-stroke:hairline;fill:url(#a);stroke-width:.92882"/>
 <g transform="matrix(.66584 0 0 .66584 4.0099 4.0099)" fill="currentColor" style="fill:#ffffff">
  <path d="m10.27 17a2 2 0 0 0-0.27 1 2 2 0 0 0 2 2 2 2 0 0 0 2-2 2 2 0 0 0-0.271-1zm1.73-13a1 1 0 0 0-1 1 1 1 0 0 0 0.01 0.129 4 4 0 0 0-3.01 3.871c0 3-1 4-3 6v1h14v-1c-2-2-3-3-3-6a4 4 0 0 0-3.01-3.871 1 1 0 0 0 0.01-0.129 1 1 0 0 0-1-1m0 2a3 3 0 0 1 3 3c0 3 0.586 4 2.586 6h-11.172c2-2 2.586-3 2.586-6a3 3 0 0 1 3-3" fill="currentColor" fill-rule="evenodd" style="fill:#ffffff"/>
 </g>
 <defs>
  <linearGradient id="a" x1=".05" x2="1" y2="1" gradientTransform="matrix(22 0 0 22 -.10264 0)" gradientUnits="userSpaceOnUse">
   <stop stop-color="#2e477d" offset=".2327"/>
   <stop stop-color="#425eae" offset=".23452"/>
   <stop stop-color="#334988" offset="1"/>
  </linearGradient>
 </defs>
</svg>
