<svg width="48" height="48" version="1.1" xmlns="http://www.w3.org/2000/svg">
 <rect x="12" y="11" width="24" height="32" rx="2" ry="2" style="opacity:.2"/>
 <rect x="12" y="10" width="24" height="32" rx="2" ry="2" style="fill:#8e8e8e"/>
 <rect x="4" y="7" width="40" height="32" rx="2" ry="2" style="opacity:.2"/>
 <path d="m4 34v2c0 1.108 0.892 2 2 2h36c1.108 0 2-0.892 2-2v-2h-40z" style="fill:#ababab"/>
 <path d="m6 6c-1.108 0-2 0.892-2 2v26h40v-26c0-1.108-0.892-2-2-2z" style="fill:#515151"/>
 <path d="m6 6c-1.108 0-2 0.892-2 2v1c0-1.108 0.892-2 2-2h36c1.108 0 2 0.892 2 2v-1c0-1.108-0.892-2-2-2h-36z" style="fill:#ffffff;opacity:.1"/>
 <rect x="4" y="34" width="40" height="1" style="fill:#ffffff;opacity:.1"/>
 <path d="m24 14c-2.216 0-4 1.8216-4 4.0625v1.938h-1c-0.554 0-1 0.446-1 1v6c0 0.554 0.446 1 1 1h10c0.554 0 1-0.446 1-1v-6c0-0.554-0.446-1-1-1h-1v-1.9375c0-2.24-1.784-4.062-4-4.062zm0 2c1.108 0 2 0.892 2 2v2h-4v-2c0-1.108 0.892-2 2-2z" style="opacity:.2"/>
 <path d="m24 13c-2.216 0-4 1.8216-4 4.0625v1.938h-1c-0.554 0-1 0.446-1 1v6c0 0.554 0.446 1 1 1h10c0.554 0 1-0.446 1-1v-6c0-0.554-0.446-1-1-1h-1v-1.9375c0-2.24-1.784-4.062-4-4.062zm0 2c1.108 0 2 0.892 2 2v2h-4v-2c0-1.108 0.892-2 2-2z" style="fill:#dbdbdb"/>
 <path d="m20 19h-1c-0.554 0-1 0.446-1 1v6c0 0.554 0.446 1 1 1h10c0.554 0 1-0.446 1-1v-6c0-0.554-0.446-1-1-1h-1z" style="fill:#ffc107"/>
</svg>
