<svg width="24" height="24" fill="none" version="1.1" xmlns="http://www.w3.org/2000/svg">
 <rect x="1.4307" y="2.1239" width="21.138" height="19.752" rx="2.7062" fill="url(#a)" opacity=".9" stroke="#808080" stroke-opacity=".2" vector-effect="non-scaling-stroke" style="-inkscape-stroke:hairline;fill:url(#a);stroke-width:.92882"/>
 <g transform="matrix(.72336 0 0 .72336 6.2005 6.2131)" fill="currentColor" style="fill:#464647">
  <path d="m6.5 1c-0.554 0-1 0.446-1 1v3c0 0.554 0.446 1 1 1h1v1h-2.5c-1.108 0-2 0.892-2 2v1h-1c-0.554 0-1 0.446-1 1v3c0 0.554 0.446 1 1 1h3c0.554 0 1-0.446 1-1v-3c0-0.554-0.446-1-1-1h-1v-1c0-0.554 0.446-1 1-1h6c0.554 0 1 0.446 1 1v1h-1c-0.554 0-1 0.446-1 1v3c0 0.554 0.446 1 1 1h3c0.554 0 1-0.446 1-1v-3c0-0.554-0.446-1-1-1h-1v-1c0-1.108-0.892-2-2-2h-2.5v-1h1c0.554 0 1-0.446 1-1v-3c0-0.554-0.446-1-1-1zm0 1h3v3h-3zm-4.5 9h3v3h-3zm9 0h3v3h-3z" style="fill:#d55532"/>
 </g>
 <defs>
  <linearGradient id="a" x1=".05" x2="1" y2="1" gradientTransform="matrix(19.04 0 0 19.04 1.6142 1.6142)" gradientUnits="userSpaceOnUse">
   <stop stop-color="#ff7f43" style="stop-color:#e4e4e4" offset=".23452"/>
   <stop stop-color="#d55532" style="stop-color:#afafb1" offset="1"/>
  </linearGradient>
 </defs>
</svg>
