<?xml version="1.0" encoding="UTF-8" standalone="no"?>
<svg
   width="24"
   height="24"
   version="1.1"
   viewBox="0 0 6.35 6.35"
   id="svg7"
   sodipodi:docname="preferences-system-time.svg"
   inkscape:version="1.3.2 (091e20ef0f, 2023-11-25, custom)"
   xmlns:inkscape="http://www.inkscape.org/namespaces/inkscape"
   xmlns:sodipodi="http://sodipodi.sourceforge.net/DTD/sodipodi-0.dtd"
   xmlns="http://www.w3.org/2000/svg"
   xmlns:svg="http://www.w3.org/2000/svg">
  <sodipodi:namedview
     id="namedview7"
     pagecolor="#ffffff"
     bordercolor="#000000"
     borderopacity="0.25"
     inkscape:showpageshadow="2"
     inkscape:pageopacity="0.0"
     inkscape:pagecheckerboard="0"
     inkscape:deskcolor="#d1d1d1"
     inkscape:zoom="13.833333"
     inkscape:cx="22.771084"
     inkscape:cy="10.481928"
     inkscape:window-width="1880"
     inkscape:window-height="892"
     inkscape:window-x="0"
     inkscape:window-y="0"
     inkscape:window-maximized="1"
     inkscape:current-layer="svg7" />
  <defs
     id="defs3">
    <clipPath
       id="b">
      <path
         d="M0 0h19v19H0Z"
         id="path1" />
    </clipPath>
    <clipPath
       id="c">
      <path
         d="M0 0h19v19H0Z"
         id="path2" />
    </clipPath>
    <radialGradient
       id="a"
       cx="0"
       cy="0"
       r="1"
       gradientTransform="rotate(90 9.63 9.895)scale(5.82072)"
       gradientUnits="userSpaceOnUse">
      <stop
         style="stop-color:#63ac9a;stop-opacity:1;"
         offset="0"
         id="stop2" />
      <stop
         style="stop-color:#37ccb2;stop-opacity:1;"
         offset="1"
         id="stop3" />
    </radialGradient>
  </defs>
  <path
     transform="translate(-16.35)"
     d="M18.888.295a.3.3 0 0 0 .091-.012q.57-.037 1.14.002a3.6 3.6 0 0 1 1 .225q.804.33 1.101 1.148.169.492.2 1.011.042.653-.03 1.304a3.2 3.2 0 0 1-.237.878q-.338.731-1.094 1.008a4.1 4.1 0 0 1-1.262.218 5.6 5.6 0 0 1-1.442-.109q-1.314-.292-1.62-1.602a5 5 0 0 1-.12-1.194 5 5 0 0 1 .137-1.266Q17.074.682 18.307.389q.287-.071.581-.094"
     style="fill-rule:evenodd;fill:url(#a)"
     id="path3" />
  <path
     transform="scale(.35277)"
     d="M9.07.75q-.808 0-1.617.051a1 1 0 0 1-.258.035 10 10 0 0 0-1.648.266q-3.492.831-4.406 4.3a14 14 0 0 0-.336 2.043 12.03 12.03 0 0 0 10.945 7.086 12.1 12.1 0 0 0 4.793-1.019 9 9 0 0 0 .578-2.25q.204-1.845.086-3.696a10.8 10.8 0 0 0-.566-2.867q-.843-2.315-3.121-3.254a10.3 10.3 0 0 0-2.836-.636A24 24 0 0 0 9.07.75"
     clip-path="url(#b)"
     opacity=".1"
     style="fill:#1700ff;fill-opacity:1"
     id="path4" />
  <path
     transform="scale(.35277)"
     d="m9.07 0.75q-0.808 0-1.617 0.051a1 1 0 0 1-0.258 0.035 10 10 0 0 0-1.648 0.266q-3.492 0.831-4.406 4.3a14 14 0 0 0-0.387 3.59q-0.034 1.712 0.336 3.383c0.578 2.477 2.113 3.992 4.594 4.543q1.745 0.357 3.519 0.328a13.74 13.74 0 0 0 8.004-6.996q0.088-1.336 0-2.684a10.8 10.8 0 0 0-0.566-2.867q-0.843-2.316-3.121-3.254a10.3 10.3 0 0 0-2.836-0.636 24 24 0 0 0-1.614-0.059"
     clip-path="url(#c)"
     opacity=".1"
     style="fill:#000000;opacity:0.21784;fill-opacity:1"
     id="path5" />
  <g
     id="g7"
     transform="matrix(0.17725518,0,0,0.17725518,1.668331,1.7569586)"
     style="fill:#ffffff">
    <path
       fill="currentColor"
       d="M 7,0 C 5.892,0 5,0.892 5,2 V 3 H 3 C 1.892,3 1,3.892 1,5 v 9 c 0,1.108 0.892,2 2,2 h 6 c 0.53,0 1.006,-0.207 1.363,-0.541 A 4.5,4.5 0 0 1 9.5,14.848 1,1 0 0 1 9,15 H 3 C 2.446,15 2,14.554 2,14 V 5 Q 2.002,4.79 2.078,4.61 A 1,1 0 0 1 3,4 H 5 V 9 H 8.76 A 4.5,4.5 0 0 1 10.48,7.48 L 6,3 V 2 Q 6.001,1.79 6.078,1.61 A 1,1 0 0 1 7,1 h 2 v 5 h 5 V 7.264 A 4.5,4.5 0 0 1 15,7.76 V 5 L 10,0 Z M 10,1.414 13.586,5 H 10 Z m -4,3 L 9.586,8 H 6 Z"
       class="ColorScheme-Text"
       style="fill:#ffffff"
       id="path6" />
    <path
       fill="currentColor"
       d="m 12.5,8 a 3.5,3.5 0 1 0 0,7 3.5,3.5 0 0 0 0,-7 m -1,1 C 11.777,9 12,9.223 12,9.5 V 12 h 2.5 a 0.5,0.5 0 1 1 0,1 h -3 A 0.5,0.5 0 0 1 11,12.5 v -3 C 11,9.223 11.223,9 11.5,9"
       class="ColorScheme-Text"
       style="fill:#ffffff"
       id="path7" />
  </g>
</svg>
