<svg width="24" height="24" fill="none" version="1.1" xmlns="http://www.w3.org/2000/svg">
 <rect x="1.4307" y="2.1239" width="21.138" height="19.752" rx="2.7062" fill="url(#a)" opacity=".9" stroke="#808080" stroke-opacity=".2" vector-effect="non-scaling-stroke" style="-inkscape-stroke:hairline;fill:url(#a);stroke-width:.92882"/>
 <g transform="matrix(.60646 0 0 .60646 6.8451 7.1483)" fill="currentColor" style="fill:#ffffff">
  <path class="ColorScheme-Text" d="m7 0c-1.108 0-2 0.892-2 2v1h-2c-1.108 0-2 0.892-2 2v9c0 1.108 0.892 2 2 2h6c0.53 0 1.006-0.207 1.363-0.541a4.5 4.5 0 0 1-0.863-0.611 1 1 0 0 1-0.5 0.152h-6c-0.554 0-1-0.446-1-1v-9q2e-3 -0.21 0.078-0.39a1 1 0 0 1 0.922-0.61h2v5h3.76a4.5 4.5 0 0 1 1.72-1.52l-4.48-4.48v-1q1e-3 -0.21 0.078-0.39a1 1 0 0 1 0.922-0.61h2v5h5v1.264a4.5 4.5 0 0 1 1 0.496v-2.76l-5-5zm3 1.414 3.586 3.586h-3.586zm-4 3 3.586 3.586h-3.586z" style="fill:#ffffff"/>
  <path class="ColorScheme-Text" d="m12.5 8a3.5 3.5 0 1 0 0 7 3.5 3.5 0 0 0 0-7m-1 1c0.277 0 0.5 0.223 0.5 0.5v2.5h2.5a0.5 0.5 0 1 1 0 1h-3a0.5 0.5 0 0 1-0.5-0.5v-3c0-0.277 0.223-0.5 0.5-0.5" style="fill:#ffffff"/>
 </g>
 <defs>
  <linearGradient id="a" x1=".05" x2="1" y2="1" gradientTransform="matrix(22 0 0 22 -.10264 0)" gradientUnits="userSpaceOnUse">
   <stop stop-color="#009543" offset=".2327"/>
   <stop stop-color="#37b34c" offset=".23452"/>
   <stop stop-color="#006c34" offset="1"/>
  </linearGradient>
 </defs>
</svg>
