<svg width="48" height="48" version="1" xmlns="http://www.w3.org/2000/svg">
 <path d="m36.346 40.652c-0.61222-0.27466-1.9197-1.4501-2.9054-2.6121-0.98576-1.162-2.0374-2.3099-2.3371-2.5508-0.38263-0.30764-3.0456-0.4814-7.7068-0.48943h-9.7366l0.60707-0.88872c1.2129-1.7756 5.6601-2.3518 13.822-2.3688 8.1083-0.01694 8.7417-0.2236 10.996-1.9257 1.9873-1.5007 2.8482-3.5323 3.08-7.7158 0.11163-2.0153 0.59987-3.8673 0.74318-2.5826 0.10638 0.95364 0.3702 4.2718 0.63404 7.9081 0.61788 8.516 0.61664 8.7995-0.04502 10.28-0.90716 2.0071-2.7952 3.1135-4.7846 3.2754-0.86954 0.06292-1.7197-0.03968-2.3666-0.3299z" style="opacity:.2"/>
 <path d="m36.346 39.652c-0.61222-0.27466-1.9197-1.4501-2.9054-2.6121-0.98576-1.162-2.0374-2.3099-2.3371-2.5508-0.38263-0.30764-3.0456-0.4814-7.7068-0.48943h-9.7366l0.60707-0.88872c1.2129-1.7756 5.6601-2.3518 13.822-2.3688 8.1083-0.01694 8.7417-0.2236 10.996-1.9257 1.9873-1.5007 2.8482-3.5323 3.08-7.7158 0.11163-2.0153 0.59987-3.8673 0.74318-2.5826 0.10638 0.95364 0.3702 4.2718 0.63404 7.9081 0.61788 8.516 0.61664 8.7995-0.04502 10.28-0.90716 2.0071-2.7952 3.1135-4.7846 3.2754-0.86954 0.06292-1.7197-0.03968-2.3666-0.3299z" style="fill:#606060"/>
 <path d="m23.941 9c-11.96-3e-7 -13.352 0.18987-15.754 2.1471-2.5707 2.095-2.8512 3.1914-3.6559 14.292-0.39669 5.4725-0.62032 10.481-0.49672 11.13 0.27937 1.4672 1.8093 3.3008 3.2805 3.9322 2.8526 1.2242 5.3799 0.21027 8.0483-3.2291l1.8248-2.3525c0.43429-0.59553 0.91997-1.3828 1.456-1.8907 1.0477-0.97504 3.0351-1.0157 9.5677-1.0293 8.1493-0.01694 9.3051-0.20698 11.571-1.9095 1.9974-1.501 2.8884-3.7721 3.1214-7.9567 0.23107-2.3729 0.17308-3.6514-0.12291-5.3236-0.54298-3.0369-1.3162-4.1554-2.9061-5.4962-2.5263-2.1305-3.7889-2.314-15.933-2.314z" style="opacity:.2"/>
 <path d="m23.941 8c-11.96-3e-7 -13.352 0.18987-15.754 2.1471-2.5707 2.095-2.8512 3.1914-3.6559 14.292-0.39669 5.4725-0.62032 10.481-0.49672 11.13 0.27937 1.4672 1.8093 3.3008 3.2805 3.9322 2.8526 1.2242 5.3799 0.21027 8.0483-3.2291l1.8248-2.3525c0.43429-0.59553 0.91997-1.3828 1.456-1.8907 1.0477-0.97504 3.0351-1.0157 9.5677-1.0293 8.1493-0.01694 9.3051-0.20698 11.571-1.9095 1.9974-1.501 2.8884-3.7721 3.1214-7.9567 0.23107-2.3729 0.17308-3.6514-0.12291-5.3236-0.54298-3.0369-1.3162-4.1554-2.9061-5.4962-2.5263-2.1305-3.7889-2.314-15.933-2.314z" style="fill:#707070"/>
 <path d="m13 14c-0.554 0-1 0.446-1 1v3h-3c-0.554 0-1 0.446-1 1v2c0 0.554 0.446 1 1 1h3v3c0 0.554 0.446 1 1 1h2c0.554 0 1-0.446 1-1v-3h3c0.554 0 1-0.446 1-1v-2c0-0.554-0.446-1-1-1h-3v-3c0-0.554-0.446-1-1-1zm21 0a2 2 0 0 0-2 2 2 2 0 0 0 2 2 2 2 0 0 0 2-2 2 2 0 0 0-2-2zm-4 4a2 2 0 0 0-2 2 2 2 0 0 0 2 2 2 2 0 0 0 2-2 2 2 0 0 0-2-2zm8 0a2 2 0 0 0-2 2 2 2 0 0 0 2 2 2 2 0 0 0 2-2 2 2 0 0 0-2-2zm-4 4a2 2 0 0 0-2 2 2 2 0 0 0 2 2 2 2 0 0 0 2-2 2 2 0 0 0-2-2z" style="opacity:.2"/>
 <rect x="12" y="13" width="4" height="12" rx="1" ry="1" style="fill:#e4e4e4"/>
 <rect transform="rotate(90)" x="17" y="-20" width="4" height="12" rx="1" ry="1" style="fill:#e4e4e4"/>
 <circle cx="34" cy="15" r="2" style="fill:#ff5555"/>
 <circle cx="34" cy="23" r="2" style="fill:#ffdd55"/>
 <circle transform="rotate(90)" cx="19" cy="-38" r="2" style="fill:#ffdd55"/>
 <circle transform="rotate(90)" cx="19" cy="-30" r="2" style="fill:#ff5555"/>
 <path d="m23.941 8c-11.96-3e-7 -13.352 0.18922-15.754 2.1465-2.5707 2.095-2.8516 3.1921-3.6562 14.293-0.35456 4.8913-0.56974 9.3873-0.52344 10.756 0.034644-1.9698 0.23109-5.7227 0.52344-9.7559 0.80467-11.101 1.0855-12.198 3.6562-14.293 2.4017-1.9573 3.7941-2.1465 15.754-2.1465 12.145 0 13.407 0.18393 15.934 2.3145 1.5898 1.3408 2.3633 2.4592 2.9062 5.4961 0.13606 0.76866 0.21753 1.4563 0.24805 2.2031 0.0234-1.1672-0.05515-2.1134-0.24805-3.2031-0.54298-3.0369-1.3164-4.1553-2.9062-5.4961-2.5263-2.1305-3.789-2.3145-15.934-2.3145z" style="fill:#e4e4e4;opacity:.2"/>
</svg>
