<svg width="24" height="24" fill="none" version="1.1" xmlns="http://www.w3.org/2000/svg">
 <rect x="1.4307" y="2.1239" width="21.138" height="19.752" rx="2.7062" fill="url(#a)" opacity=".9" stroke="#808080" stroke-opacity=".2" vector-effect="non-scaling-stroke" style="-inkscape-stroke:hairline;fill:url(#a);stroke-width:.92882"/>
 <g transform="matrix(.65865 0 0 .65865 4.7548 4.7549)" fill="currentColor" style="fill-opacity:.9;fill:#ffffff">
<path d="M11 3a4 4 0 0 0-4 4 4 4 0 0 0 4 4 4 4 0 0 0 4-4 4 4 0 0 0-4-4m0 1a3 3 0 0 1 3 3 3 3 0 0 1-3 3 3 3 0 0 1-3-3 3 3 0 0 1 3-3m0 8a8 8 0 0 0-7.928 7H4.08A7 7 0 0 1 11 13a7 7 0 0 1 6.922 6h1.008A8 8 0 0 0 11 12"/>
 </g>
 <defs>
  <linearGradient id="a" x1=".05" x2="1" y2="1" gradientTransform="matrix(22 0 0 22 -.10264 0)" gradientUnits="userSpaceOnUse">
   <stop stop-color="#006229" offset=".2327"/>
   <stop stop-color="#257933" offset=".23452"/>
   <stop stop-color="#005928" offset="1"/>
  </linearGradient>
 </defs>
</svg>
