<svg width="24" height="24" fill="none" version="1.1" xmlns="http://www.w3.org/2000/svg">
 <rect x="1.4307" y="2.1239" width="21.138" height="19.752" rx="2.7062" fill="url(#a)" opacity=".9" stroke="#808080" stroke-opacity=".2" vector-effect="non-scaling-stroke" style="-inkscape-stroke:hairline;fill:url(#a);stroke-width:.92882"/>
 <g transform="matrix(.65364 0 0 .65364 4.1563 4.1563)">
  <path transform="translate(-448,-368)" d="m460 372c-4.406 0-8 3.594-8 8s3.594 8 8 8v-2c-3.326 0-6-2.674-6-6s2.674-6 6-6a1 1 0 0 0 0-2" fill="url(#d)" overflow="visible" style="fill:url(#d);opacity:.8;text-indent:0;text-transform:none"/>
  <path transform="translate(-448,-368)" d="m460 372c4.406 0 8 3.594 8 8s-3.594 8-8 8v-2c3.326 0 6-2.674 6-6s-2.674-6-6-6z" fill="url(#e)" overflow="visible" style="fill:url(#e);text-indent:0;text-transform:none"/>
 </g>
 <defs>
  <linearGradient id="a" x1=".05" x2="1" y2="1" gradientTransform="matrix(22 0 0 22 -.10264 0)" gradientUnits="userSpaceOnUse">
   <stop stop-color="#41555e" offset=".2327"/>
   <stop stop-color="#536d78" offset=".23452"/>
   <stop stop-color="#455A64" offset="1"/>
  </linearGradient>
  <linearGradient id="e" x1="5.875" x2="3.875" y1="31.125" y2="4.125" gradientTransform="matrix(-1,0,0,1,471.88,367.88)" gradientUnits="userSpaceOnUse">
   <stop class="ColorScheme-Text" stop-color="currentColor" style="stop-color:#ffffff" offset="0"/>
   <stop class="ColorScheme-Text" stop-color="currentColor" stop-opacity="0" style="stop-color:#ffffff;stop-opacity:0" offset="1"/>
  </linearGradient>
  <linearGradient id="d" x1="12" x2="23" y1="6" y2="10" gradientTransform="translate(448,368)" gradientUnits="userSpaceOnUse">
   <stop class="ColorScheme-Text" stop-color="currentColor" style="stop-color:#ffffff" offset="0"/>
   <stop class="ColorScheme-Text" stop-color="currentColor" stop-opacity="0" style="stop-color:#ffffff;stop-opacity:0" offset="1"/>
  </linearGradient>
 </defs>
</svg>
