<svg width="24" height="24" fill="none" version="1.1" xmlns="http://www.w3.org/2000/svg">
 <rect x="1.4307" y="2.1239" width="21.138" height="19.752" rx="12" fill="url(#a)" opacity="1" stroke="#808080" stroke-opacity=".2" vector-effect="non-scaling-stroke" style="-inkscape-stroke:hairline;fill:url(#a);stroke-width:.92882"/>
 <path d="m15.18 6.5992v0.45036h1.0485l-1.0485 1.0485v0.31972h1.8221v-0.45723h-1.0417l0.91102-0.91103 0.13408-0.13064v-0.31972h-0.32316zm-3.18 0.45036v0.45723h1.0417l-0.90759 0.91103-0.13408 0.13408v0.31972h1.8221v-0.45379h-1.0485l0.90759-0.91103 0.13751-0.13751v-0.31972h-0.32316zm-2.8259 0.11345-0.39535 0.2269 0.97634 1.688-1.6398-0.44004-0.12032 0.44004 2.0833 0.55693 1.3958 2.4202h-2.7915l-1.5264-1.5264-0.31972 0.32316 1.2032 1.2032h-1.9527v0.45379h1.9527l-1.2032 1.2032 0.31972 0.32316 1.5264-1.5264h2.7915l-1.3958 2.4168-2.0833 0.56037 0.12032 0.44004 1.6398-0.44004-0.97634 1.6914 0.39535 0.22346 0.97634-1.688 0.44348 1.6433 0.4366-0.11689-0.55693-2.0833 1.5264-2.6471 1.5264 2.6471-0.55693 2.0833 0.4366 0.11689 0.44348-1.6433 0.97634 1.688 0.39535-0.22346-0.97634-1.6914 1.6398 0.44004 0.12032-0.44004-2.0833-0.56037-1.3958-2.4168h2.7915l1.5264 1.5264 0.31972-0.32316-1.2032-1.2032h1.9527v-0.45379h-1.9527l1.2032-1.2032-0.31972-0.32316-1.5264 1.5264h-3.3175l-1.5264-2.6471 0.55693-2.0833-0.4366-0.11689-0.44348 1.6467zm4.6445 2.1624v0.45379h1.0451l-0.91102 0.91103-0.13408 0.13751v0.31628h1.8221v-0.45379h-1.0451l0.90759-0.91103 0.13751-0.13408v-0.31972h-0.32316z" style="fill:#ffffff;stroke-width:.83378"/>
 <defs>
  <linearGradient id="a" x1=".05" x2="1" y2="1" gradientTransform="matrix(22 0 0 22 -.10264 0)" gradientUnits="userSpaceOnUse">
   <stop stop-color="#536d78" offset="0"/>
   <stop stop-color="#455A64" offset="1"/>
  </linearGradient>
 </defs>
</svg>
