<svg width="24" height="24" fill="none" version="1.1" xmlns="http://www.w3.org/2000/svg">
 <defs>
  <radialGradient id="a" cx="0" cy="0" r="1" gradientTransform="matrix(0 16.5 -16.5 0 9 .75)" gradientUnits="userSpaceOnUse">
   <stop style="stop-color:#10d996" offset="0"/>
   <stop style="stop-color:#0bae84" offset="1"/>
  </radialGradient>
 </defs>
 <rect x="1.4307" y="2.1239" width="21.138" height="19.752" rx="2.7062" fill="url(#a)" opacity=".9" stroke="#808080" stroke-opacity=".2" vector-effect="non-scaling-stroke" style="-inkscape-stroke:hairline;fill:url(#a);stroke-width:.92882"/>
 <path d="m11.348 6.3432a5.0289 5.0289 0 0 0-0.95549 0.066374 0.52301 0.52301 0 0 0-0.4355 0.43249c-0.10258 0.66784-0.00798 1.4302-0.00798 2.1101 0 0.3651 0.082482 0.84083-0.015966 1.1939-0.12171 0.45159-0.47473 0.91124-0.69902 1.3246-0.51496 0.95449-1.037 1.905-1.5439 2.8635-0.39728 0.75031-1.1476 1.6344-0.72718 2.5185 0.42042 0.89213 1.3789 0.75836 2.2007 0.75836h4.691c0.72215 0 1.5952 0.12975 2.2982-0.03923 0.65577-0.16092 1.1074-0.83681 0.98969-1.5046-0.07863-0.44053-0.3492-0.84486-0.56544-1.2301-0.28263-0.49484-0.53407-1.0098-0.81368-1.5087-0.41639-0.73824-0.81267-1.4886-1.21-2.2348-0.16092-0.30676-0.45159-0.66382-0.50289-1.0098-0.12171-0.80161-8e-3 -1.7088-8e-3 -2.5185 0-0.31079 0.0865-0.75434-0.14082-0.99774-0.22832-0.24038-0.62861-0.16896-0.92733-0.16896-0.51496 0-1.0802-0.051291-1.6264-0.055311m-0.20114 4.1448c0.47976 4e-3 0.66382 0.77445 0.12573 0.93135-0.57732 0.16494-0.8519-0.72718-0.28263-0.9042a0.50289 0.50289 0 0 1 0.1569-0.02708m-0.01112 1.6696c0.84787-0.01112 1.0883 1.3166 0.16896 1.5248-0.96253 0.2243-1.3206-1.2924-0.34599-1.5046a1.0058 1.0058 0 0 1 0.17702-0.02024m1.3588 1.1989c0.46769 0.0071 0.65275 0.76137 0.13377 0.92733-0.58939 0.18407-0.88006-0.71913-0.28665-0.9042a0.50289 0.50289 0 0 1 0.15288-0.02309m-2.8363 0.58939c0.32185-8e-3 0.68393 0.14082 0.95449 0.2434 0.76238 0.28263 1.5167 0.72618 2.3616 0.6437a3.1179 3.1179 0 0 0 1.0058-0.30173c0.25144-0.11869 0.50289-0.29872 0.78954-0.18104 0.21626 0.09052 0.30978 0.2947 0.42042 0.4868 0.2243 0.39326 0.82072 1.2069 0.14484 1.5006-0.4355 0.18908-1.1979 0.04325-1.6696 0.04325h-3.4961c-0.42846 0-1.1124 0.12975-1.5087-0.04325-0.77043-0.33392 0.090522-1.4182 0.3299-1.8456 0.11364-0.19712 0.22028-0.44053 0.45562-0.51496a0.80463 0.80463 0 0 1 0.21221-0.03119" style="fill:#dbf7ee"/>
</svg>
