<svg width="24" height="24" fill="none" version="1.1" xmlns="http://www.w3.org/2000/svg">
 <rect x=".89736" y="1" width="22" height="22" rx="9.106" fill="url(#a)" opacity=".9" stroke="#808080" stroke-opacity=".2" vector-effect="non-scaling-stroke" style="-inkscape-stroke:hairline;fill:url(#a)"/>
 <g class="ColorScheme-Text" transform="matrix(.64043 0 0 .64043 4.9553 4.6351)" fill="currentColor" style="fill:#ffffff">
  <path class="ColorScheme-Text" d="m7 18c-1.108 0-2 0.892-2 2h1c0-0.554 0.446-1 1-1h8c0.554 0 1 0.446 1 1h1c0-1.108-0.892-2-2-2zm3.95-11a3 3 0 0 0-2.95 3 3 3 0 0 0 3 3 3 3 0 0 0 3-3 3 3 0 0 0-3-3zm0.05 2a1 1 0 0 1 1 1 1 1 0 0 1-1 1 1 1 0 0 1-1-1 1 1 0 0 1 1-1" style="fill:#ffffff"/>
  <path class="ColorScheme-Text" d="m10.906 3a7 7 0 0 0-6.906 7 7 7 0 0 0 7 7 7 7 0 0 0 7-7 7 7 0 0 0-7-7zm0.094 1a6 6 0 0 1 6 6 6 6 0 0 1-6 6 6 6 0 0 1-6-6 6 6 0 0 1 6-6" style="fill:#ffffff"/>
 </g>
 <defs>
  <linearGradient id="a" x1=".05" x2="1" y2="1" gradientTransform="matrix(22 0 0 22 -.10264 0)" gradientUnits="userSpaceOnUse">
   <stop stop-color="#196d9b" style="stop-color:#556610" offset=".2327"/>
   <stop stop-color="#2191d3" style="stop-color:#5c7c11" offset=".23452"/>
   <stop stop-color="#0948bd" style="stop-color:#4c630f" offset="1"/>
  </linearGradient>
 </defs>
</svg>
