<svg width="24" height="24" fill="none" version="1.1" xmlns="http://www.w3.org/2000/svg">
 <rect x=".89736" y="1" width="22" height="22" rx="9.106" fill="url(#a)" opacity=".9" stroke="#808080" stroke-opacity=".2" vector-effect="non-scaling-stroke" style="-inkscape-stroke:hairline;fill:url(#a)"/>
 <g transform="matrix(.53815 0 0 .53815 6.0803 6.0803)" fill="currentColor" style="fill:#ffffff">
  <path class="ColorScheme-Text" d="m3 3v4h-1v11c0 0.554 0.446 1 1 1h17v-11c0-0.554-0.446-1-1-1h-5v-4zm1 1h9v3h-2.508a2.5 2.5 0 0 0-1.992-1 2.5 2.5 0 0 0-1.998 1h-2.502zm-1 4h16v3h-7c-1.108 0-2 0.892-2 2s0.892 2 2 2h7v3h-16zm10 4a1 1 0 1 1 0 2 1 1 0 0 1 0-2" fill="currentColor" style="fill:#ffffff"/>
 </g>
 <defs>
  <linearGradient id="a" x1=".05" x2="1" y2="1" gradientTransform="matrix(22 0 0 22 -.10264 0)" gradientUnits="userSpaceOnUse">
   <stop style="stop-color:#725511" offset=".2327"/>
   <stop style="stop-color:#706b04" offset=".23452"/>
   <stop style="stop-color:#7b5b06" offset="1"/>
  </linearGradient>
 </defs>
</svg>
