<svg width="24" height="24" fill="none" version="1.1" xmlns="http://www.w3.org/2000/svg">
 <rect x=".89736" y="1" width="22" height="22" rx="9.106" fill="url(#a)" opacity=".9" stroke="#808080" stroke-opacity=".2" vector-effect="non-scaling-stroke" style="-inkscape-stroke:hairline;fill:url(#a)"/>
 <g transform="matrix(.65749 0 0 .65749 4.4388 4.7674)" fill="currentColor" style="fill:#ffffff">
  <path class="ColorScheme-Text" d="M 17.139,4.427 C 16.594,4 16,4.652 16.455,5.16 A 8,8 0 0 1 19,11 8,8 0 0 1 16.446,16.851 C 16,17.323 16.626,18 17.123,17.58 A 9,9 0 0 0 20,11 9,9 0 0 0 17.139,4.427" style="fill:#ffffff"/>
  <path class="ColorScheme-Text" d="m14.775 5.888c-0.587-0.535-1.199 0.225-0.684 0.733a6 6 0 0 1 1.909 4.379 6 6 0 0 1-1.916 4.388c-0.469 0.447 0.173 1.147 0.68 0.729a7 7 0 0 0 2.236-5.117 7 7 0 0 0-2.225-5.112" style="fill:#ffffff"/>
  <path class="ColorScheme-Text" d="m12.41 7.35c-0.521-0.494-1.155 0.22-0.684 0.73a4 4 0 0 1 1.274 2.92 4 4 0 0 1-1.277 2.925c-0.473 0.43 0.14 1.153 0.68 0.73a5 5 0 0 0 1.597-3.655 5 5 0 0 0-1.59-3.65m-2.41-2.35-3 3h-3c-0.554 0-1 0.446-1 1v4c0 0.554 0.446 1 1 1h3l3 3z" style="fill:#ffffff"/>
 </g>
 <defs>
  <linearGradient id="a" x1=".05" x2="1" y2="1" gradientTransform="matrix(22 0 0 22 -.10264 0)" gradientUnits="userSpaceOnUse">
   <stop stop-color="#526d0f" offset=".2327"/>
   <stop stop-color="#7b9144" offset=".23452"/>
   <stop stop-color="#54700f" offset="1"/>
  </linearGradient>
 </defs>
</svg>
