<svg width="24" height="24" fill="none" version="1.1" xmlns="http://www.w3.org/2000/svg">
 <rect x=".89736" y="1" width="22" height="22" rx="9.106" fill="url(#a)" opacity=".9" stroke="#808080" stroke-opacity=".2" vector-effect="non-scaling-stroke" style="-inkscape-stroke:hairline;fill:url(#a)"/>
 <g transform="matrix(.74031 0 0 .74031 6.0776 6.0776)" fill="currentColor" fill-rule="evenodd" style="fill:#ffffff">
  <path class="ColorScheme-Text" d="m15 6.588v2.824a1.5 1.5 0 0 0 1-1.412 1.5 1.5 0 0 0-1-1.412" style="fill:#ffffff"/>
  <rect class="ColorScheme-Text" x="2" y="6" width="10" height="4" ry="0" style="fill:#ffffff"/>
  <path class="ColorScheme-Text" d="m2 4c-1.108 0-2 0.892-2 2v4c0 1.108 0.892 2 2 2h10c1.108 0 2-0.892 2-2v-4c0-1.108-0.892-2-2-2zm0 1h10c0.554 0 1 0.446 1 1v4c0 0.554-0.446 1-1 1h-10c-0.554 0-1-0.446-1-1v-4c0-0.554 0.446-1 1-1" style="fill:#ffffff"/>
 </g>
 <defs>
  <linearGradient id="a" x1=".05" x2="1" y2="1" gradientTransform="matrix(22 0 0 22 -.10264 0)" gradientUnits="userSpaceOnUse">
   <stop stop-color="#196d9b" style="stop-color:#3120b1" offset=".2327"/>
   <stop stop-color="#2191d3" style="stop-color:#5738de" offset=".23452"/>
   <stop stop-color="#0948bd" style="stop-color:#341ccc" offset="1"/>
  </linearGradient>
 </defs>
</svg>
