<svg width="24" height="24" fill="none" version="1.1" xmlns="http://www.w3.org/2000/svg">
 <rect x=".89736" y="1" width="22" height="22" rx="9.106" fill="url(#a)" opacity=".9" stroke="#808080" stroke-opacity=".2" vector-effect="non-scaling-stroke" style="-inkscape-stroke:hairline;fill:url(#a)"/>
 <path class="ColorScheme-Text" d="m12 6.3485c-3.1168 0-5.6515 2.5347-5.6515 5.6515s2.5347 5.6515 5.6515 5.6515a0.35322 0.35322 0 0 0 0.35322-0.35322 0.35322 0.35322 0 0 0-0.35322-0.35322c-2.7353 0-4.9451-2.2097-4.9451-4.9451s2.2097-4.9451 4.9451-4.9451c2.7353 0 4.9451 2.2097 4.9451 4.9451v1.0597c0 0.58705-0.4726 1.0597-1.0597 1.0597-0.58705 0-1.0597-0.4726-1.0597-1.0597v-1.0597a2.8257 2.8257 0 0 0-2.8257-2.8257 2.8257 2.8257 0 0 0-2.8257 2.8257 2.8257 2.8257 0 0 0 2.8257 2.8257 2.8257 2.8257 0 0 0 2.2423-1.1175 1.759 1.759 0 0 0 1.6432 1.1175c0.97844 0 1.7661-0.78768 1.7661-1.7661v-1.0597c0-3.1168-2.5347-5.6515-5.6515-5.6515m0 3.5322a2.1193 2.1193 0 0 1 2.1193 2.1193 2.1193 2.1193 0 0 1-2.1193 2.1193 2.1193 2.1193 0 0 1-2.1193-2.1193 2.1193 2.1193 0 0 1 2.1193-2.1193" style="fill:#ffffff;stroke-width:.70644"/>
 <defs>
  <linearGradient id="a" x1=".05" x2="1" y2="1" gradientTransform="matrix(22 0 0 22 -.10264 0)" gradientUnits="userSpaceOnUse">
   <stop stop-color="#15587a" offset=".2327"/>
   <stop stop-color="#186d98" offset=".23452"/>
   <stop stop-color="#0854b2" offset="1"/>
  </linearGradient>
 </defs>
</svg>
