<svg width="24" height="24" version="1" xmlns="http://www.w3.org/2000/svg">
 <defs>
  <linearGradient id="a">
   <stop style="stop-color:#c55d51" offset="0"/>
   <stop style="stop-color:#c54b47" offset="1"/>
  </linearGradient>
 </defs>
 <rect x=".89736" y="1" width="22" height="22" rx="9.106" fill="url(#a)" opacity=".9" stroke="#808080" stroke-opacity=".2" vector-effect="non-scaling-stroke" style="-inkscape-stroke:hairline;fill:url(#a);opacity:1"/>
 <path d="m11.995 1.1908-0.0904 0.00197v3.1818h-8.9323a7.3699 7.3699 0 0 0-0.64855 1.0387h3.3528v4.1497h-4.4701q-0.056011 0.51786-0.082543 1.0387h10.781v4.1517h-10.656q0.068786 0.52081 0.16509 1.0377h4.2627v4.1517h-2.435q0.50017 0.57976 1.1222 1.0387h7.5409v1.8228a21.618 21.618 0 0 0 1.0121-0.02653h0.02653v-1.7963h6.515a6.682 6.682 0 0 0 1.1133-1.0387h-13.855v-4.1517h15.699q0.07959-0.41075 0.13069-0.82838c0.0079-0.06977 0.01179-0.13954 0.01965-0.2093h-9.6212v-4.1517h9.7342c-0.0079-0.16017-0.01081-0.32133-0.02162-0.4815a13.757 13.757 0 0 0-0.04422-0.55716h-3.4422v-4.1497h2.3289a7.1734 7.1734 0 0 0-0.65346-1.0387h-7.9015v-3.1641a27.514 27.514 0 0 0-0.94826-0.019653zm-5.2798 4.2225h11.417v4.1497h-11.418v-4.1497z" style="fill:#a33b38;paint-order:stroke fill markers;stroke-width:.51893"/>
 <path d="m14.818 9.93c-0.07133 2.9527-1.0047 5.5397-2.8 7.761-0.07-0.87333-0.34067-1.7477-0.812-2.623-0.047 0.662-0.316 1.542-0.799 2.641-0.484 1.0973-0.78466 1.894-0.902 2.39-0.218 1.049-0.16827 2.0837 0.18573 2.9157 0.97333 0.08533 2.2364 0.03014 3.2184-0.02186 2.1869 0.06043 3.0652-0.12978 4.5777-0.75214 1.906-0.69733 3.6409-2.4928 4.4916-4.3361 0.41677-0.95948 0.20135-0.38128 0.31121-0.84311-0.22742-0.45346-0.67281-1.1807-0.95162-1.6045-0.378-0.56667-0.72033-1.0153-1.027-1.346-0.30667-0.33-0.55467-0.56633-0.744-0.709 0.16533 0.44933 0.224 0.93367 0.176 1.453-0.046 0.52-0.16333 0.99267-0.352 1.418-0.08034-0.74024-0.29127-1.4604-0.623-2.127-0.342-0.708-0.70767-1.2923-1.097-1.753-0.40968-0.48083-0.86001-0.92547-1.346-1.329-0.3373-0.29092-0.6859-0.56846-1.045-0.832-0.15022-0.10533-0.30362-0.20604-0.46-0.302h-3e-3z" style="fill:#ffd33f;isolation:auto;mix-blend-mode:normal;stroke-width:.42098"/>
 <path d="m16.318 14.54c0.136 0.6 0.06033 1.5913-0.227 2.974-0.28733 1.382-0.74567 2.4287-1.375 3.14 0.11-0.87533 0.13733-1.5867 0.082-2.134-0.05467-0.54667-0.13667-0.95767-0.246-1.233l-0.205-0.369c-0.164 0.98467-0.588 1.9697-1.272 2.955-0.356 0.52-0.62267 0.99933-0.8 1.438-0.178 0.436-0.24667 0.996-0.206 1.68 0.19267-0.0053 0.38533-0.01267 0.578-0.022 2.1072 0.06606 3.866-0.01969 5.1499-0.89586 1.047-0.42609 1.2305-0.65155 2.06-1.2726-0.05149-0.46125-0.18293-0.98987-0.29791-1.4395-0.54667-2.0933-1.6273-3.7007-3.242-4.822z" style="fill:#fff3cb;isolation:auto;mix-blend-mode:normal;stroke-width:.33809"/>
</svg>
