<svg width="24" height="24" version="1.1" viewBox="0 0 6.35 6.35" xmlns="http://www.w3.org/2000/svg">
 <defs>
  <clipPath id="b">
   <path d="M0 0h19v19H0Z"/>
  </clipPath>
  <clipPath id="c">
   <path d="M0 0h19v19H0Z"/>
  </clipPath>
  <radialGradient id="a" cx="0" cy="0" r="1" gradientTransform="rotate(90 9.63 9.895)scale(5.82072)" gradientUnits="userSpaceOnUse">
   <stop style="stop-color:#c3defd" offset="0"/>
   <stop style="stop-color:#549bff" offset="1"/>
  </radialGradient>
 </defs>
 <path transform="translate(-16.35)" d="M18.888.295a.3.3 0 0 0 .091-.012q.57-.037 1.14.002a3.6 3.6 0 0 1 1 .225q.804.33 1.101 1.148.169.492.2 1.011.042.653-.03 1.304a3.2 3.2 0 0 1-.237.878q-.338.731-1.094 1.008a4.1 4.1 0 0 1-1.262.218 5.6 5.6 0 0 1-1.442-.109q-1.314-.292-1.62-1.602a5 5 0 0 1-.12-1.194 5 5 0 0 1 .137-1.266Q17.074.682 18.307.389q.287-.071.581-.094" style="fill-rule:evenodd;fill:url(#a)"/>
 <path transform="scale(.35277)" d="M9.07.75q-.808 0-1.617.051a1 1 0 0 1-.258.035 10 10 0 0 0-1.648.266q-3.492.831-4.406 4.3a14 14 0 0 0-.336 2.043 12.03 12.03 0 0 0 10.945 7.086 12.1 12.1 0 0 0 4.793-1.019 9 9 0 0 0 .578-2.25q.204-1.845.086-3.696a10.8 10.8 0 0 0-.566-2.867q-.843-2.315-3.121-3.254a10.3 10.3 0 0 0-2.836-.636A24 24 0 0 0 9.07.75" clip-path="url(#b)" opacity=".1" style="fill:#00f"/>
 <path transform="scale(.35277)" d="M9.07.75q-.808 0-1.617.051a1 1 0 0 1-.258.035 10 10 0 0 0-1.648.266q-3.492.831-4.406 4.3a14 14 0 0 0-.387 3.59q-.034 1.712.336 3.383c.578 2.477 2.113 3.992 4.594 4.543q1.745.357 3.519.328a13.74 13.74 0 0 0 8.004-6.996q.088-1.336 0-2.684a10.8 10.8 0 0 0-.566-2.867q-.843-2.316-3.121-3.254a10.3 10.3 0 0 0-2.836-.636A24 24 0 0 0 9.07.75" clip-path="url(#c)" opacity=".1" style="fill:#00f"/>
 <path class="ColorScheme-Text" d="m3.175 1.4628c-0.18747-2e-7 -0.33945 0.15198-0.33945 0.33945 0 0.18747 0.15198 0.33945 0.33945 0.33945 0.18747 0 0.33945-0.15198 0.33945-0.33945 0-0.18747-0.15198-0.33945-0.33945-0.33945m-1.6972 1.0183v0.33945h1.3578v0.33945l-0.43958 1.6396 0.32824 0.087579 0.37203-1.3876h0.15751l0.37203 1.3876 0.32824-0.087579-0.43958-1.6396v-0.33945h1.3578v-0.33945z" style="fill:#ffffff;opacity:.9;stroke-width:.33945"/>
</svg>
