<svg width="24" height="24" fill="none" version="1.1" xmlns="http://www.w3.org/2000/svg">
 <rect x=".89736" y="1" width="22" height="22" rx="9.106" fill="url(#a)" opacity=".9" stroke="#808080" stroke-opacity=".2" vector-effect="non-scaling-stroke" style="-inkscape-stroke:hairline;fill:url(#a)"/>
 <path class="ColorScheme-Highlight" d="m3.5427 20.027c0.90643 1.749 4.0436 2.9004 5.8177 2.9004h4.9466c1.7742 0 5.1166-1.2025 6.023-2.9515z" color="#3584e4" fill="#ffffff" opacity=".5" vector-effect="non-scaling-stroke" style="stroke-width:.88562"/>
 <g fill="#000" stroke-width="1.4084">
  <rect x="5.9816" y="2.01" width="1.4885" height=".74578" ry=".37389" opacity=".35" style="paint-order:stroke markers fill"/>
  <rect x="10.135" y="2.01" width="3.7222" height=".74578" ry=".37389" opacity=".35" style="paint-order:stroke markers fill"/>
  <rect x="17.255" y="2.01" width=".74424" height=".74578" ry=".37389" opacity=".35" style="paint-order:stroke markers fill"/>
  <rect x="15.767" y="2.01" width="1.1174" height=".74578" ry=".37389" opacity=".35" style="paint-order:stroke markers fill"/>
  <rect x="14.649" y="2.01" width=".74424" height=".74578" ry=".37389" opacity=".35" style="paint-order:stroke markers fill"/>
 </g>
 <g transform="matrix(.36826 0 0 .36902 .21878 1.2442)" fill="#ccdfff" stroke-width="3.78">
  <rect x="17.001" y="48.001" width="5" height="5" ry=".499" style="paint-order:stroke markers fill"/>
  <rect x="25.335" y="48.001" width="5" height="5" ry=".499" style="paint-order:stroke markers fill"/>
  <rect x="33.669" y="48.001" width="5" height="5" ry=".499" style="paint-order:stroke markers fill"/>
  <rect x="42.003" y="48.001" width="5" height="5" ry=".499" style="paint-order:stroke markers fill"/>
 </g>
 <path class="ColorScheme-Highlight" d="m10.246 0.91846c-2.0783-0.030024-5.4513 1.2309-6.6334 2.7452l16.597-0.051076c-1.1821-1.5141-4.2982-2.6123-6.3764-2.6423z" color="#3584e4" fill="#aaaaaa" opacity=".3" vector-effect="non-scaling-stroke"/>
 <defs>
  <linearGradient id="a" x1=".05" x2="1" y2="1" gradientTransform="matrix(22 0 0 22 -.10264 0)" gradientUnits="userSpaceOnUse">
   <stop style="stop-color:#1f78a9" offset="0"/>
   <stop style="stop-color:#0c5186" offset="1"/>
  </linearGradient>
 </defs>
</svg>
