<svg width="24" height="24" fill="none" version="1.1" xmlns="http://www.w3.org/2000/svg" xmlns:xlink="http://www.w3.org/1999/xlink">
 <rect x=".89736" y="1" width="22" height="22" rx="9.106" fill="url(#a)" opacity=".9" stroke="#808080" stroke-opacity=".2" vector-effect="non-scaling-stroke" style="-inkscape-stroke:hairline;fill:url(#a)"/>
 <defs>
  <linearGradient id="a" x1=".05" x2="1" y2="1" gradientTransform="matrix(22 0 0 22 -.10264 0)" gradientUnits="userSpaceOnUse">
   <stop style="stop-color:#00576b" offset=".22865"/>
   <stop style="stop-color:#136c7e" offset=".23063"/>
   <stop style="stop-color:#00505b" offset="1"/>
  </linearGradient>
  <linearGradient id="linearGradient13" x1="12.88" x2="17.745" y1="6.2379" y2="11.226" gradientTransform="matrix(1.0609 0 0 1.0609 -.73114 -.73114)" gradientUnits="userSpaceOnUse">
   <stop style="stop-color:#397ce1" offset=".18739"/>
   <stop style="stop-color:#5a92e8" offset=".19552"/>
   <stop style="stop-color:#216aee" offset="1"/>
  </linearGradient>
  <linearGradient id="linearGradient14" x1="12.88" x2="17.745" y1="6.2379" y2="11.226" gradientTransform="matrix(1.0609 0 0 1.0609 -7.6326 -.73114)" gradientUnits="userSpaceOnUse">
   <stop style="stop-color:#bb6215" offset=".18739"/>
   <stop style="stop-color:#e07d3a" offset=".19552"/>
   <stop style="stop-color:#ba5c00" offset="1"/>
  </linearGradient>
  <linearGradient id="linearGradient18" x1="12.88" x2="17.745" y1="6.2379" y2="11.226" gradientTransform="matrix(1.0609 0 0 1.0609 -7.6467 6.186)" gradientUnits="userSpaceOnUse">
   <stop style="stop-color:#9915bb" offset=".18739"/>
   <stop style="stop-color:#bc3ae0" offset=".19552"/>
   <stop style="stop-color:#7000ba" offset="1"/>
  </linearGradient>
  <linearGradient id="linearGradient21" x1="12.88" x2="17.745" y1="6.2379" y2="11.226" gradientTransform="matrix(1.0609 0 0 1.0609 -.70593 6.2243)" gradientUnits="userSpaceOnUse">
   <stop style="stop-color:#009328" offset=".18739"/>
   <stop style="stop-color:#17ba0d" offset=".19552"/>
   <stop style="stop-color:#0a6200" offset="1"/>
  </linearGradient>
 </defs>
 <g transform="matrix(1.0515 0 0 1.0515 -.61879 -.61879)">
  <rect x="12.779" y="5.8361" width="5.3535" height="5.3928" rx="2.3933" ry="2.2838" style="fill:url(#linearGradient13);paint-order:stroke fill markers;stroke-linecap:round;stroke-opacity:.11777;stroke-width:.26946;stroke:#000000"/>
  <rect x="5.8772" y="5.8361" width="5.3535" height="5.3928" rx="2.3933" ry="2.2838" style="fill:url(#linearGradient14);paint-order:stroke fill markers;stroke-linecap:round;stroke-opacity:.12417;stroke-width:.26946;stroke:#000000"/>
  <rect x="5.8631" y="12.753" width="5.3535" height="5.3928" rx="2.3933" ry="2.2838" style="fill:url(#linearGradient18);paint-order:stroke fill markers;stroke-linecap:round;stroke-opacity:.11988;stroke-width:.26946;stroke:#000000"/>
  <rect x="12.804" y="12.792" width="5.3535" height="5.3928" rx="2.3933" ry="2.2838" style="fill:url(#linearGradient21);paint-order:stroke fill markers;stroke-linecap:round;stroke-opacity:.12096;stroke-width:.26946;stroke:#000000"/>
  <path transform="matrix(1.4195 .81267 -.81267 1.4195 1.7647 -15.06)" d="m15.297 8.7556-0.60087 0.028702-0.317 0.51125-0.21298-0.56259-0.58419-0.1435 0.46924-0.3764-0.04405-0.59994 0.50298 0.32996 0.55696-0.22729-0.15838 0.58033z" style="fill:#ffffff;paint-order:stroke fill markers;stroke-linecap:round;stroke-opacity:.12417;stroke-width:.254;stroke:#ffffff"/>
  <path transform="matrix(.87561 .37613 -.37613 .87561 10.073 -.76949)" d="m13.309 14.394-1.5615 0.70358-1.1517-1.2677 0.84976-1.4871 1.6769 0.34864z" style="fill:#ffffff;paint-order:stroke fill markers;stroke-linecap:round;stroke-opacity:.12417;stroke-width:.254;stroke:#000000"/>
  <rect x="7.0956" y="14.196" width="2.8864" height="2.6374" rx="10.389" ry="1.3187" style="fill:#ffffff;paint-order:stroke fill markers;stroke-linecap:round;stroke-opacity:.12417;stroke-width:.30969;stroke:#ffffff"/>
  <path transform="translate(.86785 1.2651)" d="m8.8996 8.5389-2.6476 0.12812 2.5526-2.9075z" style="fill:#ffffff;paint-order:stroke fill markers;stroke-linecap:round;stroke-opacity:.12417;stroke-width:.254;stroke:#ffffff"/>
 </g>
</svg>
