<svg width="24" height="24" fill="none" version="1.1" xmlns="http://www.w3.org/2000/svg">
 <rect x=".89736" y="1" width="22" height="22" rx="9.106" fill="url(#a)" opacity=".9" stroke="#808080" stroke-opacity=".2" vector-effect="non-scaling-stroke" style="-inkscape-stroke:hairline;fill:url(#a)"/>
 <g transform="matrix(.64391 0 0 .64391 4.9169 5.5605)" fill="currentColor" style="fill:#ffffff">
  <path d="m11 0.98761c-3.1205 0-5.6327 2.5122-5.6327 5.6327v4.3193h1.1265v-4.3193c0-2.4964 2.0097-4.5062 4.5062-4.5062 2.4964 0 4.5062 2.0097 4.5062 4.5062v4.3193h1.1265v-4.3193c0-3.1205-2.5122-5.6327-5.6327-5.6327" style="fill:#dedede;stroke-width:1.1265"/>
  <path d="m6.4941 9.9982c-1.2482 0-2.2529 1.0084-2.2529 2.2566v4.5059c0 1.2482 1.0047 2.2529 2.2529 2.2529h9.0118c1.2482 0 2.2529-1.0047 2.2529-2.2529v-4.5059c0-1.2482-1.0047-2.2566-2.2529-2.2566z" style="fill:url(#linearGradient10);stroke-width:1.1265"/>
 </g>
 <defs>
  <linearGradient id="a" x1=".05" x2="1" y2="1" gradientTransform="matrix(22 0 0 22 -.10264 0)" gradientUnits="userSpaceOnUse">
   <stop stop-color="#91193f" offset=".2327"/>
   <stop stop-color="#a6354c" offset=".23452"/>
   <stop stop-color="#9d1c40" offset="1"/>
  </linearGradient>
  <linearGradient id="linearGradient10" x1="5.238" x2="17.06" y1="10.365" y2="17.933" gradientTransform="matrix(1.1265,0,0,1.1265,-1.3919,-1.2655)" gradientUnits="userSpaceOnUse">
   <stop style="stop-color:#ffed7b" offset="0"/>
   <stop style="stop-color:#cfb800" offset="1"/>
  </linearGradient>
 </defs>
</svg>
