<svg width="24" height="24" fill="none" version="1.1" xmlns="http://www.w3.org/2000/svg">
 <rect x=".89736" y="1" width="22" height="22" rx="9.106" fill="url(#a)" opacity=".9" stroke="#808080" stroke-opacity=".2" vector-effect="non-scaling-stroke" style="-inkscape-stroke:hairline;fill:url(#a)"/>
 <g transform="matrix(.71249 0 0 .71249 4.1626 4.5189)" style="fill:#ffffff">
  <path d="m4 5c-0.554 0-1 0.446-1 1v9c0 0.554 0.446 1 1 1h14c0.554 0 1-0.446 1-1v-9c0-0.554-0.446-1-1-1zm0 1h14v9h-14zm1 2v1h1v-1zm2 0v1h1v-1zm2 0v1h1v-1zm2 0v1h1v-1zm2 0v1h1v-1zm2 0v1h2v-1zm-10 2v1h2v-1zm3 0v1h1v-1zm2 0v1h1v-1zm2 0v1h1v-1zm2 0v1h3v-1zm-9 2v1h2v-1zm3 0v1h6v-1zm7 0v1h2v-1z"/>
 </g>
 <defs>
  <linearGradient id="a" x1=".05" x2="1" y2="1" gradientTransform="matrix(22 0 0 22 -.10264 0)" gradientUnits="userSpaceOnUse">
   <stop style="stop-color:#454545" offset=".22865"/>
   <stop style="stop-color:#575757" offset=".23063"/>
   <stop style="stop-color:#444444" offset="1"/>
  </linearGradient>
 </defs>
</svg>
