<svg width="24" height="24" fill="none" version="1.1" xmlns="http://www.w3.org/2000/svg">
 <rect x=".89736" y="1" width="22" height="22" rx="9.106" fill="url(#a)" opacity=".9" stroke="#808080" stroke-opacity=".2" vector-effect="non-scaling-stroke" style="-inkscape-stroke:hairline;fill:url(#a)"/>
 <g transform="matrix(.62215 0 0 .62215 5.4674 5.1563)" style="fill:#ffffff">
  <path d="m2 15h17v3h-17z" opacity=".15"/>
  <path d="m3 3c-1.108 0-2 0.892-2 2v12c0 1.108 0.892 2 2 2h15c1.108 0 2-0.892 2-2v-12c0-1.108-0.892-2-2-2zm0 1h15c0.554 0 1 0.446 1 1v9h-17v-9c0-0.554 0.446-1 1-1m-1 11h8v3h-7c-0.554 0-1-0.446-1-1zm9 0h8v2c0 0.554-0.446 1-1 1h-7z"/>
 </g>
 <defs>
  <linearGradient id="a" x1=".05" x2="1" y2="1" gradientTransform="matrix(22 0 0 22 -.10264 0)" gradientUnits="userSpaceOnUse">
   <stop style="stop-color:#454545" offset=".22865"/>
   <stop style="stop-color:#575757" offset=".23063"/>
   <stop style="stop-color:#444444" offset="1"/>
  </linearGradient>
 </defs>
</svg>
