<svg width="24" height="24" fill="none" version="1.1" xmlns="http://www.w3.org/2000/svg">
 <rect x=".89736" y="1" width="22" height="22" rx="9.106" fill="url(#a)" opacity=".9" stroke="#808080" stroke-opacity=".2" vector-effect="non-scaling-stroke" style="-inkscape-stroke:hairline;fill:url(#a)"/>
 <g transform="matrix(.63445 0 0 .63445 5.0211 4.7038)" style="fill:#ffffff">
  <path class="ColorScheme-Text" d="m6.5 18h9a0.5 0.5 0 1 1 0 1h-9a0.5 0.5 0 1 1 0-1m-2.5-14c-1.108 0-2 0.892-2 2v9c0 1.108 0.892 2 2 2h14c1.108 0 2-0.892 2-2v-9c0-1.108-0.892-2-2-2zm0 1h14c0.554 0 1 0.446 1 1v9c0 0.554-0.446 1-1 1h-14c-0.554 0-1-0.446-1-1v-9c0-0.554 0.446-1 1-1" fill="currentColor" style="fill:#ffffff"/>
  <path class="ColorScheme-Text" d="m7.747 11.796-0.31047 0.52921-1.2207-0.70562q-0.12701-0.07761-0.2258-0.15523-0.098785-0.07761-0.17641-0.19758 0.1129 0.23285 0.1129 0.5151v1.397h-0.62094v-1.3901q0-0.14112 0.014112-0.26108 0.021169-0.11995 0.077618-0.23285-0.077618 0.09878-0.16935 0.17641-0.091731 0.07761-0.21169 0.14817l-1.2137 0.69857-0.31047-0.52921 1.2137-0.70562q0.26813-0.1623 0.53627-0.16935-0.14112-0.01411-0.27519-0.04939-0.12701-0.04233-0.26108-0.12701l-1.2207-0.71268 0.31047-0.52921 1.2207 0.70562q0.12701 0.07762 0.2258 0.1623 0.098784 0.08468 0.17641 0.20463-0.1129-0.24697-0.1129-0.52921v-1.397h0.62094v1.3901q0 0.14112-0.021169 0.26813-0.014112 0.11995-0.070562 0.23285 0.077618-0.09878 0.16935-0.17641 0.091731-0.07762 0.21169-0.15523l1.2137-0.69857 0.31047 0.52921-1.2137 0.70562q-0.11995 0.07763-0.23991 0.11995-0.11995 0.04235-0.25402 0.05646 0.13406 0.01411 0.25402 0.05646 0.11995 0.03528 0.23991 0.1129z" style="fill:#ffffff;stroke-width:1.3633"/>
  <path class="ColorScheme-Text" d="m13.138 11.733-0.31047 0.52921-1.2207-0.70562q-0.12701-0.07761-0.2258-0.15523-0.09878-0.07762-0.17641-0.19758 0.1129 0.23285 0.1129 0.5151v1.397h-0.62094v-1.3901q0-0.14112 0.01411-0.26108 0.02117-0.11995 0.07762-0.23285-0.07762 0.09878-0.16935 0.17641-0.09173 0.07761-0.21169 0.14817l-1.2137 0.69857-0.31047-0.52921 1.2137-0.70562q0.26813-0.1623 0.53627-0.16935-0.14112-0.01411-0.27519-0.04939-0.12701-0.04233-0.26108-0.12701l-1.2207-0.71268 0.31047-0.52922 1.2207 0.70562q0.12701 0.07761 0.2258 0.1623 0.09878 0.08468 0.17641 0.20463-0.1129-0.24697-0.1129-0.52921v-1.397h0.62094v1.3901q0 0.14112-0.02117 0.26813-0.01411 0.11995-0.07057 0.23285 0.07761-0.09878 0.16935-0.17641 0.09173-0.07763 0.21169-0.15523l1.2137-0.69857 0.31047 0.52922-1.2137 0.70562q-0.11995 0.07763-0.23991 0.11995-0.11995 0.04234-0.25402 0.05646 0.13406 0.01411 0.25402 0.05646 0.11995 0.03528 0.23991 0.1129z" style="fill:#ffffff;stroke-width:1.3633"/>
  <path class="ColorScheme-Text" d="m18.464 11.733-0.31047 0.52921-1.2207-0.70562q-0.12701-0.07761-0.2258-0.15523-0.09878-0.07762-0.17641-0.19758 0.1129 0.23285 0.1129 0.5151v1.397h-0.62094v-1.3901q0-0.14112 0.01411-0.26108 0.02117-0.11995 0.07763-0.23285-0.07763 0.09878-0.16935 0.17641-0.09173 0.07761-0.21169 0.14817l-1.2137 0.69857-0.31047-0.52921 1.2137-0.70562q0.26813-0.1623 0.53627-0.16935-0.14112-0.01411-0.27519-0.04939-0.12701-0.04233-0.26108-0.12701l-1.2208-0.71268 0.31047-0.52922 1.2207 0.70562q0.12701 0.07761 0.2258 0.1623 0.09879 0.08468 0.17641 0.20463-0.1129-0.24697-0.1129-0.52921v-1.397h0.62094v1.3901q0 0.14112-0.02117 0.26813-0.01411 0.11995-0.07057 0.23285 0.07762-0.09878 0.16935-0.17641t0.21169-0.15523l1.2137-0.69857 0.31047 0.52922-1.2137 0.70562q-0.11995 0.07763-0.23991 0.11995-0.11995 0.04234-0.25402 0.05646 0.13406 0.01411 0.25402 0.05646 0.11995 0.03528 0.23991 0.1129z" style="fill:#ffffff;stroke-width:1.3633"/>
 </g>
 <defs>
  <linearGradient id="a" x1=".05" x2="1" y2="1" gradientTransform="matrix(22 0 0 22 -.10264 0)" gradientUnits="userSpaceOnUse">
   <stop stop-color="#184457" offset=".2327"/>
   <stop stop-color="#376072" offset=".23452"/>
   <stop stop-color="#18485a" offset="1"/>
  </linearGradient>
 </defs>
</svg>
