<svg width="24" height="24" fill="none" version="1.1" xmlns="http://www.w3.org/2000/svg">
 <rect x=".89736" y="1" width="22" height="22" rx="9.106" fill="url(#a)" opacity=".9" stroke="#808080" stroke-opacity=".2" vector-effect="non-scaling-stroke" style="-inkscape-stroke:hairline;fill:url(#a)"/>
 <g transform="matrix(.64861 0 0 .64861 4.8653 4.8653)" fill="currentColor" style="fill:#ffffff">
  <path class="ColorScheme-Text" d="m11 4a1 1 0 0 0-0.11 8e-3c-1.603 2e-3 -2.95 0.042-4.105 0.281-0.59 0.122-1.183 0.3-1.742 0.647-0.602 0.372-1.14 0.953-1.387 1.742-0.764 2.434-1.656 4.742-1.656 7.656 0 2.122 1.884 3.666 3.953 3.666 1.784 0 3.01-1.161 3.7-2.455 0.225-0.411 0.46-0.9 0.558-0.924 0.258-0.035 0.528-0.087 0.766-0.084h0.046c0.238-3e-3 0.508 0.049 0.766 0.084 0.096 0.035 0.341 0.548 0.56 0.926 0.691 1.293 1.916 2.453 3.699 2.453 2.069 0 3.952-1.544 3.952-3.666 0-2.913-0.892-5.222-1.656-7.656-0.248-0.79-0.785-1.368-1.387-1.74v-2e-3c-0.56-0.346-1.152-0.525-1.742-0.647h-2e-3c-1.186-0.245-2.55-0.289-4.213-0.289m0 1c1.642 0 2.957 0.05 4.012 0.268 0.527 0.108 0.997 0.258 1.42 0.52 0.422 0.26 0.798 0.678 0.959 1.189 0.775 2.47 1.609 4.65 1.609 7.357 0 1.53-1.358 2.666-2.953 2.666-1.554 0-2.678-1.12-3.129-2.312l0.023 0.056-0.472-1.05a7.2 7.2 0 0 0-1.457-0.157h-0.024a7.3 7.3 0 0 0-1.457 0.156l-0.472 1.051 0.023-0.056c-0.45 1.192-1.575 2.312-3.129 2.312-1.595 0-2.953-1.136-2.953-2.666 0-2.707 0.834-4.888 1.61-7.357 0.16-0.511 0.536-0.929 0.958-1.19 0.423-0.26 0.893-0.41 1.42-0.52 1.055-0.217 2.37-0.267 4.012-0.267" style="fill:#ffffff"/>
  <path class="ColorScheme-Text" d="m8.5 7c-0.277 0-0.5 0.223-0.5 0.5v1.5h-1.5a0.5 0.5 0 1 0 0 1h1.5v1.5a0.5 0.5 0 1 0 1 0v-1.5h1.5a0.5 0.5 0 1 0 0-1h-1.5v-1.5c0-0.277-0.223-0.5-0.5-0.5m6.5 1a1 1 0 0 0-1 1 1 1 0 0 0 1 1 1 1 0 0 0 1-1 1 1 0 0 0-1-1m-2 2a1 1 0 0 0-1 1 1 1 0 0 0 1 1 1 1 0 0 0 1-1 1 1 0 0 0-1-1" style="fill:#ffffff"/>
 </g>
 <defs>
  <linearGradient id="a" x1=".05" x2="1" y2="1" gradientTransform="matrix(22 0 0 22 -.10264 0)" gradientUnits="userSpaceOnUse">
   <stop style="stop-color:#454545" offset=".22865"/>
   <stop style="stop-color:#575757" offset=".23063"/>
   <stop style="stop-color:#444444" offset="1"/>
  </linearGradient>
 </defs>
</svg>
