<svg width="24" height="24" fill="none" version="1.1" xmlns="http://www.w3.org/2000/svg">
 <rect x=".89736" y="1" width="22" height="22" rx="9.106" fill="url(#a)" opacity=".9" stroke="#808080" stroke-opacity=".2" vector-effect="non-scaling-stroke" style="-inkscape-stroke:hairline;fill:url(#a)"/>
 <g transform="matrix(.70605 0 0 .70605 3.4156 4.2335)" fill="currentColor">
  <path class="ColorScheme-Text" d="m7 13.664c-4 1.072-1 3.604-4 5.336 4.003 0 6-2 6-3.336 0-0.665 0.068-1.89-2-2" style="fill:#b8b8b8"/>
  <path class="ColorScheme-Text" d="m16.5 11c-0.486 1.703-1.676 3.166-2.201 4.338-0.19252 0.35732-0.29514 0.75614-0.299 1.162 0 1.385 1.115 2.5 2.5 2.5s2.5-1.115 2.5-2.5c0-0.423-0.113-0.814-0.297-1.162-0.525-1.172-1.717-2.635-2.203-4.338m1.143 3.859c0.518 0.361 0.857 0.959 0.857 1.641 0 1.108-0.892 2-2 2-0.65431 0.0013-1.2675-0.31909-1.64-0.857 0.33476 0.23236 0.7325 0.35692 1.14 0.357 1.108 0 2-0.892 2-2-8.5e-5 -0.4075-0.12464-0.80524-0.357-1.14" style="fill:#00ffff"/>
  <path class="ColorScheme-Text" d="m18.514 3.008c-1.2037-0.15338-4.3476 1.9987-7.446 5.097-1.3815 1.3821-2.6252 2.8261-3.543 4.114 1.0749 0.34106 1.9169 1.1831 2.258 2.258 1.2878-0.91819 2.7315-2.1618 4.113-3.543 3.5144-3.5144 5.7304-6.9965 4.95-7.778-0.08033-0.080538-0.1914-0.13005-0.332-0.148" style="fill:#e6a67c"/>
 </g>
 <defs>
  <linearGradient id="a" x1=".05" x2="1" y2="1" gradientTransform="matrix(22 0 0 22 -.10264 0)" gradientUnits="userSpaceOnUse">
   <stop style="stop-color:#725511" offset=".2327"/>
   <stop style="stop-color:#706b04" offset=".23452"/>
   <stop style="stop-color:#7b5b06" offset="1"/>
  </linearGradient>
 </defs>
</svg>
