<svg width="24" height="24" fill="none" version="1.1" xmlns="http://www.w3.org/2000/svg">
 <rect x=".89736" y="1" width="22" height="22" rx="9.106" fill="url(#a)" opacity=".9" stroke="#808080" stroke-opacity=".2" vector-effect="non-scaling-stroke" style="-inkscape-stroke:hairline;fill:url(#a)"/>
 <g transform="matrix(.58422 0 0 .58422 5.5736 5.8657)" fill="currentColor" style="fill:#ffffff">
  <path class="ColorScheme-Text" d="m8 1c-1.108 0-2 0.892-2 2v2h1v-2c0-0.554 0.446-1 1-1h6a0.995 0.995 0 0 1 1 1v2h1v-2c0-1.108-0.892-2-2-2zm0 12h6v1h-6zm0 3h6v1h-6z" style="fill:#ffffff"/>
  <path class="ColorScheme-Text" d="m5 4c-1.662 0-3 1.338-3 3v6c0 1.662 1.338 3 3 3h1v-1h-1c-1.108 0-2-0.892-2-2v-6c0-1.108 0.892-2 2-2h12c1.108 0 2 0.892 2 2v6c0 1.108-0.892 2-2 2h-1v1h1c1.662 0 3-1.338 3-3v-6c0-1.662-1.338-3-3-3z" style="fill:#ffffff"/>
  <path class="ColorScheme-Text" d="m8 10c-1.108 0-2 0.892-2 2v6c0 1.108 0.892 2 2 2h6c1.108 0 2-0.892 2-2v-6c0-1.108-0.892-2-2-2zm0 1h6c0.554 0 1 0.446 1 1v6c0 0.554-0.446 1-1 1h-6c-0.554 0-1-0.446-1-1v-6c0-0.554 0.446-1 1-1m8-4h1v1h-1z" style="fill:#ffffff"/>
 </g>
 <defs>
  <linearGradient id="a" x1=".05" x2="1" y2="1" gradientTransform="matrix(22 0 0 22 -.10264 0)" gradientUnits="userSpaceOnUse">
   <stop style="stop-color:#244c67" offset=".2327"/>
   <stop style="stop-color:#2a6a8b" offset=".23452"/>
   <stop style="stop-color:#254f63" offset="1"/>
  </linearGradient>
 </defs>
</svg>
