<svg width="24" height="24" fill="none" version="1.1" xmlns="http://www.w3.org/2000/svg" xmlns:xlink="http://www.w3.org/1999/xlink">
 <rect x=".89736" y="1" width="22" height="22" rx="9.106" fill="url(#a)" opacity=".9" stroke="#808080" stroke-opacity=".2" vector-effect="non-scaling-stroke" style="-inkscape-stroke:hairline;fill:url(#a)"/>
 <g transform="matrix(.73041 0 0 .73041 5.3275 5.4366)">
  <path d="m16.178 11.754-3.782 10.986h1.498l1.91-5.602h1.036l-1.885 5.602h1.506l1.781-5.215c0.04516-0.133 0.07142-0.27169 0.078-0.412 0.0025-0.1661-0.0295-0.33091-0.094-0.484-0.08385-0.17784-0.22081-0.32529-0.392-0.422-0.07275-0.0387-0.15-0.06826-0.23-0.088-0.08752-0.02239-0.17768-0.03282-0.268-0.031h-1.166l1.59-4.545-0.246 0.017c-0.18377 8e-3 -0.36722 0.02235-0.55 0.043-0.16758 0.0247-0.33433 0.05471-0.5 0.09-0.09569 0.01826-0.19104 0.03826-0.286 0.06m6.442 4.331-2.766 4e-3 -2.084 6.068-0.03859 0.25157c0.63205-0.22888 1.2965-0.80217 1.8466-1.1886l1.404-4.086h1.127l-0.785 2.287c0.22667-0.33667 0.82165-0.97632 1.0017-1.3637 0.3448-0.72867 0.67201-1.2656 0.9103-1.9703z" style="fill:#ffffff;stroke-width:1.0853"/>
 </g>
 <g transform="matrix(.62632 0 0 .62632 7.0733 6.9883)" style="opacity:.9">
  <path d="m1.344 3e-3a0.5 0.5 0 0 0-0.313 0.656l1.97 5.875-1 6.406v3.063h12v-3.062l-1-6.438 1.718-5.875a0.5 0.5 0 0 0-0.469-0.625h-12.75a0.5 0.5 0 0 0-0.094 0zm0.844 1h11.406l-1.469 5h-8.281zm1.75 6h8.125l0.937 6h-10zm-0.938 7h1v1h-1z" style="fill:#ffffff"/>
  <path d="m11.469 10.159-7.188 1.812v0.032h7.438zm-6.656-2.156-0.375 2.875 6.906-1.75-0.156-1.125zm-1.25-6 1 3h6.812l0.875-3z" style="fill:#ffffff"/>
 </g>
 <defs>
  <linearGradient id="a" x1=".05" x2="1" y2="1" gradientTransform="matrix(22 0 0 22 -.10264 0)" gradientUnits="userSpaceOnUse">
   <stop stop-color="#196d9b" offset=".2327"/>
   <stop stop-color="#2191d3" style="stop-color:#1d7db2" offset=".23452"/>
   <stop stop-color="#0948bd" style="stop-color:#096fbd" offset="1"/>
  </linearGradient>
 </defs>
</svg>
