<svg width="24" height="24" fill="none" version="1.1" xmlns="http://www.w3.org/2000/svg">
 <rect x=".89736" y="1" width="22" height="22" rx="9.106" fill="url(#a)" opacity=".9" stroke="#808080" stroke-opacity=".2" vector-effect="non-scaling-stroke" style="-inkscape-stroke:hairline;fill:url(#a)"/>
 <path d="m8.869 5.5-.003.005a7.02 7.02 0 0 0-3.366 5.98 7.015 7.015 0 0 0 7.015 7.015 7.02 7.02 0 0 0 5.985-3.369l-.429-.428a6.43 6.43 0 0 1-3.217.874 6.43 6.43 0 0 1-6.431-6.43 6.43 6.43 0 0 1 .87-3.216l.004-.002zm7.154.139v.584h1.34l-1.17 1.17-.17.17v.414h2.338v-.584h-1.34l1.17-1.17.17-.17v-.414h-.414zm-7.717.994a7 7 0 0 0-.468 2.513 7.015 7.015 0 0 0 7.016 7.016 7 7 0 0 0 2.528-.48 6.43 6.43 0 0 1-4.867 2.233 6.43 6.43 0 0 1-6.43-6.43 6.43 6.43 0 0 1 2.221-4.852m3.04.175v.585h1.34l-1.17 1.169-.17.17v.414h2.338v-.584h-1.34l1.17-1.17.17-.17v-.414h-.414zm3.508 2.923v.585h1.34l-1.17 1.169-.17.17v.414h2.338v-.584h-1.34l1.17-1.17.17-.17v-.414h-.414z" style="fill:#ffffff"/>
 <defs>
  <linearGradient id="a" x1=".05" x2="1" y2="1" gradientTransform="matrix(22 0 0 22 -.10264 0)" gradientUnits="userSpaceOnUse">
   <stop stop-color="#536d78" offset="0"/>
   <stop stop-color="#455A64" offset="1"/>
  </linearGradient>
 </defs>
</svg>
