<svg width="24" height="24" version="1.1" viewBox="0 0 6.35 6.35" xmlns="http://www.w3.org/2000/svg" xmlns:xlink="http://www.w3.org/1999/xlink">
 <path transform="matrix(.37832 0 0 .53367 -.033 -151.09)" d="M3.44 284.366q-1.707.753-2.29 2.321a6.6 6.6 0 0 0-.362 2.374 6.8 6.8 0 0 0 .315 2.235q.55 1.672 2.337 2.459z" clip-path="url(#d)" style="fill:#878787"/>
 <path transform="matrix(.37832 0 0 .53367 -.033 -151.09)" d="M6.326 283.704q-.538.05-1.067.14a7.7 7.7 0 0 0-1.82.522v9.389a8 8 0 0 0 1.947.544q.47.069.94.115z" clip-path="url(#e)" style="fill:#a7a7a7"/>
 <path transform="matrix(.37832 0 0 .53367 -.033 -151.09)" d="M8.543 283.612q-.754-.002-1.507.034a1.2 1.2 0 0 1-.24.023q-.236.013-.47.035v10.71a21 21 0 0 0 2.872.09q.738-.01 1.458-.086V283.7q-.302-.03-.608-.048a32 32 0 0 0-1.505-.039z" clip-path="url(#f)" style="fill:#bbbbbb"/>
 <path transform="matrix(.37832 0 0 .53367 -.033 -151.09)" d="M10.654 283.7v10.718a15 15 0 0 0 1.879-.323q.545-.142 1.009-.347v-9.368a7 7 0 0 0-.85-.309 13 13 0 0 0-2.038-.372z" clip-path="url(#g)" style="fill:#a7a7a7"/>
 <path transform="matrix(.37832 0 0 .53367 -.033 -151.09)" d="M13.542 284.38v9.368q1.233-.546 1.882-1.542.48-.79.627-1.645a10 10 0 0 0 .08-2.443 5.4 5.4 0 0 0-.528-1.895q-.618-1.203-2.061-1.843" clip-path="url(#h)" style="fill:#878787"/>
 <path transform="matrix(.37832 0 0 .53367 -.033 -151.09)" d="M8.543 283.612q-.754-.002-1.507.034a1.2 1.2 0 0 1-.24.023q-.236.013-.47.035v10.71a21 21 0 0 0 2.872.09q.738-.01 1.458-.086V283.7q-.302-.03-.608-.048a32 32 0 0 0-1.505-.039z" clip-path="url(#f)" style="fill:#bbbbbb"/>
</svg>
