<svg width="48" height="48" version="1" xmlns="http://www.w3.org/2000/svg">
 <path d="m5.255 6.1907c-0.43538 0-0.83025 0.15187-1.1477 0.3991l-0.32767 0.3277c-0.2472 0.31755-0.39907 0.71245-0.39907 1.1479v14.19l16.066-16.065z" style="fill:#e53626;stroke-width:.98564"/>
 <path d="m19.446 6.1907-16.066 16.065v14.939l31.003-31.003z" style="fill:#ffae1a;stroke-width:.98564"/>
 <path d="m34.383 6.1907-31.003 31.003v2.7406c0 1.0386 0.83602 1.8746 1.8745 1.8746h8.4481l30.916-30.917v-2.8266c0-1.0386-0.83603-1.8746-1.8745-1.8746z" style="fill:#2dac43;stroke-width:.98564"/>
 <path d="m44.62 10.892-30.916 30.917h14.937l15.979-15.979z" style="fill:#2f66dd;stroke-width:.98564"/>
 <path d="m44.62 25.83-15.979 15.979h14.105c1.0384 0 1.8745-0.8361 1.8745-1.8746z" style="fill:#82248f;stroke-width:.98564"/>
 <path d="m18.456 7.1801-15.076 15.075v0.9894l16.065-16.064h-0.98954zm14.937 0-30.012 30.015v0.9894l31.002-31.004h-0.98954zm11.227 3.7122-30.916 30.917h0.98954l29.927-29.928v-0.9894zm0 14.938-15.978 15.979h0.98954l14.989-14.989v-0.9894z" style="opacity:.1;stroke-width:.98564"/>
 <path d="m14.181 16.085 1.76e-4 1.9261 1.4678 0.12495 0.26331 0.37481-2.6177 12.968-0.40272 0.39052-1.6564 0.12573v1.8995l6.873 1.13e-4 2.25e-4 -1.8994-1.2352-0.10957-0.2788-0.40609 1.0688-5.4924h1.6418l2.3544 4.9976c0.96225 1.9929 1.6373 2.8473 3.7174 2.8737 0.5981 0.0078 0.83871 0.05203 2.4522 0 5.5652-4.6848 8.4059-8.6509 8.8547-10.265 0.27182-0.97786-0.15974-1.5776-1.0845-1.5776-0.4511 0-0.96754 0.19155-1.5486 0.57815l-0.4182 3.7527c-1.139 1.5008-2.6574 3.1358-4.5073 4.8414l1.6163-6.8459c0.25392-1.3191 0.33764-2.0229-0.51124-2.2958l-3.7947 0.84351-0.20111 0.71828 1.75 0.2813c0.12166 0.45476-0.40577 1.8393-0.67146 3.3631l-0.8519 4.732c-0.01345 0.04868-0.0219 0.10207-0.03103 0.15618-0.55239-0.29926-0.9006-0.83215-1.3011-1.6397l-3.3301-6.7156 6.0872-5.5235 2.0052-0.20302-2.55e-4 -1.973-6.8732 5.5e-5 2.75e-4 1.9731 2.049 0.12478 0.15489 0.42169-6.4228 5.3935h-0.77446l1.1875-5.4872 0.34076-0.37481 1.5013-0.1249-1.57e-4 -1.9263z" style="opacity:.2;stroke-width:.98564"/>
 <path d="m14.181 15.095 1.76e-4 1.9261 1.4678 0.12495 0.26331 0.37481-2.6177 12.968-0.40272 0.39052-1.6564 0.12573v1.8995l6.873 1.12e-4 2.25e-4 -1.8994-1.2352-0.10957-0.2788-0.40609 1.0688-5.4924h1.6418l2.3544 4.9976c0.96225 1.9929 1.6373 2.8473 3.7174 2.8737 0.5981 0.0078 0.83871 0.05203 2.4522 0 5.5652-4.6848 8.4059-8.6509 8.8547-10.265 0.27182-0.97786-0.15974-1.5776-1.0845-1.5776-0.4511 0-0.96754 0.19155-1.5486 0.57815l-0.4182 3.7527c-1.139 1.5008-2.6574 3.1358-4.5073 4.8414l1.6163-6.8459c0.25392-1.3191 0.33764-2.0229-0.51124-2.2958l-3.7947 0.84351-0.20111 0.71828 1.75 0.2813c0.12166 0.45476-0.40577 1.8393-0.67146 3.3631l-0.8519 4.732c-0.01345 0.04868-0.0219 0.10207-0.03103 0.15618-0.55239-0.29926-0.9006-0.83215-1.3011-1.6397l-3.3301-6.7156 6.0872-5.5235 2.0052-0.20302-2.55e-4 -1.973-6.8732 5.4e-5 2.75e-4 1.9731 2.049 0.12478 0.15489 0.4217-6.4228 5.3935h-0.77446l1.1875-5.4872 0.34076-0.37481 1.5013-0.1249-1.57e-4 -1.9263z" style="fill:#ffffff;stroke-width:.98564"/>
</svg>
