<svg width="24" height="24" version="1" xmlns="http://www.w3.org/2000/svg">
 <defs>
  <linearGradient id="a" x1=".89736" x2="23.515" y1="1" y2="23.149" gradientTransform="matrix(.84876 0 0 .84876 1.8028 1.8193)" gradientUnits="userSpaceOnUse">
   <stop style="stop-color:#e4e4e4" offset="0"/>
   <stop style="stop-color:#afafb1" offset="1"/>
  </linearGradient>
 </defs>
 <rect x="2.4798" y="2.4798" width="19.04" height="19.04" rx="2.4376" fill="url(#a)" opacity=".9" stroke="#808080" stroke-opacity=".2" vector-effect="non-scaling-stroke" style="-inkscape-stroke:hairline;fill:url(#a);opacity:1;stroke-width:.86549"/>
 <path d="m11.906 2.4937v2.9379h-9.4193c0 0.34184 0.00547 0.58181 0.00547 0.89533h4.0454v3.5769h-4.0304c0 0.30805-0.012111 0.59481-0.012111 0.89533h9.4112v3.5786h-9.4128c0 0.30792 0.00753 0.61353 0.00753 0.89447h4.0368v3.5786l-4.0136-0.0084c-0.02982 0.4971 0.060688 0.83595 0.098421 0.89533l9.2835 0.0084v1.5712c0.29094-8.09e-4 0.58182-0.0084 0.87241-0.02286h0.02287v-1.5483h5.6156c0.35294-0.26091 0.6749-0.5613 0.95961-0.89533h-11.943v-3.5786h14.075c0-0.28841-0.0016-0.60221-0.0016-0.89445h-8.7047v-3.5786h8.7083c0-0.29346 0.0029-0.58332 0.0029-0.8953h-3.3445v-3.5769h3.3336c0-0.36949-6e-5 -0.47947-6e-5 -0.89533h-8.7002v-2.9422c-0.30096 0-0.51936-0.00132-0.89608 0.00428zm-4.4731 3.8333h9.8407v3.5769h-9.8417v-3.5769z" style="fill:#9b9b9f;paint-order:stroke fill markers;stroke-width:.4473"/>
 <g transform="translate(.28628 .14314)">
  <path d="m14.825 10.247c-0.06055 2.5062-0.85275 4.7019-2.3766 6.5872-0.0594-0.74125-0.28915-1.4834-0.68919-2.2263-0.03988 0.56188-0.26821 1.3088-0.67816 2.2415-0.41079 0.93134-0.66599 1.6075-0.76558 2.0285-0.18502 0.89035-0.11741 1.8045 0.18305 2.5107 0.92168 0 1.8172 0.0046 3.0096 0.01294 2.0923-0.01614 4.2062-0.02708 5.3976-0.02708 1.0562 0 2.0775-0.78917 2.321-2.1812-0.24262-1.3477-0.07522-3.0503-0.86791-4.2553-0.32083-0.48097-0.61139-0.86174-0.87167-1.1424-0.26028-0.28009-0.47078-0.48068-0.63148-0.60177 0.14032 0.38137 0.19012 0.79246 0.14938 1.2332-0.03905 0.44135-0.13862 0.84254-0.29876 1.2036-0.06818-0.62829-0.24722-1.2395-0.52878-1.8053-0.29028-0.60092-0.60064-1.0969-0.9311-1.4879-0.34772-0.4081-0.72994-0.7855-1.1424-1.128-0.28629-0.24692-0.58216-0.48249-0.88695-0.70617-0.1275-0.08942-0.2577-0.17488-0.39043-0.25633h-0.0024z" style="fill:#ffcb1d;isolation:auto;mix-blend-mode:normal;stroke-width:.35731"/>
  <path d="m16.098 14.16c0.11544 0.50926 0.0512 1.3507-0.19266 2.5242-0.24387 1.173-0.63289 2.0614-1.167 2.6651 0.09337-0.74295 0.11656-1.3467 0.06962-1.8112-0.0464-0.46399-0.116-0.81284-0.2088-1.0465l-0.17399-0.31319c-0.1392 0.83575-0.49906 1.6718-1.0796 2.5081-0.30215 0.44135-0.5285 0.84819-0.67901 1.2205-0.15108 0.37006-0.20937 0.84537-0.17484 1.4259 0.16353-0.0045 0.32705-0.01074 0.49058-0.01869 1.7885 0.05607 2.4685 0.04038 4.5037 0.02617 0.71642-0.31092 1.059-0.16308 1.5581-1.8667-0.04369-0.39149-0.09776-0.84016-0.19535-1.2218-0.46399-1.7767-1.3812-3.141-2.7517-4.0928z" style="fill:#ffeaa8;isolation:auto;mix-blend-mode:normal;stroke-width:.28695"/>
 </g>
</svg>
