<svg width="48" height="48" version="1.1" xmlns="http://www.w3.org/2000/svg">
 <rect x="12" y="11" width="24" height="32" rx="2" ry="2" style="opacity:.2"/>
 <rect x="12" y="10" width="24" height="32" rx="2" ry="2" style="fill:#8e8e8e"/>
 <rect x="4" y="7" width="40" height="32" rx="2" ry="2" style="opacity:.2"/>
 <path d="m4 34v2c0 1.108 0.892 2 2 2h36c1.108 0 2-0.892 2-2v-2h-40z" style="fill:#ababab"/>
 <path d="m6 6c-1.108 0-2 0.892-2 2v26h40v-26c0-1.108-0.892-2-2-2z" style="fill:#515151"/>
 <path d="m6 6c-1.108 0-2 0.892-2 2v1c0-1.108 0.892-2 2-2h36c1.108 0 2 0.892 2 2v-1c0-1.108-0.892-2-2-2h-36z" style="fill:#ffffff;opacity:.1"/>
 <rect x="4" y="34" width="40" height="1" style="fill:#ffffff;opacity:.1"/>
 <g transform="matrix(1.3751 0 0 1.3751 -12.286 -7.8589)">
  <path class="ColorScheme-Text" d="m28.018 21.669-0.24342 0.41492-0.95706-0.55322q-0.09958-0.06085-0.17703-0.1217-0.07745-0.06085-0.13831-0.15491 0.08852 0.18256 0.08852 0.40385v1.0953h-0.48683v-1.0899q0-0.11064 0.01106-0.20469 0.0166-0.09404 0.06086-0.18256-0.06086 0.07745-0.13278 0.13831-0.07192 0.06085-0.16597 0.11617l-0.95157 0.5477-0.24342-0.41492 0.95157-0.55322q0.21022-0.12725 0.42045-0.13278-0.11064-0.01106-0.21576-0.03872-0.09958-0.03319-0.20469-0.09958l-0.95706-0.55876 0.24342-0.41491 0.95706 0.55322q0.09958 0.06086 0.17703 0.12725 0.07745 0.06639 0.13831 0.16044-0.08852-0.19363-0.08852-0.41491v-1.0953h0.48683v1.0899q0 0.11064-0.0166 0.21022-0.01106 0.09404-0.05532 0.18256 0.06085-0.07745 0.13277-0.13831 0.07192-0.06086 0.16597-0.1217l0.95157-0.5477 0.24342 0.41491-0.95157 0.55322q-0.09404 0.06086-0.1881 0.09404-0.09404 0.0332-0.19916 0.04427 0.10511 0.01106 0.19916 0.04427 0.09404 0.02766 0.1881 0.08852z" style="fill:#ffffff;stroke-width:1.0689"/>
  <path class="ColorScheme-Text" d="m32.245 21.62-0.24342 0.41491-0.95706-0.55322q-0.09958-0.06085-0.17703-0.1217-0.07745-0.06086-0.13831-0.15491 0.08852 0.18256 0.08852 0.40385v1.0953h-0.48684v-1.0899q0-0.11064 0.01106-0.20469 0.0166-0.09404 0.06086-0.18256-0.06086 0.07745-0.13278 0.13831-0.07192 0.06085-0.16597 0.11617l-0.95157 0.5477-0.24342-0.41491 0.95157-0.55322q0.21022-0.12725 0.42045-0.13277-0.11064-0.01106-0.21576-0.03872-0.09958-0.03319-0.20469-0.09958l-0.95706-0.55876 0.24342-0.41492 0.95706 0.55322q0.09958 0.06085 0.17703 0.12725 0.07745 0.06639 0.13831 0.16044-0.08852-0.19363-0.08852-0.41492v-1.0953h0.48683v1.0899q0 0.11064-0.0166 0.21022-0.01106 0.09404-0.05533 0.18256 0.06085-0.07745 0.13278-0.13831 0.07192-0.06086 0.16597-0.1217l0.95157-0.5477 0.24342 0.41492-0.95157 0.55322q-0.09404 0.06086-0.1881 0.09404-0.09404 0.0332-0.19916 0.04427 0.10511 0.01106 0.19916 0.04427 0.09404 0.02766 0.1881 0.08852z" style="fill:#ffffff;stroke-width:1.0689"/>
  <path class="ColorScheme-Text" d="m36.421 21.62-0.24342 0.41491-0.95706-0.55322q-0.09958-0.06085-0.17703-0.1217-0.07745-0.06086-0.13831-0.15491 0.08852 0.18256 0.08852 0.40385v1.0953h-0.48683v-1.0899q0-0.11064 0.01106-0.20469 0.0166-0.09404 0.06086-0.18256-0.06086 0.07745-0.13278 0.13831-0.07192 0.06085-0.16597 0.11617l-0.95157 0.5477-0.24342-0.41491 0.95157-0.55322q0.21022-0.12725 0.42045-0.13277-0.11064-0.01106-0.21576-0.03872-0.09958-0.03319-0.20469-0.09958l-0.95714-0.55876 0.24342-0.41492 0.95706 0.55322q0.09958 0.06085 0.17703 0.12725 0.07745 0.06639 0.13831 0.16044-0.08852-0.19363-0.08852-0.41492v-1.0953h0.48683v1.0899q0 0.11064-0.0166 0.21022-0.01106 0.09404-0.05533 0.18256 0.06086-0.07745 0.13278-0.13831 0.07192-0.06086 0.16597-0.1217l0.95157-0.5477 0.24342 0.41492-0.95157 0.55322q-0.09404 0.06086-0.1881 0.09404-0.09404 0.0332-0.19916 0.04427 0.10511 0.01106 0.19916 0.04427 0.09404 0.02766 0.1881 0.08852z" style="fill:#ffffff;stroke-width:1.0689"/>
  <path class="ColorScheme-Text" d="m19.696 21.62-0.24342 0.41491-0.95706-0.55322q-0.09958-0.06085-0.17703-0.1217-0.07745-0.06086-0.13831-0.15491 0.08852 0.18256 0.08852 0.40385v1.0953h-0.48683v-1.0899q0-0.11064 0.01106-0.20469 0.0166-0.09404 0.06086-0.18256-0.06086 0.07745-0.13278 0.13831-0.07192 0.06085-0.16597 0.11617l-0.95157 0.5477-0.24342-0.41491 0.95157-0.55322q0.21022-0.12725 0.42045-0.13277-0.11064-0.01106-0.21576-0.03872-0.09958-0.03319-0.20469-0.09958l-0.95706-0.55876 0.24342-0.41492 0.95706 0.55322q0.09958 0.06085 0.17703 0.12725 0.07745 0.06639 0.13831 0.16044-0.08852-0.19363-0.08852-0.41492v-1.0953h0.48683v1.0899q0 0.11064-0.0166 0.21022-0.01106 0.09404-0.05533 0.18256 0.06085-0.07745 0.13278-0.13831 0.07192-0.06086 0.16597-0.1217l0.95157-0.5477 0.24342 0.41492-0.95157 0.55322q-0.09404 0.06086-0.1881 0.09404-0.09404 0.0332-0.19916 0.04427 0.10511 0.01106 0.19916 0.04427 0.09404 0.02766 0.1881 0.08852z" style="fill:#ffffff;stroke-width:1.0689"/>
  <path class="ColorScheme-Text" d="m23.872 21.62-0.24342 0.41491-0.95706-0.55322q-0.09958-0.06085-0.17703-0.1217-0.07745-0.06086-0.13831-0.15491 0.08852 0.18256 0.08852 0.40385v1.0953h-0.48683v-1.0899q0-0.11064 0.01106-0.20469 0.0166-0.09404 0.06086-0.18256-0.06086 0.07745-0.13278 0.13831-0.07192 0.06085-0.16597 0.11617l-0.95157 0.5477-0.24342-0.41491 0.95157-0.55322q0.21022-0.12725 0.42045-0.13277-0.11064-0.01106-0.21576-0.03872-0.09958-0.03319-0.20469-0.09958l-0.95714-0.55876 0.24342-0.41492 0.95706 0.55322q0.09958 0.06085 0.17703 0.12725 0.07745 0.06639 0.13831 0.16044-0.08852-0.19363-0.08852-0.41492v-1.0953h0.48683v1.0899q0 0.11064-0.0166 0.21022-0.01106 0.09404-0.05533 0.18256 0.06086-0.07745 0.13278-0.13831 0.07192-0.06086 0.16597-0.1217l0.95157-0.5477 0.24342 0.41492-0.95157 0.55322q-0.09404 0.06086-0.1881 0.09404-0.09404 0.0332-0.19916 0.04427 0.10511 0.01106 0.19916 0.04427 0.09404 0.02766 0.1881 0.08852z" style="fill:#ffffff;stroke-width:1.0689"/>
 </g>
</svg>
