<svg width="24" height="24" fill="none" version="1.1" xmlns="http://www.w3.org/2000/svg" xmlns:xlink="http://www.w3.org/1999/xlink">
 <rect x="1.4307" y="2.1239" width="21.138" height="19.752" rx="2.7062" fill="url(#a)" opacity=".9" stroke="#808080" stroke-opacity=".2" vector-effect="non-scaling-stroke" style="-inkscape-stroke:hairline;fill:url(#linearGradient3);opacity:1;stroke-width:.92882"/>
 <defs>
  <radialGradient id="a" cx="0" cy="0" r="1" gradientTransform="matrix(0 22 -22 0 12 1)" gradientUnits="userSpaceOnUse">
   <stop stop-color="#555" style="stop-color:#676767" offset="0"/>
   <stop stop-color="#222" style="stop-color:#5e5e5e" offset="1"/>
  </radialGradient>
  <linearGradient id="linearGradient3" x1="22.292" x2="1.2516" y1="21.625" y2="2.4924" gradientUnits="userSpaceOnUse" xlink:href="#a"/>
 </defs>
 <g transform="translate(-.77 -9.27) scale(.53255)" fill-rule="evenodd" style="stroke-width:.769">
  <rect x="9" y="34" width="30" height="2" rx="1" ry=".956" fill="#fff" opacity=".194" style="isolation:auto;mix-blend-mode:normal"/>
  <path d="m9.961 33.988c-0.557 0-1.005 0.449-1.005 1.006s0.448 1.005 1.005 1.005h21.056v-2.011z" fill="#3daee9" style="isolation:auto;mix-blend-mode:normal"/>
  <circle cx="31.972" cy="34.939" r="2.912" fill="#fafafa" style="isolation:auto;mix-blend-mode:normal"/>
  <rect x="9" y="44" width="30" height="2" rx="1" ry=".823" fill="#fff" opacity=".194" style="isolation:auto;mix-blend-mode:normal"/>
  <path d="m9.961 43.988c-0.557 0-1.005 0.449-1.005 1.006s0.448 1.005 1.005 1.005h11.056v-2.011z" fill="#3daee9" style="isolation:auto;mix-blend-mode:normal"/>
  <circle cx="19.972" cy="44.939" r="2.912" fill="#fafafa" style="isolation:auto;mix-blend-mode:normal"/>
 </g>
</svg>
