<svg width="24" height="24" fill="none" version="1.1" xmlns="http://www.w3.org/2000/svg">
 <defs>
  <linearGradient id="a">
   <stop style="stop-color:#6c7ad8" offset="0"/>
   <stop style="stop-color:#c6cdff" offset="1"/>
  </linearGradient>
  <linearGradient id="linearGradient76" x1="1.579" x2="21.734" y1="2.4304" y2="22.569" gradientTransform="matrix(.95987 0 0 1.0486 .86563 -1.0178)" gradientUnits="userSpaceOnUse">
   <stop style="stop-color:#5e6dd5" offset="0"/>
   <stop style="stop-color:#828eff" offset="1"/>
  </linearGradient>
 </defs>
 <rect x="2.1931" y="1.2863" width="19.613" height="21.428" rx="2.511" fill="url(#a)" opacity=".9" stroke="#808080" stroke-opacity=".2" vector-effect="non-scaling-stroke" style="-inkscape-stroke:hairline;fill:url(#linearGradient76);stroke-width:.93186"/>
 <path transform="translate(16.844 -.3)" d="m-7.028 6.47a1.253 1.253 0 1 0 0-2.505 1.253 1.253 0 0 0 0 2.506zm4.583 0a1.253 1.253 0 1 0 0-2.505 1.253 1.253 0 0 0 0 2.506z" fill="#3947be" style="fill:#5360cc;stroke-width:.91667"/>
 <path transform="translate(16.844 -.3)" d="M-2.6 5.137v1.177a2.2 2.2 0 0 1-2.22 2.179 2.2 2.2 0 0 1-2.219-2.18V5.138" stroke="#fff" stroke-linecap="round" stroke-linejoin="round" style="fill:none;stroke-width:.91667"/>
 <path d="m14.424 10.959a3.1 3.1 0 0 1 1.631-0.923l0.62-0.04c0.24 0.02 0.474 0.081 0.694 0.181 0.346 0.203 0.647 0.476 0.882 0.802 0.348 0.468 0.586 1.007 0.699 1.578q0.03 0.292 0.02 0.586c-0.142-0.142-0.189-0.358-0.296-0.521a2.6 2.6 0 0 0-0.506-0.614c-0.286-0.28-0.67-0.44-1.07-0.444-0.15 0.02-0.313-7e-3 -0.452 0.053-0.425 0.095-0.782 0.358-1.085 0.654-0.088 0.115-0.202 0.216-0.29 0.33-0.08 0.149-0.195 0.283-0.263 0.439a3.5 3.5 0 0 0-0.388 1.44c0.02 0.195 0.02 0.39 0.04 0.586 0.054 0.128 0.027 0.313 0.175 0.384 0.1 9e-3 0.2-0.017 0.284-0.075q0.337-0.245 0.605-0.565c0.23-0.188 0.391-0.439 0.607-0.64 0.121-0.095 0.203-0.223 0.313-0.313q0.335-0.33 0.73-0.586a1.3 1.3 0 0 1 0.673-0.189 1.07 1.07 0 0 1 0.72 0.425c0.243 0.343 0.417 0.73 0.512 1.139q0.048 0.318 0.055 0.64a7.4 7.4 0 0 1-0.378 2.13 3.2 3.2 0 0 1-0.33 0.686c-0.047 0.055-0.074 0.135-0.141 0.156 6e-3 -0.142 0.06-0.284 0.074-0.425q0.036-0.234 0.02-0.472c0.04-0.242-6e-3 -0.485-0.014-0.73-0.06-0.242-0.066-0.498-0.14-0.73a2 2 0 0 0-0.19-0.492 1 1 0 0 0-0.188-0.263 0.66 0.66 0 0 0-0.344-0.142q-0.142 0.03-0.276 0.088-0.315 0.218-0.553 0.521c-0.154 0.135-0.282 0.296-0.465 0.405-0.255 0.161-0.552 0.303-0.862 0.25-0.424-0.02-0.815-0.217-1.179-0.418a2.5 2.5 0 0 1-0.465-0.364 2.4 2.4 0 0 1-0.639-1.314 0.95 0.95 0 0 1-0.027-0.458c-7e-3 -0.607 0.189-1.193 0.444-1.739q0.204-0.381 0.479-0.714 0.113-0.167 0.265-0.302zm-4.843 8.175a3.1 3.1 0 0 1-1.63 0.923l-0.626 0.04a2 2 0 0 1-0.693-0.182 2.85 2.85 0 0 1-0.883-0.802 3.9 3.9 0 0 1-0.7-1.577 4 4 0 0 1-0.02-0.586c0.14 0.142 0.188 0.358 0.296 0.522 0.148 0.214 0.296 0.451 0.505 0.613 0.287 0.28 0.67 0.44 1.07 0.444 0.149-0.02 0.314 7e-3 0.452-0.053 0.425-0.095 0.782-0.358 1.086-0.654 0.087-0.115 0.2-0.216 0.288-0.33 0.082-0.149 0.196-0.283 0.263-0.439 0.234-0.446 0.367-0.938 0.391-1.442-0.02-0.195-0.02-0.39-0.04-0.586-0.054-0.128-0.027-0.313-0.176-0.384a0.43 0.43 0 0 0-0.282 0.074 3.5 3.5 0 0 0-0.607 0.566c-0.228 0.188-0.39 0.438-0.606 0.64-0.12 0.095-0.202 0.223-0.312 0.313a5 5 0 0 1-0.73 0.586 1.3 1.3 0 0 1-0.674 0.188 1.07 1.07 0 0 1-0.721-0.424 3.3 3.3 0 0 1-0.512-1.139 5 5 0 0 1-0.053-0.64 7.4 7.4 0 0 1 0.377-2.13 3.2 3.2 0 0 1 0.33-0.686c0.047-0.055 0.074-0.135 0.141-0.156-7e-3 0.142-0.06 0.284-0.074 0.425q-0.035 0.235-0.02 0.472c-0.04 0.242 7e-3 0.485 0.013 0.73 0.062 0.242 0.068 0.498 0.142 0.73q0.06 0.263 0.192 0.498 0.074 0.147 0.188 0.263a0.64 0.64 0 0 0 0.344 0.14q0.143-0.03 0.276-0.09 0.317-0.219 0.552-0.521c0.156-0.135 0.284-0.296 0.465-0.405 0.257-0.161 0.553-0.303 0.862-0.25 0.426 0.02 0.816 0.217 1.18 0.418q0.254 0.153 0.464 0.364c0.345 0.36 0.569 0.82 0.64 1.314a0.96 0.96 0 0 1 0.028 0.458c6e-3 0.607-0.19 1.193-0.445 1.738a4.3 4.3 0 0 1-0.478 0.714 1.6 1.6 0 0 1-0.263 0.303m1.287-7.642c0.15-0.07 0.313-0.105 0.478-0.104 0.288-0.037 0.579 0.03 0.822 0.189 0.128 0.113 0.276 0.228 0.336 0.397a0.73 0.73 0 0 1-0.04 0.613 1.25 1.25 0 0 1-0.586 0.58 1.34 1.34 0 0 1-0.592 0.166 1.3 1.3 0 0 1-0.661-0.082 0.93 0.93 0 0 1-0.56-0.586c-0.08-0.195 7e-3 -0.41 0.089-0.586 0.17-0.265 0.42-0.47 0.714-0.587m0.04 2.527c0.168-0.304 0.512-0.458 0.849-0.471 0.175 0.011 0.346 0.054 0.505 0.127a0.8 0.8 0 0 1 0.472 0.521q4e-3 0.422 0.081 0.834c0.148 0.573 0.539 1.038 0.956 1.443 0.208 0.241 0.492 0.417 0.7 0.666a5.6 5.6 0 0 1-0.956-0.104 3.2 3.2 0 0 1-1.105-0.392 2.5 2.5 0 0 1-0.549-0.367 3.1 3.1 0 0 1-0.673-0.747 2.4 2.4 0 0 1-0.391-1.092q0.02-0.219 0.111-0.418" fill="#ffffff" style="stroke-width:.91667"/>
</svg>
