<svg width="48" height="48" version="1.1" xmlns="http://www.w3.org/2000/svg"><rect x="12" y="11" width="24" height="32" rx="2" ry="2" opacity=".2"/><rect x="12" y="10" width="24" height="32" rx="2" ry="2" fill="#8e8e8e"/><rect x="4" y="7" width="40" height="32" rx="2" ry="2" opacity=".2"/><path d="m4 34v2c0 1.108 0.892 2 2 2h36c1.108 0 2-0.892 2-2v-2h-40z" fill="#ababab"/><path d="m6 6c-1.108 0-2 0.892-2 2v26h40v-26c0-1.108-0.892-2-2-2z" fill="#515151"/><path d="m6 6c-1.108 0-2 0.892-2 2v1c0-1.108 0.892-2 2-2h36c1.108 0 2 0.892 2 2v-1c0-1.108-0.892-2-2-2h-36z" fill="#fff" opacity=".1"/><rect x="4" y="34" width="40" height="1" fill="#fff" opacity=".1"/><g transform="translate(37.469 3.087)" fill="#fafafa"><rect x="-29.469" y="10.913" width="7" height="1" ry=".5"/><rect x="-29.469" y="12.913" width="7" height="1" ry=".5"/><rect x="-29.469" y="14.913" width="7" height="1" ry=".5"/><rect x="-29.469" y="17.913" width="16" height="1" ry=".5"/><rect x="-29.469" y="19.913" width="16" height="1" ry=".5"/><rect x="-29.469" y="21.913" width="7" height="1" ry=".5"/></g></svg>
