<svg width="48" height="48" version="1" xmlns="http://www.w3.org/2000/svg">
 <rect transform="matrix(0,-1,-1,0,0,0)" x="-44" y="-44" width="40" height="40" rx="20" ry="20" fill="#30a3db"/>
 <g transform="translate(.4811 -5.9961)">
  <path d="m20.021 20.993h-0.0192c0.0381 4.1874-7.3e-4 7.375 0 11.562-1.8438-1.1725-4.5316-0.41497-5.5172 1.5309-1.1469 1.9742-0.16651 4.7651 1.9602 5.5923 2.0774 0.95043 4.7614-0.2976 5.3772-2.4962 0.30759-1.2005 0.13601-2.4536 0.18418-3.6809 5e-3 -2.8362 0.01-4.6724 0.0149-7.5086h9c-6e-3 2.5208-0.0128 4.0417-0.0192 6.5625-1.8438-1.1725-4.5316-0.41497-5.5172 1.5309-1.1469 1.9742-0.16651 4.7651 1.9602 5.5923 2.2491 1.0177 5.4228-0.5127 5.5925-3.0831-0.0756-2.33-0.01-4.6677-0.0263-7.001 3e-3 -2.8672 0.0105-5.7344 0.01-8.6016h-13z" style="opacity:.2"/>
  <path d="m20.021 19.993h-0.0192c0.0381 4.1874-7.3e-4 7.375 0 11.562-1.8438-1.1725-4.5316-0.41497-5.5172 1.5309-1.1469 1.9742-0.16651 4.7651 1.9602 5.5923 2.0774 0.95043 4.7614-0.2976 5.3772-2.4962 0.30759-1.2005 0.13601-2.4536 0.18418-3.6809 5e-3 -2.8362 0.01-4.6724 0.0149-7.5086h9c-6e-3 2.5208-0.0128 4.0417-0.0192 6.5625-1.8438-1.1725-4.5316-0.41497-5.5172 1.5309-1.1469 1.9742-0.16651 4.7651 1.9602 5.5923 2.2491 1.0177 5.4228-0.5127 5.5925-3.0831-0.0756-2.33-0.01-4.6677-0.0263-7.001 3e-3 -2.8672 0.0105-5.7344 0.01-8.6016h-13z" style="fill:#ffffff"/>
 </g>
</svg>
