<svg width="48" height="48" version="1" xmlns="http://www.w3.org/2000/svg">
 <path d="m6 8s-2 0-2 2v28c0 1.108 0.892 2 2 2h36c1.108 0 2-0.892 2-2v-28c0-1.108-0.892-2-2-2z" style="fill:#515151"/>
 <circle cx="26" cy="22" r="7" style="fill:#a6e4f7;opacity:.49841"/>
 <path d="m4 38v1c0 1.108 0.892 2 2 2h36c1.108 0 2-0.892 2-2v-1c0 1.108-0.892 2-2 2h-36c-1.108 0-2-0.892-2-2z" style="fill:#2ebeeb;opacity:.2"/>
 <path d="m6 8c-1.108 0-2 0.892-2 2v1c0-1.108 0.892-2 2-2h36c1.108 0 2 0.892 2 2v-1c0-1.108-0.892-2-2-2z" style="fill:#ffffff;opacity:.1"/>
 <path d="m25.995 23c-1 0-2 1-2 2-0.01493 0.88276-0.01272 2.7252 0.0039 5.4434 0.02657 4.3451 0.01869 5.7096-0.0332 5.8965-1.4805-0.15612-3.1841-1.3262-4.186-2.1194-0.65484-0.51972-1.3035-0.99532-1.4414-1.0566-0.57487-0.25564-1.3897-0.09382-1.8574 0.36914-0.32342 0.32012-0.44418 0.60382-0.47266 1.1172-0.02176 0.3923-0.0069 0.48621 0.11328 0.74609 0.07573 0.16372 0.21161 0.3835 0.30273 0.48828 0.09111 0.10478 1.3386 1.7235 2.7715 3.5977 2.6536 3.4709 4.7566 5.3277 5.2114 5.4573 0.27805 0.07933 13.478 0.08107 13.766 2e-3 0.13074-0.03592 0.31805-0.15519 0.45312-0.28906 0.18928-0.1876 0.26117-0.32561 0.4082-0.7793 0.42096-1.2989 0.84161-3.2754 0.96061-4.3731 0.05175-1.2754 0.0243-2.4663 0-3.5-0.02235-0.95088 0.0016-1.8209 1e-6 -3 0-1-1-2-2-2s-2 1-2 2c4.16e-4 -0.29308 0.0037-0.81218 0-1 0-1-1-2-2-2-0.825 0-1.6408 0.68269-1.9043 1.4824-0.03237 0.01601-0.06427 0.03066-0.0957 0.04883-5.7e-4 -0.12758 2e-3 -0.43147 0-0.53125 0-1-1-2-2-2-0.84859 0-1.6902 0.72165-1.9277 1.5508-0.02005 0.02967-0.06233 0.09994-0.07227 0.10352-0.03049 0.01099 0-1.2467 0-3.127 0-1.288 0.0093-2.0527 0-2.5274 0-1-1-2-2-2z" style="opacity:.2"/>
 <circle cx="26" cy="22" r="4" style="fill:#96def5;opacity:.56857"/>
 <path d="m25.995 22c-1 0-2 1-2 2-0.01493 0.88276-0.01272 2.7252 0.0039 5.4434 0.02657 4.3451 0.01869 5.7096-0.0332 5.8965-1.4805-0.15612-3.1841-1.3262-4.186-2.1194-0.65484-0.51972-1.3035-0.99532-1.4414-1.0566-0.57487-0.25564-1.3897-0.09382-1.8574 0.36914-0.32342 0.32012-0.44418 0.60382-0.47266 1.1172-0.02176 0.3923-0.0069 0.48621 0.11328 0.74609 0.07573 0.16372 0.21161 0.3835 0.30273 0.48828 0.09111 0.10478 1.3386 1.7235 2.7715 3.5977 2.6536 3.4709 4.7566 5.3277 5.2114 5.4573 0.27805 0.07933 13.478 0.08107 13.766 2e-3 0.13074-0.03592 0.31805-0.15519 0.45312-0.28906 0.18928-0.1876 0.26117-0.32561 0.4082-0.7793 0.42096-1.2989 0.84161-3.2754 0.96061-4.3731 0.05175-1.2754 0.0243-2.4663 0-3.5-0.02235-0.95088 0.0016-1.8209 1e-6 -3 0-1-1-2-2-2s-2 1-2 2c4.16e-4 -0.29308 0.0037-0.81218 0-1 0-1-1-2-2-2-0.825 0-1.6408 0.68269-1.9043 1.4824-0.03237 0.01601-0.06427 0.03066-0.0957 0.04883-5.7e-4 -0.12758 2e-3 -0.43147 0-0.53125 0-1-1-2-2-2-0.84859 0-1.6902 0.72165-1.9277 1.5508-0.02005 0.02967-0.06233 0.09994-0.07227 0.10352-0.03049 0.01099 0-1.2467 0-3.127 0-1.288 0.0093-2.0527 0-2.5274 0-1-1-2-2-2z" style="fill:#ebebeb"/>
</svg>
