<svg width="24" height="24" version="1.1" viewBox="0 0 6.35 6.35" xmlns="http://www.w3.org/2000/svg"><defs><clipPath id="b"><path d="M0 0h19v19H0Z"/></clipPath><clipPath id="c"><path d="M0 0h19v19H0Z"/></clipPath><radialGradient id="a" cx="0" cy="0" r="1" gradientTransform="matrix(0 5.9261 -5.9261 0 3.175 .21232)" gradientUnits="userSpaceOnUse"><stop stop-color="#6da822" offset="0"/><stop stop-color="#29979a" offset="1"/></radialGradient></defs><path d="m2.5265 0.24287a0.30543 0.30543 0 0 0 0.092647-0.012217q0.58032-0.03767 1.1606 0.002036a3.6652 3.6652 0 0 1 1.0181 0.22907q0.81856 0.33597 1.1209 1.1688 0.17206 0.50091 0.20362 1.0293 0.04276 0.66482-0.030543 1.3276a3.2579 3.2579 0 0 1-0.24129 0.89389q-0.34412 0.74423-1.1138 1.0262a4.1742 4.1742 0 0 1-1.2848 0.22195 5.7014 5.7014 0 0 1-1.4681-0.11097q-1.3378-0.29729-1.6493-1.631a5.0905 5.0905 0 0 1-0.12217-1.2156 5.0905 5.0905 0 0 1 0.13948-1.2889q0.32783-1.2462 1.5832-1.5445 0.2922-0.072285 0.59152-0.095702" fill="url(#a)" fill-rule="evenodd" stroke-width="1.0181"/><path transform="matrix(.35916 0 0 .35916 -.057474 -.057475)" d="m9.07 0.75c-0.53867 0-1.0777 0.017-1.617 0.051-0.084107 0.02286-0.17084 0.034627-0.258 0.035-0.55579 0.042581-1.107 0.13156-1.648 0.266-2.328 0.554-3.7967 1.9873-4.406 4.3-0.16227 0.67177-0.27458 1.3546-0.336 2.043 1.941 4.3057 2.6695 8.0403 11.322 7.4544 1.6504-0.0092 2.9045-0.72437 4.4159-1.3874 0.28906-0.72188 0.48334-1.4782 0.578-2.25 0.136-1.23 0.16467-2.462 0.086-3.696-0.057903-0.9769-0.24831-1.9414-0.566-2.867-0.562-1.5433-1.6023-2.628-3.121-3.254-0.91052-0.34498-1.8654-0.55911-2.836-0.636-0.53719-0.037769-1.0755-0.057446-1.614-0.059" clip-path="url(#b)" fill="#252525" opacity=".1"/><path transform="matrix(.35916 0 0 .35916 -.057474 -.057475)" d="m9.07 0.75q-0.808 0-1.617 0.051a1 1 0 0 1-0.258 0.035 10 10 0 0 0-1.648 0.266q-3.492 0.831-4.406 4.3a14 14 0 0 0-0.387 3.59q-0.034 1.712 0.336 3.383c0.578 2.477 2.113 3.992 4.594 4.543q1.745 0.357 3.519 0.328a13.74 13.74 0 0 0 8.004-6.996q0.088-1.336 0-2.684a10.8 10.8 0 0 0-0.566-2.867q-0.843-2.316-3.121-3.254a10.3 10.3 0 0 0-2.836-0.636 24 24 0 0 0-1.614-0.059" clip-path="url(#c)" fill="#1a1a1a" opacity=".21784"/><path class="ColorScheme-Text" d="m2.7415 1.5469c-0.086701 0-0.08658 1.532e-4 -0.16891 0.087632l-0.23496 0.34587h-0.54992c-0.19074 0-0.34672 0.14222-0.34672 0.32767v1.9363c0 0.18545 0.15597 0.33698 0.34672 0.33698h2.7745c0.19074 0 0.34672-0.15153 0.34672-0.33698v-1.9363c0-0.18544-0.15597-0.32767-0.34672-0.32767h-0.54992l-0.23792-0.34926c-0.079152-0.084098-0.07925-0.084245-0.16595-0.084245zm1.8398 0.65025a0.10838 0.10838 0 0 1 0.00256 0 0.10838 0.10838 0 0 1 0.10836 0.10838 0.10838 0.10838 0 0 1-0.10838 0.10838 0.10838 0.10838 0 0 1-0.10838-0.10838 0.10838 0.10838 0 0 1 0.10583-0.10838zm-1.4194 0.21675a0.86701 0.86701 0 0 1 0.013122 0 0.86701 0.86701 0 0 1 0.86701 0.86701 0.86701 0.86701 0 0 1-0.86701 0.86701 0.86701 0.86701 0 0 1-0.86701-0.86701 0.86701 0.86701 0 0 1 0.85388-0.86701zm0.00256 0.4335a0.4335 0.4335 0 0 0-0.42292 0.4335 0.4335 0.4335 0 0 0 0.4335 0.4335 0.4335 0.4335 0 0 0 0.4335-0.4335 0.4335 0.4335 0 0 0-0.4335-0.4335 0.4335 0.4335 0 0 0-0.010586 0z" color="#444444" fill="#fff" fill-opacity=".86151" stroke-width=".2129"/></svg>
