<svg width="48" height="48" version="1" xmlns="http://www.w3.org/2000/svg"><path d="m4.0282 42.833c16.558-0.011799 40.862-17.683 40.773-19.959-0.082679-2.1269-27.323-17.684-40.946-17.708-1.033e-4 11.441-0.21375 27.96 0.17215 37.666z" fill="#dc3a2d"/><path d="m10.447 38.411c0.18453 0.07651 0.38235-0.24948 0.45924-0.75642 0 0 0.28127-1.6026-1.4671-3.5868-1.2363-1.3312-1.0662-1.7337 0.64068-1.5169 0.74383 0.0945 1.6993 0.08498 2.1231-0.02104 0.69882-0.17488 0.57155-0.41925-1.3676-2.6331-1.1758-1.3423-2.3234-2.7669-2.5499-3.1657-0.39319-0.69266-0.34047-0.74499 1.1556-1.1518 1.6702-0.45423 4.1148-2.1216 4.5108-3.0765 0.21405-0.51626-0.01538-0.66054-2.1656-1.3612-1.3228-0.43106-2.7848-0.88949-3.2488-1.0188l-0.84391-0.235 1.1916-2.5493c0.65524-1.4021 1.4717-2.8494 1.8145-3.2163 0.34285-0.36684 0.58552-0.76042 0.53917-0.8747-0.19509-0.48126-1.8814-0.29678-3.2564 0.35626-1.4057 0.66753-1.476 0.66412-1.4094-0.07554-0.20312-1.4597-1.7538-2.6085-2.7454-4.0471 0.032415 4.711-0.017869 19.707-0.012431 24.521 0.45011-0.45438 1.4102-0.81177 1.5479-0.75469 0.13768 0.05708 1.2649 1.2121 2.5049 2.5666 1.24 1.3545 2.4007 2.5234 2.579 2.5973z" fill="#75ac4c"/><g transform="rotate(202.52 21.549 25.012)" fill="#b4291e"><path d="m24.128 19.38c-0.7693 0.7693-1.9542 0.83166-2.6466 0.1393-0.69237-0.69237-0.63001-1.8773 0.13929-2.6466s2.3459-1.2233 3.0382-0.53094 0.23836 2.2689-0.53094 3.0382z"/><path d="m20.128 26.38c-0.7693 0.7693-1.9542 0.83166-2.6466 0.1393-0.69237-0.69237-0.63001-1.8773 0.13929-2.6466s2.3459-1.2233 3.0382-0.53094 0.23836 2.2689-0.53094 3.0382z"/><path d="m30.128 29.38c-0.7693 0.7693-1.9542 0.83166-2.6466 0.1393-0.69237-0.69237-0.63001-1.8773 0.13929-2.6466s2.3459-1.2233 3.0382-0.53094 0.23836 2.2689-0.53094 3.0382z"/><path d="m27.128 37.38c-0.7693 0.7693-1.9542 0.83166-2.6466 0.1393-0.69237-0.69237-0.63001-1.8773 0.13929-2.6466s2.3459-1.2233 3.0382-0.53094 0.23836 2.2689-0.53094 3.0382z"/><path d="m19.128 35.38c-0.7693 0.7693-1.9542 0.83166-2.6466 0.1393-0.69237-0.69237-0.63001-1.8773 0.13929-2.6466s2.3459-1.2233 3.0382-0.53094 0.23836 2.2689-0.53094 3.0382z"/><path d="m10.128 32.38c-0.7693 0.7693-1.9542 0.83166-2.6466 0.1393-0.69237-0.69237-0.63001-1.8773 0.13929-2.6466s2.3459-1.2233 3.0382-0.53094c0.69237 0.69237 0.23836 2.2689-0.53094 3.0382z"/><path d="m13.128 24.38c-0.7693 0.7693-1.9542 0.83166-2.6466 0.1393-0.69237-0.69237-0.63001-1.8773 0.13929-2.6466s2.3459-1.2233 3.0382-0.53094 0.23836 2.2689-0.53094 3.0382z"/></g><path d="m15.301 31.68c0.33465-0.47512 0.83222-0.8884 1.3264-1.0929 1.0053-0.41599 2.1241-0.02104 2.4986 0.88373 0.10859 0.26242 0.1355 0.53848 0.10448 0.80871 0.38888-0.50084 0.51954-1.1501 0.27852-1.7324-0.37439-0.90476-1.4933-1.2997-2.4986-0.88373-0.8021 0.33191-1.6035 1.2138-1.7094 2.0167zm12.076-0.40566c0.33465-0.47512 0.83222-0.8884 1.3264-1.0929 1.0053-0.41599 2.1241-0.02104 2.4986 0.88373 0.10859 0.26242 0.1355 0.53848 0.10448 0.80871 0.38888-0.50084 0.51954-1.1501 0.27852-1.7324-0.37439-0.90476-1.4933-1.2997-2.4986-0.88373-0.8021 0.33191-1.6035 1.2138-1.7094 2.0167zm-5.7002-4.5285c0.33465-0.47512 0.83222-0.8884 1.3264-1.0929 1.0053-0.41599 2.1241-0.02104 2.4986 0.88373 0.10859 0.26242 0.1355 0.53848 0.10448 0.80871 0.38888-0.50084 0.51954-1.1501 0.27852-1.7324-0.37439-0.90476-1.4933-1.2997-2.4986-0.88373-0.8021 0.33191-1.6035 1.2138-1.7094 2.0167zm-8.0884-6.6013c0.33465-0.47512 0.83222-0.8884 1.3264-1.0929 1.0053-0.41599 2.1241-0.02104 2.4986 0.88373 0.10859 0.26242 0.1355 0.53848 0.10448 0.80871 0.38888-0.50084 0.51954-1.1501 0.27852-1.7324-0.37439-0.90476-1.4933-1.2997-2.4986-0.88373-0.8021 0.33191-1.6035 1.2138-1.7094 2.0167zm19.624 4.8889c0.33465-0.47512 0.83222-0.8884 1.3264-1.0929 1.0053-0.41599 2.1241-0.02104 2.4986 0.88373 0.10858 0.26242 0.1355 0.53848 0.10448 0.80871 0.38888-0.50084 0.51954-1.1501 0.27852-1.7324-0.37439-0.90476-1.4933-1.2997-2.4986-0.88373-0.8021 0.33191-1.6035 1.2138-1.7094 2.0167zm-7.1647-6.2183c0.33465-0.47512 0.83222-0.8884 1.3264-1.0929 1.0053-0.41599 2.1241-0.02104 2.4986 0.88373 0.10859 0.26242 0.1355 0.53848 0.10448 0.80871 0.38888-0.50084 0.51954-1.1501 0.27852-1.7324-0.37439-0.90476-1.4933-1.2997-2.4986-0.88373-0.8021 0.33191-1.6035 1.2138-1.7094 2.0167zm-6.624-4.9115c0.33465-0.47512 0.83222-0.8884 1.3264-1.0929 1.0053-0.41599 2.1241-0.02104 2.4986 0.88373 0.10859 0.26242 0.1355 0.53848 0.10448 0.80871 0.38888-0.50084 0.51954-1.1501 0.27852-1.7324-0.37439-0.90476-1.4933-1.2997-2.4986-0.88373-0.8021 0.33191-1.6035 1.2138-1.7094 2.0167z" opacity=".2"/></svg>
