<svg width="48" height="48" version="1" xmlns="http://www.w3.org/2000/svg"><g transform="rotate(202.52 23.568 24.586)"><g transform="translate(3.7694 -1.4733)"><path d="m31.341 8.447s-0.77053-1.7631-1.3082-2.1489c-4.2428-3.0448-15.211 5.7202-20.165 12.937-1.4956 2.1792-3.4855 4.9343-4.2716 6.2201-7.1886 11.757-3.7932 12.849 3.3045 13.869 2.8345 0.40744 1.8201 0.53105 5.6807 1.0843 1.8755 0.26878 4.7494 0.17315 6.1638 0.31129 2.4207 0.23643 5.6843 0.1835 8.5047-0.31312 3.2898-0.57926 11.195-2.2586 13.232-4.2558 1.599-1.5681-2.2621-5.5818-1.9041-7.4796-3.7477-7.8341-5.3586-12.977-9.2365-20.225z" fill="#dc3a2d"/><path d="m27.909 5.0102c-0.41637-0.0055-0.95431 0.036107-1.6875 0.11719-5.1906 0.57401-11.401 6.8917-16.354 14.109-1.4956 2.1792-3.4178 4.9768-4.2715 6.2188-1.8512 2.6931-4.0736 8.0642-3.9497 10.387 0.13074-2.0871 2.3587-7.0723 3.9497-9.387 0.85369-1.2419 2.7759-4.0395 4.2715-6.2188 4.9533-7.2173 11.164-13.535 16.354-14.109 0.73319-0.08108 1.2711-0.12269 1.6875-0.11719 5.9104 0.40354 7.8113 15.691 8.1459 23.932 0.37738-8.5438-1.9961-24.512-8.1459-24.932z" fill="#fff" opacity=".2"/><path d="m25.457 9.2874c-0.19976 0-0.25764 0.3769-0.13451 0.87463 0 0 0.35397 1.5881 2.729 2.7514 1.6519 0.75615 1.6489 1.1931-0.01085 1.6466-0.7233 0.1976-1.6023 0.57235-1.9531 0.83258-0.57855 0.4292-0.36739 0.60619 2.2718 1.9085 1.6002 0.7896 3.206 1.666 3.568 1.9477 0.6285 0.48925 0.59984 0.55778-0.62636 1.5066-1.3689 1.0593-2.9885 3.5358-2.9885 4.5696 0 0.55888 0.2672 0.60428 2.5218 0.42801 1.387-0.10844 2.9131-0.24492 3.3913-0.30326l0.86957-0.10614-0.12432 2.8113c-0.06828 1.5461-0.26809 3.1958-0.4443 3.666-0.1762 0.47018-0.24963 0.92669-0.16304 1.0145 0.36454 0.36984 1.8516-0.44644 2.8716-1.5763 1.0428-1.155 1.1091-1.1788 1.3309-0.47005 0.74671 1.2706 1.0772 2.3836 2.2359 3.497 0.25874 0.02355 0.45616-0.28286 0.62216-0.91451 0.51106-1.9446 0.23731-3.8269-0.839-5.7709-0.57998-1.0475-0.72646-2.005-1.2629-3.6687-0.73539-2.2807-3.197-7.1445-3.197-7.1445-0.84255-1.5376-1.3777-1.7838-1.3777-4.1464 0-2.2449-0.06719-2.4813-0.73302-2.5777-0.53816-0.07795-0.84988 0.18008-1.1726 0.97043-0.24176 0.59213-0.56156 1.0766-0.7106 1.0766s-1.6327-0.63519-3.2969-1.4115c-1.6642-0.77634-3.1841-1.4115-3.3771-1.4115z" fill="#75ac4c"/><g fill="#b4291e"><path d="m24.128 19.38c-0.7693 0.7693-1.9542 0.83166-2.6466 0.1393-0.69237-0.69237-0.63001-1.8773 0.13929-2.6466 0.7693-0.7693 2.3459-1.2233 3.0382-0.53094s0.23836 2.2689-0.53094 3.0382z"/><path d="m20.128 26.38c-0.7693 0.7693-1.9542 0.83166-2.6466 0.1393-0.69237-0.69237-0.63001-1.8773 0.13929-2.6466 0.7693-0.7693 2.3459-1.2233 3.0382-0.53094s0.23836 2.2689-0.53094 3.0382z"/><path d="m30.128 29.38c-0.7693 0.7693-1.9542 0.83166-2.6466 0.1393-0.69237-0.69237-0.63001-1.8773 0.13929-2.6466 0.7693-0.7693 2.3459-1.2233 3.0382-0.53094s0.23836 2.2689-0.53094 3.0382z"/><path d="m27.128 37.38c-0.7693 0.7693-1.9542 0.83166-2.6466 0.1393-0.69237-0.69237-0.63001-1.8773 0.13929-2.6466 0.7693-0.7693 2.3459-1.2233 3.0382-0.53094s0.23836 2.2689-0.53094 3.0382z"/><path d="m19.128 35.38c-0.7693 0.7693-1.9542 0.83166-2.6466 0.1393-0.69237-0.69237-0.63001-1.8773 0.13929-2.6466 0.7693-0.7693 2.3459-1.2233 3.0382-0.53094s0.23836 2.2689-0.53094 3.0382z"/><path d="m10.128 32.38c-0.7693 0.7693-1.9542 0.83166-2.6466 0.1393-0.69237-0.69237-0.63001-1.8773 0.13929-2.6466 0.7693-0.7693 2.3459-1.2233 3.0382-0.53094 0.69237 0.69237 0.23836 2.2689-0.53094 3.0382z"/><path d="m13.128 24.38c-0.7693 0.7693-1.9542 0.83166-2.6466 0.1393-0.69237-0.69237-0.63001-1.8773 0.13929-2.6466 0.7693-0.7693 2.3459-1.2233 3.0382-0.53094s0.23836 2.2689-0.53094 3.0382z"/></g><path d="m24.934 16.861c-0.12716 0.56706-0.4285 1.1394-0.80664 1.5176-0.7693 0.7693-1.9541 0.83299-2.6465 0.14062-0.20082-0.20082-0.33141-0.44552-0.40625-0.70703-0.1674 0.61159-0.03942 1.2614 0.40625 1.707 0.69237 0.69237 1.8772 0.62868 2.6465-0.14062 0.61381-0.61381 1.0163-1.7354 0.80664-2.5176zm-11 5c-0.12716 0.56706-0.4285 1.1394-0.80664 1.5176-0.7693 0.7693-1.9541 0.83299-2.6465 0.14062-0.20082-0.20082-0.33141-0.44552-0.40625-0.70703-0.1674 0.61159-0.03942 1.2614 0.40625 1.707 0.69237 0.69237 1.8772 0.62868 2.6465-0.14062 0.61381-0.61381 1.0163-1.7354 0.80664-2.5176zm7 2c-0.12716 0.56706-0.4285 1.1394-0.80664 1.5176-0.7693 0.7693-1.9541 0.83299-2.6465 0.14062-0.20082-0.20082-0.33141-0.44552-0.40625-0.70703-0.1674 0.61159-0.03942 1.2614 0.40625 1.707 0.69237 0.69237 1.8772 0.62868 2.6465-0.14062 0.61381-0.61381 1.0163-1.7354 0.80664-2.5176zm10 3c-0.12716 0.56706-0.4285 1.1394-0.80664 1.5176-0.7693 0.7693-1.9541 0.83299-2.6465 0.14062-0.20082-0.20082-0.33141-0.44552-0.40625-0.70703-0.1674 0.61159-0.03942 1.2614 0.40625 1.707 0.69237 0.69237 1.8772 0.62868 2.6465-0.14062 0.61381-0.61381 1.0163-1.7354 0.80664-2.5176zm-20 3c-0.12716 0.56706-0.4285 1.1394-0.80664 1.5176-0.7693 0.7693-1.9541 0.83299-2.6465 0.14062-0.20081-0.20082-0.33141-0.44552-0.40625-0.70703-0.1674 0.61159-0.039419 1.2614 0.40625 1.707 0.69237 0.69237 1.8772 0.62868 2.6465-0.14062 0.61381-0.61381 1.0163-1.7354 0.80664-2.5176zm9 3c-0.12716 0.56706-0.4285 1.1394-0.80664 1.5176-0.7693 0.7693-1.9541 0.83299-2.6465 0.14062-0.20082-0.20082-0.33141-0.44552-0.40625-0.70703-0.1674 0.61159-0.03942 1.2614 0.40625 1.707 0.69237 0.69237 1.8772 0.62868 2.6465-0.14062 0.61381-0.61381 1.0163-1.7354 0.80664-2.5176zm8 2c-0.12716 0.56706-0.4285 1.1394-0.80664 1.5176-0.7693 0.7693-1.9541 0.83299-2.6465 0.14062-0.20082-0.20082-0.33141-0.44552-0.40625-0.70703-0.1674 0.61159-0.03942 1.2614 0.40625 1.707 0.69237 0.69237 1.8772 0.62868 2.6465-0.14062 0.61381-0.61381 1.0163-1.7354 0.80664-2.5176z" opacity=".2"/></g></g></svg>
