<svg width="48" height="48" version="1" xmlns="http://www.w3.org/2000/svg"><path d="m12.011 4.0238a6.234 6.0375 0 0 0-6.3794 6.0349v13.941c-1.3e-6 0.0013 1.4e-6 0.0026 0 0.0039v13.941a6.234 6.0375 0 0 0 0 0.0059c-0.010378 0.6077 0.090842 1.2033 0.27798 1.7716a6.234 6.0375 0 0 0 0 0.0039 6.234 6.0375 0 0 0 0.040582 0.11317c0.040928 0.11578 0.081604 0.23229 0.12986 0.34535a6.234 6.0375 0 0 0 0.21711 0.45852 6.234 6.0375 0 0 0 2.8184 2.716 6.234 6.0375 0 0 0 0.49103 0.21268c5.719e-4 2.2e-4 0.00145-2.2e-4 0.00203 0 0.37762 0.14488 0.77008 0.25323 1.1748 0.31804a6.234 6.0375 0 0 0 0.98207 0.0839c0.07295 0.0018 0.14652 0.0051 0.21914 0.0039a6.234 6.0375 0 0 0 0.34494-0.01951c0.07381-0.0059 0.14779-0.0088 0.22117-0.01756a6.234 6.0375 0 0 0 2.4288-0.7668l12.467-6.9715a6.234 6.0375 0 0 0 0.04058-0.02536l12.426-6.95a6.234 6.0375 0 0 0 3.1045-5.5803c-0.03542-0.76788-0.22159-1.529-0.58234-2.2321-0.26484-0.58587-0.64444-1.0944-1.0916-1.5434a6.234 6.0375 0 0 0-0.02029-0.01951c-0.10168-0.10119-0.20603-0.19983-0.31451-0.29465a6.234 6.0375 0 0 0-0.75482-0.57559c-0.35905-0.24422-0.73226-0.46881-1.118-0.66534-0.02714-0.01033-0.05592-0.01546-0.08319-0.02536l-24.071-13.461a6.234 6.0375 0 0 0-2.9706-0.80583z" fill="#dc3a2d" fill-rule="evenodd" stroke="#542f2f" stroke-opacity=".44946" stroke-width="2.4448" style="paint-order:markers fill stroke"/><g transform="matrix(-.95959 -.38258 .39787 -.92272 32.511 56.205)" fill="#b4291e"><path d="m24.128 19.38c-0.7693 0.7693-1.9542 0.83166-2.6466 0.1393-0.69237-0.69237-0.63001-1.8773 0.13929-2.6466s2.3459-1.2233 3.0382-0.53094 0.23836 2.2689-0.53094 3.0382z"/><path d="m20.128 26.38c-0.7693 0.7693-1.9542 0.83166-2.6466 0.1393-0.69237-0.69237-0.63001-1.8773 0.13929-2.6466s2.3459-1.2233 3.0382-0.53094 0.23836 2.2689-0.53094 3.0382z"/><path d="m30.128 29.38c-0.7693 0.7693-1.9542 0.83166-2.6466 0.1393-0.69237-0.69237-0.63001-1.8773 0.13929-2.6466s2.3459-1.2233 3.0382-0.53094 0.23836 2.2689-0.53094 3.0382z"/><path d="m27.128 37.38c-0.7693 0.7693-1.9542 0.83166-2.6466 0.1393-0.69237-0.69237-0.63001-1.8773 0.13929-2.6466s2.3459-1.2233 3.0382-0.53094 0.23836 2.2689-0.53094 3.0382z"/><path d="m19.128 35.38c-0.7693 0.7693-1.9542 0.83166-2.6466 0.1393-0.69237-0.69237-0.63001-1.8773 0.13929-2.6466s2.3459-1.2233 3.0382-0.53094 0.23836 2.2689-0.53094 3.0382z"/><path d="m10.128 32.38c-0.7693 0.7693-1.9542 0.83166-2.6466 0.1393-0.69237-0.69237-0.63001-1.8773 0.13929-2.6466s2.3459-1.2233 3.0382-0.53094c0.69237 0.69237 0.23836 2.2689-0.53094 3.0382z"/><path d="m13.128 24.38c-0.7693 0.7693-1.9542 0.83166-2.6466 0.1393-0.69237-0.69237-0.63001-1.8773 0.13929-2.6466s2.3459-1.2233 3.0382-0.53094 0.23836 2.2689-0.53094 3.0382z"/></g><path d="m15.293 31.108c0.34764-0.47459 0.86452-0.88741 1.3778-1.0917 1.0443-0.41553 2.2066-0.02102 2.5955 0.88275 0.1128 0.26213 0.14076 0.53788 0.10853 0.80782 0.40397-0.50028 0.5397-1.1488 0.28933-1.7305-0.38892-0.90375-1.5512-1.2983-2.5955-0.88275-0.83322 0.33154-1.6657 1.2125-1.7757 2.0144zm12.545-0.40522c0.34764-0.47459 0.86452-0.88741 1.3778-1.0917 1.0443-0.41553 2.2066-0.02102 2.5955 0.88275 0.11281 0.26213 0.14076 0.53788 0.10853 0.80782 0.40397-0.50028 0.5397-1.1488 0.28933-1.7305-0.38892-0.90375-1.5512-1.2983-2.5955-0.88275-0.83322 0.33154-1.6657 1.2125-1.7757 2.0144zm-5.9214-4.5235c0.34764-0.47459 0.86452-0.88741 1.3778-1.0917 1.0443-0.41553 2.2066-0.02102 2.5955 0.88275 0.1128 0.26213 0.14076 0.53788 0.10853 0.80781 0.40397-0.50028 0.5397-1.1488 0.28933-1.7305-0.38892-0.90375-1.5512-1.2983-2.5955-0.88275-0.83322 0.33154-1.6657 1.2125-1.7757 2.0144zm-8.4023-6.594c0.34764-0.47459 0.86452-0.88741 1.3778-1.0917 1.0443-0.41553 2.2066-0.02102 2.5955 0.88275 0.1128 0.26213 0.14076 0.53788 0.10853 0.80782 0.40397-0.50028 0.5397-1.1488 0.28933-1.7305-0.38892-0.90375-1.5512-1.2983-2.5955-0.88275-0.83322 0.33154-1.6657 1.2125-1.7757 2.0144zm20.385 4.8835c0.34764-0.47459 0.86452-0.88741 1.3778-1.0917 1.0443-0.41553 2.2066-0.02102 2.5955 0.88275 0.1128 0.26213 0.14076 0.53788 0.10853 0.80782 0.40397-0.50028 0.5397-1.1488 0.28933-1.7305-0.38892-0.90375-1.5512-1.2983-2.5955-0.88275-0.83322 0.33154-1.6657 1.2125-1.7757 2.0144zm-7.4427-6.2114c0.34764-0.47459 0.86452-0.88741 1.3778-1.0917 1.0443-0.41553 2.2066-0.02102 2.5955 0.88275 0.1128 0.26213 0.14076 0.53788 0.10853 0.80782 0.40397-0.50028 0.5397-1.1488 0.28933-1.7305-0.38892-0.90375-1.5512-1.2983-2.5955-0.88275-0.83322 0.33154-1.6657 1.2125-1.7757 2.0144zm-6.881-4.9061c0.34764-0.47459 0.86452-0.88741 1.3778-1.0917 1.0443-0.41553 2.2066-0.02102 2.5955 0.88275 0.11281 0.26213 0.14076 0.53788 0.10853 0.80782 0.40397-0.50028 0.5397-1.1488 0.28933-1.7305-0.38892-0.90375-1.5512-1.2983-2.5955-0.88275-0.83322 0.33154-1.6657 1.2125-1.7757 2.0144z" opacity=".2" stroke-width="1.0186"/><path d="m12.48 39.976c0.19169 0.07643 0.39719-0.24921 0.47706-0.75558 0 0 0.29219-1.6008-1.524-3.5828-1.2843-1.3297-1.1076-1.7317 0.66554-1.5152 0.77269 0.09439 1.7653 0.08489 2.2054-0.02102 0.72594-0.17469 0.59373-0.41879-1.4207-2.6302-1.2214-1.3408-2.4136-2.7638-2.6489-3.1622-0.40845-0.69189-0.35368-0.74416 1.2005-1.1505 1.735-0.45372 4.2745-2.1192 4.6858-3.0731 0.22236-0.51569-0.01598-0.65981-2.2496-1.3597-1.3741-0.43058-2.8928-0.8885-3.3749-1.0176l-0.87666-0.23474 1.2378-2.5465c0.68066-1.4005 1.5288-2.8463 1.8849-3.2127 0.35615-0.36643 0.60824-0.75957 0.56009-0.87372-0.20266-0.48073-1.9544-0.29645-3.3827 0.35586-1.4602 0.66679-1.5333 0.66338-1.4641-0.075456-0.211-1.4581-1.8219-2.6056-2.8519-4.0427 0.033673 4.7058-0.018562 19.685-0.012913 24.494 0.46758-0.45388 1.4649-0.81087 1.6079-0.75385 0.14302 0.05702 1.314 1.2107 2.6021 2.5638 1.2881 1.353 2.4938 2.5206 2.679 2.5944z" fill="#75ac4c" stroke-width="1.0186"/></svg>
