<svg width="24" height="24" fill="none" version="1.1" xmlns="http://www.w3.org/2000/svg">
 <rect x=".89736" y="1" width="22" height="22" rx="9.106" fill="url(#a)" opacity=".9" stroke="#808080" stroke-opacity=".2" vector-effect="non-scaling-stroke" style="-inkscape-stroke:hairline;fill:url(#a)"/>
 <g transform="matrix(.84606 0 0 .84606 1.8473 1.8473)" fill-rule="evenodd">
  <path transform="scale(1.3333)" d="m7.082 3a0.32 0.32 0 0 0-0.223 0.547l0.567 0.566a2.87 2.87 0 0 0-1.227 1.762h5.602a2.88 2.88 0 0 0-1.426-1.883l0.445-0.445a0.318 0.318 0 0 0-0.222-0.547 0.3 0.3 0 0 0-0.227 0.098l-0.637 0.636a2.9 2.9 0 0 0-1.711 0.078l-0.714-0.714a0.3 0.3 0 0 0-0.227-0.098m0.961 1.598c0.176 0 0.316 0.144 0.316 0.32a0.318 0.318 0 1 1-0.636 0c0-0.176 0.14-0.32 0.32-0.32m1.914 0c0.18 0 0.32 0.144 0.32 0.32a0.318 0.318 0 1 1-0.636 0c0-0.176 0.14-0.32 0.316-0.32m-5.109 1.918a0.64 0.64 0 0 0-0.641 0.64v2.235a0.6385 0.6385 0 1 0 1.277 0v-2.235a0.637 0.637 0 0 0-0.636-0.64m1.277 0v4.472c0 0.532 0.426 0.961 0.957 0.961h0.32v1.278a0.639 0.639 0 0 0 1.278 0v-1.278h0.64v1.278a0.639 0.639 0 0 0 1.278 0v-1.278h0.32a0.957 0.957 0 0 0 0.957-0.961v-4.472zm7.027 0a0.637 0.637 0 0 0-0.636 0.64v2.235a0.6385 0.6385 0 1 0 1.277 0v-2.235a0.64 0.64 0 0 0-0.641-0.64" style="fill-rule:nonzero;fill:#81d2d2"/>
  <path transform="scale(1.3333)" d="m7.621 15h2.758c0.09 0 0.164-0.074 0.164-0.164v-2.758a0.165 0.165 0 0 0-0.164-0.164h-2.758a0.165 0.165 0 0 0-0.164 0.164v2.758c0 0.09 0.074 0.164 0.164 0.164" style="fill-rule:nonzero;fill:#dce2e9"/>
  <path transform="scale(1.3333)" d="m7.996 13.5v0.406a0.07 0.07 0 0 0 0.07 0.071h0.407a0.07 0.07 0 0 0 0.07-0.071v-0.406a0.07 0.07 0 0 0-0.07-0.07h-0.407a0.07 0.07 0 0 0-0.07 0.07m1.442 0v0.406a0.07 0.07 0 0 0 0.07 0.071h0.41c0.035 0 0.066-0.032 0.066-0.071v-0.406c0-0.039-0.031-0.07-0.066-0.07h-0.41a0.07 0.07 0 0 0-0.07 0.07" style="fill-rule:nonzero;fill:#5a6271"/>
  <path transform="scale(1.3333)" d="m9.621 9.578h-0.32v-0.32h0.097v-0.289l-0.347-0.348v1.094h0.168l-0.231 0.398-0.23-0.398h0.168v-1.469l-0.321 0.32v0.293c0.192 0.071 0.141 0.356-0.062 0.356s-0.254-0.285-0.063-0.356v-0.343l0.446-0.446v-0.152c-0.34-0.078-0.285-0.578 0.062-0.578 0.348 0 0.403 0.5 0.063 0.578v0.527l0.472 0.473v0.34h0.098z" style="fill-rule:nonzero;fill:#ffffff"/>
 </g>
 <defs>
  <linearGradient id="a" x1=".05" x2="1" y2="1" gradientTransform="matrix(22 0 0 22 -.10264 0)" gradientUnits="userSpaceOnUse">
   <stop style="stop-color:#25605a" offset=".2327"/>
   <stop style="stop-color:#247a7a" offset=".23452"/>
   <stop style="stop-color:#255b5b" offset="1"/>
  </linearGradient>
 </defs>
</svg>
