<svg width="24" height="24" fill="none" version="1.1" xmlns="http://www.w3.org/2000/svg">
 <rect x=".89736" y="1" width="22" height="22" rx="9.106" fill="url(#a)" opacity=".9" stroke="#808080" stroke-opacity=".2" vector-effect="non-scaling-stroke" style="-inkscape-stroke:hairline;fill:url(#a)"/>
 <g transform="matrix(.75561 0 0 .75561 5.955 5.955)" fill="currentColor" style="fill:#ffffff">
  <g style="fill:#ffffff;paint-order:markers fill stroke;stroke-linecap:round;stroke-linejoin:bevel;stroke-opacity:.2;stroke-width:.25136;stroke:#000000">
   <path d="m8 0c-4.41 0-8 3.59-8 8s3.59 8 8 8c0.715 0 1.307-0.192 1.717-0.56 0.41-0.37 0.589-0.883 0.594-1.342 7e-3 -0.77-0.517-1.297-0.801-1.534a2 2 0 0 1-0.258-0.242c-0.206-0.252 0.106-0.464 0.225-0.523 0.219-0.109 0.64-0.145 1.01-0.145 1.638 0 3.008-0.439 3.986-1.242a4.18 4.18 0 0 0 1.527-3.266c0-4.25-3.921-7.146-8-7.146z" style="fill:#ffffff;opacity:.5;paint-order:markers fill stroke;stroke-linecap:round;stroke-linejoin:bevel;stroke-opacity:.2;stroke-width:.25136;stroke:#000000"/>
   <path class="ColorScheme-Text" d="m8 0c-4.41 0-8 3.59-8 8s3.59 8 8 8c0.715 0 1.307-0.192 1.717-0.56 0.41-0.37 0.589-0.883 0.594-1.342 7e-3 -0.77-0.517-1.297-0.801-1.534a2 2 0 0 1-0.258-0.242c-0.206-0.252 0.106-0.464 0.225-0.523 0.219-0.109 0.64-0.145 1.01-0.145 1.638 0 3.008-0.439 3.986-1.242a4.18 4.18 0 0 0 1.527-3.266c0-4.25-3.921-7.146-8-7.146m0 1c3.606 0 7 2.51 7 6.147 0 1.003-0.412 1.878-1.162 2.494-0.762 0.625-1.891 1.013-3.352 1.013-0.432 0-0.855-0.047-1.453 0.248-0.179 0.089-0.37 0.182-0.6 0.496a1.3 1.3 0 0 0-0.25 0.706c-0.011 0.309 0.12 0.639 0.294 0.851 0.128 0.158 0.223 0.236 0.392 0.377 0.188 0.157 0.445 0.444 0.442 0.756a0.85 0.85 0 0 1-0.262 0.607c-0.183 0.165-0.513 0.305-1.049 0.305-3.867 0-7-3.133-7-7s3.133-7 7-7" fill="currentColor" style="fill:#ffffff;opacity:.5;paint-order:markers fill stroke;stroke:none"/>
  </g>
  <g fill="currentColor">
   <circle class="ColorScheme-Text" cx="4.116" cy="9.063" r="1" style="fill:#ffff00"/>
   <circle class="ColorScheme-Text" cx="4.762" cy="5.671" r="1" style="fill:#ff0000"/>
   <circle class="ColorScheme-Text" cx="8" cy="4" r="1" style="fill:#00ff00"/>
   <circle class="ColorScheme-Text" cx="11.285" cy="5.844" r="1" style="fill:#0000ff"/>
  </g>
 </g>
 <defs>
  <linearGradient id="a" x1=".05" x2="1" y2="1" gradientTransform="matrix(22 0 0 22 -.10264 0)" gradientUnits="userSpaceOnUse">
   <stop style="stop-color:#4a3630" offset=".2327"/>
   <stop style="stop-color:#5c504e" offset=".23452"/>
   <stop style="stop-color:#574935" offset="1"/>
  </linearGradient>
 </defs>
</svg>
