<svg width="24" height="24" fill="none" version="1.1" xmlns="http://www.w3.org/2000/svg">
 <rect x=".89736" y="1" width="22" height="22" rx="9.106" fill="url(#a)" opacity=".9" stroke="#808080" stroke-opacity=".2" vector-effect="non-scaling-stroke" style="-inkscape-stroke:hairline;fill:url(#a)"/>
 <path d="m7.1834 16c-0.66572-0.90519-0.74193-1.0135-0.74193-1.0543 0-0.0212 0.27228-0.39386 0.60507-0.82807l0.60507-0.78946v1.6196c0 0.89076-0.01148 1.6196-0.02551 1.6196s-0.21325-0.25526-0.4427-0.56726zm0.82117-1.039v-0.76366h3.1766c3.7764 0 3.3969 0.08197 3.3702-0.72799-0.01032-0.31278-0.04174-0.54704-0.07943-0.59237-0.05342-0.06425-0.50844-0.0796-3.1713-0.10718-2.8629-0.029646-3.1166-0.039132-3.2064-0.1204-0.093447-0.084564-0.096799-0.16131-0.081008-1.8543 0.015475-1.6589 0.022598-1.7765 0.11732-1.9373 0.14506-0.24627 0.33781-0.3706 0.64159-0.41385 0.14631-0.020826 1.8373-0.039503 3.7578-0.041578l3.4918-0.0037v1.4574l-3.1749 0.015045c-2.969 0.014081-3.1807 0.0209-3.2649 0.1051-0.074805 0.074834-0.090005 0.17826-0.090005 0.61238 0 0.81322-0.297 0.73413 2.7685 0.73721 1.417 0.0015 2.7294 0.01964 2.9165 0.04039 0.38005 0.04224 0.55988 0.14636 0.71875 0.41607 0.09473 0.16084 0.10085 0.2619 0.10085 1.6669v1.4957l-0.11399 0.30428c-0.08406 0.11962-0.1954 0.21518-0.33565 0.27742l-0.33062 0.14672-7.2117 0.05129zm8.3954-7.5273 0.40749 0.54556c0.83707 1.1207 0.80055 1.0572 0.69867 1.2144-0.11306 0.17447-0.63164 0.8635-0.90715 1.2053l-0.21011 0.26067c-0.0021 0.05151 0.0111-3.226 0.0111-3.226z" style="fill:#ffffff;stroke-width:.74114"/>
 <defs>
  <linearGradient id="a" x1=".05" x2="1" y2="1" gradientTransform="matrix(22 0 0 22 -.10264 0)" gradientUnits="userSpaceOnUse">
   <stop style="stop-color:#2e5b7d" offset=".2327"/>
   <stop style="stop-color:#386f93" offset=".23452"/>
   <stop style="stop-color:#28556b" offset="1"/>
  </linearGradient>
 </defs>
</svg>
