<svg width="24" height="24" fill="none" version="1.1" xmlns="http://www.w3.org/2000/svg">
 <rect x=".89736" y="1" width="22" height="22" rx="9.106" fill="url(#a)" opacity=".9" stroke="#808080" stroke-opacity=".2" vector-effect="non-scaling-stroke" style="-inkscape-stroke:hairline;fill:url(#a)"/>
 <g transform="matrix(.60648 0 0 .60648 5.3287 5.3287)" fill="currentColor" style="fill:#ffffff">
  <path transform="matrix(1.1341 0 0 1.1341 -1.4751 -1.4751)" d="m6 3c-1.662 0-3 1.338-3 3v10c0 1.662 1.338 3 3 3h10c1.662 0 3-1.338 3-3v-10c0-1.662-1.338-3-3-3z" style="fill:#ffffff;opacity:.4"/>
  <path transform="matrix(1.1341 0 0 1.1341 -1.4751 -1.4751)" d="m6 3c-1.662 0-3 1.338-3 3v10c0 1.662 1.338 3 3 3h10c1.662 0 3-1.338 3-3v-10c0-1.662-1.338-3-3-3zm0 3h10c1.108 0 2 0.892 2 2v8c0 1.108-0.892 2-2 2h-10c-1.108 0-2-0.892-2-2v-8c0-1.108 0.892-2 2-2"/>
 </g>
 <defs>
  <linearGradient id="a" x1=".05" x2="1" y2="1" gradientTransform="matrix(22 0 0 22 -.10264 0)" gradientUnits="userSpaceOnUse">
   <stop stop-color="#813d20" offset=".2327"/>
   <stop stop-color="#9d4e26" offset=".23452"/>
   <stop stop-color="#834221" offset="1"/>
  </linearGradient>
 </defs>
</svg>
