<svg width="24" height="24" fill="none" version="1.1" xmlns="http://www.w3.org/2000/svg">
 <rect x=".89736" y="1" width="22" height="22" rx="9.106" fill="url(#a)" opacity=".9" stroke="#808080" stroke-opacity=".2" vector-effect="non-scaling-stroke" style="-inkscape-stroke:hairline;fill:url(#a)"/>
 <path class="ColorScheme-Text" d="m14.122 6.5736c-0.42143 0.025789-0.71053 0.29045-0.91344 0.61755-0.22123-0.80486-1.7909-0.85508-2.1044 0.28638-0.24702-0.26602-0.56191-0.44993-0.95823-0.42143h-0.01628c-0.72546 0.063112-1.2392 0.7017-1.1143 1.4007l0.61891 3.6042c-0.23481-0.16083-0.51915-0.43636-0.72817-0.5273-0.48386-0.21173-0.92701-0.2382-1.284-0.13572-0.71392 0.20427-0.92769 0.87272-0.92769 0.87272l-0.12351 0.34746 0.30878 0.21105c0.68203 0.4479 1.3735 1.5351 2.0264 2.5476 0.3271 0.50626 0.65217 0.98469 1.022 1.3715 0.36985 0.38682 0.78925 0.68406 1.3532 0.68067h4.8834l0.01561-0.45332s0.04344-0.8415 0.12351-1.8391c0.08008-0.99759 0.20359-2.1608 0.34067-2.6996l0.7431-2.9093c0.21444-0.79875-0.4384-1.5676-1.284-1.5066-0.25992 0.013573-0.48862 0.12555-0.68135 0.27077l0.01425-0.43704c0.048877-0.73021-0.56462-1.3288-1.3145-1.2813m-1.9497 0.48115v0.00135c0.3936-0.024426 0.77296 0.3081 0.78857 0.69221l0.18662 3.3321c0.01089 0.18798 0.13098 0.18595 0.1398 0.01559l0.16966-3.3477c0.01356-0.35425 0.33253-0.67184 0.6956-0.69356 0.42007-0.027146 0.81707 0.35967 0.78992 0.76957l-0.18527 3.6626c-0.0061 0.10994 0.02648 0.16423 0.06107 0.03054l0.63452-2.4573c0.07262-0.30131 0.36375-0.54019 0.68134-0.55851 0.46893-0.033932 0.89308 0.46147 0.77364 0.90529l-0.7431 2.9093c-0.2986 1.1693-0.44925 4.084-0.4669 4.4321l-4.3765 0.0019c-1.4367-0.0142-2.4865-3.2248-4.1634-4.3276 0 0 0.60398-1.7346 3.081 0.67727 0 0 0.01698-0.08007 0.04614-0.19477a0.67863 0.67863 0 0 1-0.0319-0.18253l-0.74241-4.3419c-0.069894-0.39293 0.25789-0.80757 0.66506-0.84354 0.37053-0.026467 0.73564 0.25992 0.78925 0.61755l0.54155 3.1665c0.02239 0.13098 0.17984 0.09637 0.16966-0.07465l-0.19952-3.4216c-0.0251-0.37935 0.30606-0.74649 0.6956-0.76957" fill="currentColor" style="fill:#ffffff"/>
 <defs>
  <linearGradient id="a" x1=".05" x2="1" y2="1" gradientTransform="matrix(22 0 0 22 -.10264 0)" gradientUnits="userSpaceOnUse">
   <stop stop-color="#184457" offset=".2327"/>
   <stop stop-color="#376072" offset=".23452"/>
   <stop stop-color="#18485a" offset="1"/>
  </linearGradient>
 </defs>
</svg>
