<svg width="32" height="32" version="1.1" xmlns="http://www.w3.org/2000/svg"><defs><style type="text/css">.ColorScheme-Text{color:#fcfcfc}</style></defs><g transform="matrix(.75467 0 0 .7804 -15.696 11.318)"><path d="m26-10h32v32h-32z" fill-opacity="0"/><path class="ColorScheme-Text" d="m31-5c-1.662 0-3 1.338-3 3v12c0 1.662 1.338 3 3 3h9v3h-3.5a0.5 0.5 0 1 0 0 1h11a0.5 0.5 0 1 0 0-1h-3.5v-3h9c1.662 0 3-1.338 3-3v-12c0-1.662-1.338-3-3-3zm0 1h22c1.108 0 2 0.892 2 2v12c0 1.108-0.892 2-2 2h-22c-1.108 0-2-0.892-2-2v-12c0-1.108 0.892-2 2-2m17.5 2a0.5 0.5 0 1 0 0 1h3.5v3.5a0.5 0.5 0 1 0 1 0v-3.5c0-0.554-0.446-1-1-1h-3zm-17 7c-0.277 0-0.5 0.223-0.5 0.5v3.5c0 0.554 0.446 1 1 1h3.5a0.5 0.5 0 1 0 0-1h-3.5v-3.5c0-0.277-0.223-0.5-0.5-0.5m9.5 8h2v3h-2z" fill="currentColor"/></g></svg>
