<svg width="48" height="48" version="1" xmlns="http://www.w3.org/2000/svg" xmlns:xlink="http://www.w3.org/1999/xlink">
 <defs>
  <linearGradient id="linearGradient5" x1="4" x2="11" y1="24" y2="24" gradientUnits="userSpaceOnUse">
   <stop style="stop-color:#e6fafa" offset="0"/>
   <stop style="stop-color:#dcf4fc" offset="1"/>
  </linearGradient>
 </defs>
 <rect x="4" y="9" width="40" height="32" rx="2" ry="2" style="opacity:.2"/>
 <rect x="4" y="8" width="40" height="32" rx="2" ry="2" style="fill:#5e5e5e"/>
 <path d="m6 8c-1.108 0-2 0.892-2 2v28c0 1.108 0.892 2 2 2h5v-32h-5z" style="fill:url(#linearGradient5);opacity:.6"/>
 <path d="m6 8c-1.108 0-2 0.892-2 2v1c0-1.108 0.892-2 2-2h36c1.108 0 2 0.892 2 2v-1c0-1.108-0.892-2-2-2h-36z" style="fill:#ffffff;opacity:.1"/>
 <path d="m31.613 18.052c0.12551 0.12372 0.3271 0.12372 0.45261 0l0.9878-0.9735c0.60348-0.61301 0.62889-1.2737 0.09211-1.8263l-0.40496-0.40496c-0.54313-0.54313-1.1958-0.49072-1.8104 0.10958l-0.97986 0.97033c-0.12372 0.12551-0.12372 0.3271 0 0.45261zm-14.196 14.501c0.21122-0.07782 0.39703-0.20328 0.55901-0.35732l12.589-12.659c0.12372-0.12551 0.12372-0.3271 0-0.45261l-1.6484-1.6627c-0.12186-0.13089-0.32918-0.13089-0.45102 0l-12.619 12.689c-0.14183 0.14352-0.25502 0.31276-0.3335 0.49866l-1.0196 2.3885c-0.10799 0.2938 0.19534 0.62889 0.47643 0.50343z" fill="#f6f6f6" style="fill:#dcf4fc;stroke-width:1.5881"/>
</svg>
