<svg width="48" height="48" version="1" xmlns="http://www.w3.org/2000/svg" xmlns:xlink="http://www.w3.org/1999/xlink">
 <defs>
  <linearGradient id="linearGradient8" x1="22" x2="26" y1="15" y2="15" gradientUnits="userSpaceOnUse">
   <stop style="stop-color:#e6fafa" offset="0"/>
   <stop style="stop-color:#dcf4fc" offset="1"/>
  </linearGradient>
 </defs>
 <path d="m24 5c-0.01733 0-0.03611 0.00286-0.05344 0.00286h-0.0058c-6.4798 0.039997-12.941 6.6814-12.941 11.666v16.479c0 6.7729 4.875 11.853 13 11.853 8.125 0.0014 13-5.0771 13-11.85v-16.027c0-5.18-6.4913-12.076-13-12.117z" style="opacity:.2"/>
 <path d="m24 4c-0.01733 0-0.03611 0.00286-0.05344 0.00286h-0.0058c-6.4798 0.039997-12.941 6.6814-12.941 11.666v16.479c0 6.7729 4.875 11.853 13 11.853 8.125 0.0014 13-5.0771 13-11.85v-16.027c0-5.18-6.4913-12.076-13-12.117z" style="fill:#5e5e5e"/>
 <path d="m24 4c-0.01733 0-0.035404 0.0019531-0.052734 0.0019531h-0.00586c-6.4798 0.039997-12.941 6.6817-12.941 11.666v8.332h26v-7.877c0-5.18-6.4913-12.076-13-12.117v-0.0058594z" style="fill:#ffffff;opacity:.07"/>
 <path d="m24 4c-0.01733 0-0.0354 0.00195-0.05273 0.00195h-0.0059c-6.4797 0.04-12.941 6.6817-12.941 11.666v8.332h13v-19.994z" style="fill:#ffffff;opacity:.07"/>
 <path d="m24 10c1.102 0 2 0.96007 2 2.143v5.7147c0 1.1817-0.898 2.1418-2 2.1418s-2-0.96006-2-2.1435v-5.7147c0-1.1817 0.898-2.1418 2-2.1418" style="fill:url(#linearGradient8)"/>
 <path d="m24 4c-0.01733 0-0.035404 0.0019531-0.052734 0.0019531h-0.00586c-6.4798 0.039997-12.941 6.6817-12.941 11.666v1c0-4.9843 6.4616-11.626 12.941-11.666h0.00586c0.01733 0 0.035404-0.0019531 0.052734-0.0019531v0.0058594c6.5087 0.041429 13 6.9372 13 12.117v-1c0-5.18-6.4913-12.076-13-12.117v-0.0058594z" style="fill:#ffffff;opacity:.1"/>
</svg>
