<svg width="48" height="48" version="1" xmlns="http://www.w3.org/2000/svg">
 <rect transform="matrix(0,-1,-1,0,0,0)" x="-45" y="-40" width="40" height="32" rx="2" ry="2" style="opacity:.2"/>
 <rect transform="matrix(0,-1,-1,0,0,0)" x="-44" y="-40" width="40" height="32" rx="2" ry="2" style="fill:#5e5e5e"/>
 <rect transform="matrix(0,-1,-1,0,0,0)" x="-39" y="-35" width="30" height="22" rx="0" ry="0" style="fill:#e4e4e4"/>
 <path d="m10 4c-1.108 0-2 0.892-2 2v1c0-1.108 0.892-2 2-2h28c1.108 0 2 0.892 2 2v-1c0-1.108-0.892-2-2-2h-28z" style="fill:#ffffff;opacity:.1"/>
 <rect x="4" y="17" width="40" height="4" rx="1" ry="1" style="opacity:.2"/>
 <rect x="4" y="16" width="40" height="4" rx="1" ry="1" style="fill:#dcf4fc"/>
 <rect transform="matrix(0,-1,-1,0,0,0)" x="-40" y="-35" width="1" height="22" rx="0" ry="0" style="opacity:.2"/>
 <rect transform="matrix(0,-1,-1,0,0,0)" x="-10" y="-35" width="1" height="22" rx="0" ry="0" style="fill:#ffffff;opacity:.2"/>
</svg>
